<svg xmlns="http://www.w3.org/2000/svg" xmlns:xlink="http://www.w3.org/1999/xlink" cursor="default" viewBox="0 0 256 256">
    <defs>
        <linearGradient id="innoGrad1">
            <stop offset="0" stop-color="#ff8080"/>
            <stop offset="1" stop-color="#faa"/>
        </linearGradient>
        <linearGradient id="innoGrad0">
            <stop offset="0" stop-color="#ffd5d5"/>
            <stop offset="1" stop-color="#faa"/>
        </linearGradient>
        <linearGradient id="linearGradient933" x1="31.854" x2="7.03" y1="303.099" y2="303.483" gradientTransform="rotate(.317 -32626.609 28345.214) scale(.36507)" gradientUnits="userSpaceOnUse" xlink:href="#innoGrad0"/>
        <linearGradient id="linearGradient941" x1="123.387" x2="-49.997" y1="177.782" y2="190.438" gradientTransform="rotate(.317 -32626.609 28345.214) scale(.36507)" gradientUnits="userSpaceOnUse" xlink:href="#innoGrad0"/>
        <linearGradient id="linearGradient949" x1="69.351" x2="-15.907" y1="-261.749" y2="305.55" gradientTransform="rotate(.654 -12760.1 11188.865) scale(.36507)" gradientUnits="userSpaceOnUse" xlink:href="#innoGrad0"/>
        <linearGradient id="linearGradient957" x1="-28.052" x2="-6.292" y1="112.021" y2="77.704" gradientTransform="rotate(.654 -12760.1 11188.865) scale(.36507)" gradientUnits="userSpaceOnUse" xlink:href="#innoGrad0"/>
        <linearGradient id="linearGradient965" x1="73.463" x2="46.91" y1="120.94" y2="80.287" gradientTransform="rotate(.654 -12760.1 11188.865) scale(.36507)" gradientUnits="userSpaceOnUse" xlink:href="#innoGrad0"/>
        <linearGradient id="linearGradient973" x1="145.207" x2="72.573" y1="26.438" y2="40.628" gradientTransform="rotate(.654 -12234.968 11185.713) scale(.36507)" gradientUnits="userSpaceOnUse" xlink:href="#innoGrad1"/>
        <linearGradient id="linearGradient981" x1="142.598" x2="12.937" y1="26.298" y2="86.893" gradientTransform="rotate(.654 -12234.968 11185.713) scale(.36507)" gradientUnits="userSpaceOnUse" xlink:href="#innoGrad0"/>
        <linearGradient id="linearGradient989" x1="5.15" x2="-98.947" y1="21.105" y2="9.016" gradientTransform="rotate(.654 -12760.1 11188.865) scale(.36507)" gradientUnits="userSpaceOnUse" xlink:href="#innoGrad1"/>
        <linearGradient id="linearGradient997" x1="-30.807" x2="-138.179" y1="24.421" y2="10.998" gradientTransform="rotate(.654 -12760.1 11188.865) scale(.36507)" gradientUnits="userSpaceOnUse" xlink:href="#innoGrad0"/>
        <linearGradient id="linearGradient1005" x1="-30.807" x2="-138.946" y1="24.421" y2="5.629" gradientTransform="rotate(11.834 -493.115 617.755) scale(.36507)" gradientUnits="userSpaceOnUse" xlink:href="#innoGrad0"/>
        <linearGradient id="linearGradient1013" x1="-30.807" x2="-138.946" y1="24.421" y2="5.629" gradientTransform="rotate(-11.438 873.45 -562.376) scale(.36507)" gradientUnits="userSpaceOnUse" xlink:href="#innoGrad0"/>
        <linearGradient id="linearGradient1021" x1="-8.703" x2="-70.714" y1="-122.58" y2="-155.563" gradientTransform="rotate(-11.438 873.45 -562.376) scale(.36507)" gradientUnits="userSpaceOnUse" xlink:href="#innoGrad1"/>
        <linearGradient id="linearGradient1023" x1="5.15" x2="-98.947" y1="21.105" y2="9.016" gradientTransform="rotate(11.834 -493.115 617.755) scale(.36507)" gradientUnits="userSpaceOnUse" xlink:href="#innoGrad1"/>
        <linearGradient id="linearGradient1031" x1="118.975" x2="-3.984" y1="-138.516" y2="-111.67" gradientTransform="rotate(.654 -12760.1 11188.865) scale(.36507)" gradientUnits="userSpaceOnUse" xlink:href="#innoGrad0"/>
        <linearGradient id="linearGradient1039" x1="118.975" x2="-3.984" y1="-138.516" y2="-111.67" gradientTransform="rotate(.654 -12760.1 11188.865) scale(.36507)" gradientUnits="userSpaceOnUse" xlink:href="#innoGrad0"/>
        <linearGradient id="linearGradient1047" x1="29.978" x2="131.939" y1="-23.423" y2="-53.72" gradientTransform="rotate(.654 -12760.1 11188.865) scale(.36507)" gradientUnits="userSpaceOnUse" xlink:href="#innoGrad1"/>
        <linearGradient id="linearGradient1055" x1="105.175" x2="105.444" y1="-72.1" y2="-61.558" gradientUnits="userSpaceOnUse" xlink:href="#innoGrad0"/>
        <linearGradient id="linearGradient1063" x1="135.076" x2="135.216" y1="-39.646" y2="-26.43" gradientUnits="userSpaceOnUse" xlink:href="#innoGrad0"/>
        <linearGradient id="linearGradient1073" x1="115.424" x2="123.584" y1="40.835" y2="41.038" gradientUnits="userSpaceOnUse" xlink:href="#innoGrad1"/>
        <linearGradient id="linearGradient1089" x1="139.009" x2="103.963" y1="23.151" y2="38.744" gradientUnits="userSpaceOnUse" xlink:href="#innoGrad0"/>
        <linearGradient id="linearGradient892" x1="135.076" x2="135.216" y1="-39.646" y2="-26.43" gradientTransform="translate(-31.252 -36.599)" gradientUnits="userSpaceOnUse" xlink:href="#innoGrad0"/>
    </defs>
    <path fill="#ffd5d5" stroke="#000" stroke-linecap="round" stroke-linejoin="round" stroke-width=".365" d="M146.81 207.945l.603 37.713c-.073 1.062-.96 2.035-.96 2.035l-1.481-39.773z"/>
    <path fill="url(#linearGradient933)" stroke="#000" stroke-width=".365" d="M110.54 209.937l1.443 36.555c.037.944.925 1.42 1.676 1.591 3.78.86 7.825 1.56 11.156 1.875 2.058.195 3.58.212 5.12.082a204.91 204.91 0 0 0 15.335-1.888c.849-.136 1.505-.423 1.49-1.38l-.53-35.697z"/>
    <path fill="#ffd5d5" stroke="#000" stroke-width=".365" d="M110.54 209.937c.023.789.078 1.267 1.49 1.614 3.763.925 8.49 1.404 11.821 1.72 2.058.195 3.58.212 5.12.082 5.196-.44 10.931-.787 16.086-1.65.893-.15 1.264-.823 1.43-1.38 0 0-24.277-.272-35.947-.386z"/>
    <path fill="url(#linearGradient1073)" fill-rule="evenodd" stroke="#000" stroke-width=".402" d="M118.013 18.927c-1.522 8.455-2.276 30.187.015 44.289l6.403-3.051c-1.495-12.112-2.025-30.501.528-40.211z"/>
    <ellipse cx="103.955" cy="-68.673" fill="url(#linearGradient892)" stroke="#000" stroke-linecap="round" stroke-width=".402" rx="8.402" ry="8.457" transform="rotate(41.064)"/>
    <path fill="url(#linearGradient989)" stroke="#000" stroke-width=".365" d="M118.975 150.771c-2.035-6.459-30.273-8.884-34.224-3.79-.942-1.418-2.481-3.722-.401-4.978 5.277-3.77 28.519-2.8 34.556 2.615 2.423 2.051 2.83 5.342.069 6.153z"/>
    <path fill="url(#linearGradient1021)" stroke="#000" stroke-width=".365" d="M84.382 112.936c9.71-.769 27.971 2.302 35.344 5.45 0 .001-1.926 5.606-19.519 3.874-6.093-.6-15.825-9.324-15.825-9.324z"/>
    <path fill="#ff8080" stroke="#000" stroke-width=".365" d="M134.189 97.458c11.55-1.68 22.911-3.782 33.82-6.914l-18.193-.898z"/>
    <path fill="url(#linearGradient1023)" stroke="#000" stroke-width=".365" d="M85.345 81.022c9.673 1.368 27.325 6.805 34.213 10.409 0 0-2.701 5.274-19.87 1.065-5.947-1.458-14.343-11.474-14.343-11.474z"/>
    <path fill="url(#linearGradient1047)" stroke="#000" stroke-width=".365" d="M168.85 116.853c-11.658.194-23.176.991-34.355 3.354l18 2.787z"/>
    <path fill="url(#linearGradient973)" stroke="#000" stroke-width=".365" d="M137.078 154.445c1.488-7.002 28.345-12.22 32.984-6.773.82-1.581 2.544-4.389.367-5.528-5.574-3.507-28.653-.395-34.217 5.864-2.244 2.383-1.953 5.829.866 6.437z"/>
    <ellipse cx="135.207" cy="-32.074" fill="url(#linearGradient1063)" stroke="#000" stroke-linecap="round" stroke-width=".402" rx="8.402" ry="8.457" transform="rotate(41.064)"/>
    <path fill="url(#linearGradient941)" stroke="#000" stroke-width=".365" d="M112.496 206.522c.797-.156 33.417-.133 33.952.11.755.342.313 4.281-.475 4.478-1.354.338-33.853 1.265-35.245-.465-.78-.97.89-3.951 1.768-4.123z"/>
    <path fill="url(#linearGradient949)" stroke="#000" stroke-width=".365" d="M113.382 208.476l-3.899-124.588c.036-3.297 1.552-16.142 14.602-16.644 18.03-.693 17.94 16.033 18.012 17.558l2.617 123.419c.024 1.1-5.333 1.568-5.369-.016L136.503 84.18c-.063-7.058-5.18-11.346-11.08-11.251-7.81.125-10.206 5.142-10.197 10.74l3.97 124.519c.046 1.424-5.778 1.425-5.814.287z"/>
    <path fill="url(#linearGradient965)" stroke="#000" stroke-width=".365" d="M143.983 173.153c2.915-1.415 6.158-2.28 8.775-2.563.78-.084 1.593-.132 2.42-.138 5.785-.042 13.822 1.571 14.159 8.852.344 7.437-7.141 11.177-13.587 12.538-7.916 1.672-19.103.663-19.456-8.932-.085-2.287.834-4.27 2.335-5.94l-.157-7.33c-5.245 3.084-8.697 7.798-8.355 14 .68 12.316 12.89 16.537 26.474 13.84 10.928-2.169 19.94-10.175 18.994-19.103-.981-9.259-9.118-12.935-18.746-13.063a42.79 42.79 0 0 0-4.202.156c-3.082.262-6.015.85-8.794 1.788z"/>
    <path fill="url(#linearGradient1013)" stroke="#000" stroke-width=".365" d="M84.382 112.936c-2.342-.608-4.457 3.215-1.75 4.998 5.882 3.875 12.775 5.383 18.453 6.168 6.886.953 14.07 1.169 17.673-.014 4.347-1.428 2.998-5.48.968-5.701-.853 2.83-27.48-.681-35.344-5.45z"/>
    <path fill="url(#linearGradient1031)" stroke="#000" stroke-width=".365" d="M133.202 91.321c-5.655 2.205-2.4 7.208 1.518 6.056 10.8-3.175 21.542-5.569 32.506-6.689 4.241-.433 4.183-6.33-1.18-6.04-11.069.6-22.247 2.543-32.844 6.673z"/>
    <path fill="url(#linearGradient1039)" stroke="#000" stroke-width=".365" d="M169.193 123.059c5.801-1.783 3.096-7.116-.88-6.181-10.855 2.552-21.835 3.7-33.025 3.266-4.26-.165-4.815 5.764.545 6.13 11.17.763 22.545.109 33.36-3.215z"/>
    <path fill="url(#linearGradient1005)" stroke="#000" stroke-width=".365" d="M85.345 81.022c-2.232-.934-4.98 2.682-2.44 4.7 5.726 4.55 12.025 6.454 17.534 8.037 6.681 1.92 13.25 3.546 17.353 3.178 4.556-.41 3.744-5 1.766-5.506-1.217 2.243-27.05-5.423-34.213-10.409z"/>
    <path fill="url(#linearGradient981)" stroke="#000" stroke-width=".365" d="M136.212 148.008c-2.029 1.575-3.12 3.62-3.02 5.855.19 4.281 3.79 7.217 7.775 7.945 10.39 1.9 24.988-1.942 31.296-8.589 3.795-3.998 2.32-9.426-1.834-11.075 0 0 1.303 1.64.338 3.974-1.602 3.879-10.201 8.11-15.895 9.231-5.698 1.122-15.612 2.369-18.867-2.706-1.61-2.51.207-4.635.207-4.635z"/>
    <path fill="url(#linearGradient957)" stroke="#000" stroke-width=".365" d="M112.025 165.378c-2.306-.511-4.712-.76-7.154-.792a41.585 41.585 0 0 0-4.204.16c-9.201.808-20.736 7.781-19.431 19.445 1.1 9.84 13.554 15.59 22.84 15.342 12.264-.328 24.624-6.758 22.226-20.748-.944-5.508-4.134-9.133-8.401-11.341l.232 7.131c1.315 1.447 2.243 3.199 2.596 5.35 1.562 9.525-7.833 14.06-16.491 14.067-8.327.007-15.883-3.91-16.607-10.605-.948-8.772 7.83-13.199 14.06-13.984a20.196 20.196 0 0 1 2.56-.152c2.44.006 5.299.454 7.95 1.462z"/>
    <path fill="url(#linearGradient997)" stroke="#000" stroke-width=".365" d="M118.906 144.618c2.145 1.31 3.411 3.337 3.489 5.448.149 4.042-3.226 6.91-7.14 7.933-10.203 2.667-25.05.292-31.86-5.425-4.096-3.438-3.055-8.668.955-10.571 0 0-1.17 1.652-.024 3.767 1.902 3.511 10.804 6.762 16.565 7.334 5.766.572 15.742.904 18.586-4.144 1.406-2.497-.571-4.342-.571-4.342z"/>
    <path fill="url(#linearGradient1089)" stroke="#000" stroke-linecap="round" stroke-width=".402" d="M139.008 27.385c-.425 11.157-12.628 17.536-22.271 13.4-6.434-2.76-9.167-8.532-8.82-14.408.256-4.303 3.32-8.679 6.91-11.07.754-.503 1.574-.044 2.032.68.445.702.486 2.13-.461 2.845-2.841 2.147-4.362 4.916-4.55 8.457-.283 5.344 4.121 9.551 7.56 10.438 9.558 2.465 15.389-4.457 15.664-10.298.187-3.988-2.202-6.815-3.584-8.236.446-1.243.558-2.663.372-3.95 4.848 2.256 7.32 7.628 7.148 12.142z"/>
    <path fill="#fff" fill-rule="evenodd" d="M133.465 17.518c.322.122 1.027.474 1.294.668.969.704 1.799 1.975 2.398 3.157.766 1.513.994 3.169 1.246 4.377-.34-1.178-.88-2.718-1.72-4.171-.66-1.139-1.678-2.164-2.558-2.997-.243-.231-.519-.799-.66-1.034z"/>
    <path fill="#fff" d="M125.584 68.191c2.244.378 4.265.818 6.263 1.94 3.027 1.699 5.79 3.49 7.081 6-.634-3.01-3.741-5.877-6.3-7.064-2.561-1.186-5.082-1.143-7.044-.876zM143.9 212.9c-1.286-.16-2.515.092-3.513.294-2.289.446-3.975 1.05-3.975 1.05s1.79.098 4.087.097c1.038.003 2.24-.092 3.206.045.145.02.219.083.09-.007-.275-.192-.143-.172-.101-.032.174.564.225 1.228.312 1.926.128 1.067.239 2.185.343 3.187.41 3.945.812 7.009.812 7.009s.342-3.071.37-7.066c.007-1.03-.007-2.14-.084-3.265-.042-.68-.09-1.437-.315-2.217-.074-.25-.067-.484-.476-.77-.29-.203-.507-.22-.755-.252zM165.485 85.997c.603-.027 1.452.053 1.977.249.897.334 1.574.336 1.574.336s-.254-.756-1.242-1.19c-.755-.333-1.676-.327-2.513-.241-4.745.488-6.253 1.107-6.253 1.107s2.748-.094 6.457-.26zM117.151 120.165a5.413 5.413 0 0 0 1.721-.339c.782-.286 1.359-.631 1.359-.631s.085.662-.859 1.364c-.58.43-1.096.45-2.382.406-4.255-.143-7.088-.88-7.088-.88 3.155.108 4.556.138 7.25.08zM116.758 92.702c.599.075 1.436.134 1.984.02.815-.169 1.204-.532 1.204-.532s.519.605-.517 1.162c-.636.342-1.556.41-2.821.181-4.19-.76-8.69-2.714-8.69-2.714 2.885.831 6.167 1.55 8.84 1.883zM121.927 56.919c1.504.324 3.135.743 4.383 1.819 1.872 1.613 3.69 2.835 4.556 4.987-.425-2.58-2.506-5.038-4.22-6.055-1.716-1.017-3.404-.98-4.719-.751zM122.471 8.77c1.464.472 3.026 1.208 4.304 2.248 1.857 1.51 3.263 3.19 3.909 5.418-.165-2.61-1.364-5.264-3.156-6.447-1.664-1.099-3.726-1.315-5.057-1.22zM169.344 117.656c-.521-.053-2.14.136-3.203.375-2.295.516-4.653 1.25-7.703 1.906 2.863-.321 6.074-.555 7.953-.843 1.463-.224 2.665-1.066 2.953-1.438zM120.937 147.43c.237.666.414 2.617-.572 3.791-1.524 1.816-4.804 2.458-7.815 2.924 2.735-.73 5.511-2.1 6.768-3.548.971-1.117 1.527-2.299 1.619-3.167zM172.185 147.157c.576-1.04.866-2.09.47-3.15 1.144 1.195 1.233 2.583.318 3.913-2.413 3.507-6.548 4.89-6.548 4.89 2.405-1.474 4.506-3.388 5.76-5.653zM171.722 176.174c1.321 1.982 1.258 5.545.739 7.114-.802 2.427-4.395 5.871-8.063 7.856 3.015-2.348 5.477-5.646 6.235-7.673.511-1.368 1.453-4.194 1.089-7.297zM88.11 176.796c-1.78 1.582-2.62 5.045-2.516 6.694.161 2.55 3.383 7.235 7.71 8.316-4.134-2.548-5.769-5.523-5.988-7.676-.149-1.453-.343-4.425.795-7.334zM125.223 184.79s-.02 1.997-1.304 4.236c-1.87 3.259-7.648 6.567-7.648 6.567s3.915-2.253 6.288-6.994c.943-1.882 2.664-3.809 2.664-3.809z"/>
</svg>
