<svg xmlns="http://www.w3.org/2000/svg" xmlns:xlink="http://www.w3.org/1999/xlink" cursor="default" viewBox="0 0 256 256">
    <defs>
        <linearGradient id="innoGrad1">
            <stop offset="0" stop-color="#ff8080"/>
            <stop offset="1" stop-color="#faa"/>
        </linearGradient>
        <linearGradient id="innoGrad0">
            <stop offset="0" stop-color="#ffd5d5"/>
            <stop offset="1" stop-color="#faa"/>
        </linearGradient>
        <linearGradient id="linearGradient896" x1="28.38" x2="136.532" y1="269.04" y2="74.214" gradientUnits="userSpaceOnUse" xlink:href="#innoGrad0"/>
        <linearGradient id="linearGradient904" x1="187.111" x2="93.987" y1="13.747" y2="188.63" gradientUnits="userSpaceOnUse" xlink:href="#innoGrad0"/>
        <linearGradient id="linearGradient912" x1="179.66" x2="134.152" y1="46.251" y2="147.115" gradientUnits="userSpaceOnUse" xlink:href="#innoGrad0"/>
        <linearGradient id="linearGradient920" x1="157.657" x2="175.327" y1="57.033" y2="106.229" gradientUnits="userSpaceOnUse" xlink:href="#innoGrad1"/>
        <linearGradient id="linearGradient934" x1="100.118" x2="73.026" y1="142.17" y2="200.209" gradientUnits="userSpaceOnUse" xlink:href="#innoGrad1"/>
        <linearGradient id="linearGradient942" x1="102.559" x2="115.005" y1="130.96" y2="189.808" gradientUnits="userSpaceOnUse" xlink:href="#innoGrad0"/>
        <linearGradient id="linearGradient950" x1="131.831" x2="148.494" y1="129.464" y2="181.531" gradientUnits="userSpaceOnUse" xlink:href="#innoGrad0"/>
        <linearGradient id="linearGradient958" x1="117.355" x2="149.138" y1="132.826" y2="176.216" gradientUnits="userSpaceOnUse" xlink:href="#innoGrad0"/>
        <linearGradient id="linearGradient966" x1="124.591" x2="155.934" y1="126.128" y2="165.992" gradientUnits="userSpaceOnUse" xlink:href="#innoGrad0"/>
        <linearGradient id="linearGradient974" x1="132.141" x2="163.206" y1="126.899" y2="160.526" gradientUnits="userSpaceOnUse" xlink:href="#innoGrad0"/>
        <linearGradient id="linearGradient982" x1="140.976" x2="158.109" y1="116.938" y2="156.531" gradientUnits="userSpaceOnUse" xlink:href="#innoGrad0"/>
    </defs>
    <path fill="url(#linearGradient896)" stroke="#000" stroke-linecap="round" stroke-linejoin="round" stroke-width="1.026" d="M75.379 124.1c-30.351 16.642-78.22 56.234-63.341 102.046 12.953 39.885 58.765 24.172 77.988 5.968 17.976-17.024 40.866-62.022 40.866-62.022l-22.44-18.59-49.913 56.867-2.934-13.779c7.974-9.472 10.866-12.675 27.357-25.645l24.849-17.976z"/>
    <path fill="url(#linearGradient934)" stroke="#000" stroke-linecap="round" stroke-linejoin="round" stroke-width="1.026" d="M104.728 151.292s-9.952 7.648-21.767 17.652c-12.74 29.387-24.887 26.178-27.356 25.646-7.448 8.65-14.206 24.598-4.915 27.927 12.634 4.527 25.435-6.66 30.81-14.694 13.086-19.556 27.863-52.293 27.863-52.293z"/>
    <path fill="none" stroke="#000" stroke-linecap="round" stroke-width="1.026" d="M80.39 130.573c-26.223 15.42-67.932 50.361-71.099 74.841m77.401-69.852c-16.439 9.8-38.4 30.167-49.753 50.941-6.885 12.6-13.702 33.532-7.216 43.195 14.647 21.822 36.459 13.477 49.553-3.968 16.822-22.412 33.243-58.525 37.193-68.535"/>
    <path fill="none" stroke="#000" stroke-linecap="round" stroke-width="1.026" d="M92.003 141.201s-31.778 22.61-42.62 38.349c-9.891 12.051-23.395 42.92-7.009 53.109 19.2 11.936 35.474-14.196 47.848-39.145m5.489-49.134c-27.499 18.929-42.04 31.183-48.163 37.563"/>
    <path fill="none" stroke="#000" stroke-linecap="round" stroke-width="1.026" d="M67.375 138.974c-17.253 12.316-35.4 36.304-40.577 52.395-6.213 19.31-2.364 29.327 2.413 37.626"/>
    <path fill="none" stroke="#000" stroke-linecap="round" stroke-width="1.026" d="M98.697 146.766c-11.872 10.63-34.81 28.672-45.89 36.714-5.363 3.893-13.676 9.754-16.045 20.65m50.951-39.211l-33.634 26.868c-11.773 9.405-18.968 21.219-11.94 32.957 3.432 5.733 17.378 10.734 29.745-1.213m14.447 2.725a91.54 91.54 0 0 0 8.098-9.243c12.204-15.935 31.039-48.959 31.039-48.959m-97.241 4.771c-17.64 22.128-13.749 41.986-7.808 55.715"/>
    <path fill="none" stroke="#000" stroke-linecap="round" stroke-width="1.026" d="M122.463 163.713c-13.07 21.966-24.416 50.016-40.07 67.075-19.833 21.615-50.573 21.698-61.974-2.248"/>
    <path fill="url(#linearGradient942)" stroke="#000" stroke-linecap="round" stroke-width="1.026" d="M79.2 118.756c-4.4-4.16-9.274 1.673-5.965 5.11 8.862 9.209 30.027 32.228 58.968 48.238 5.113 2.828 7.935-3.6 4.135-5.935-21.773-13.374-41.387-32.517-57.139-47.413z"/>
    <path fill="url(#linearGradient950)" stroke="#000" stroke-width="1.026" d="M83.94 112.93c-4.504-4.049-8.787 2.048-5.479 5.485 8.863 9.209 29.297 31.726 58.238 47.736 5.113 2.828 7.877-3.51 4.135-5.935-20.752-13.443-39.882-31.995-56.895-47.287z"/>
    <path fill="url(#linearGradient904)" stroke="#000" stroke-width="1.026" d="M211.965 11.055c-9.502-.19-17.159 2.27-17.159 2.27-2.452.488-9.511 1.768-18.924 5.612-15.428 6.302-26.005 16.557-36.433 29.557-12.578 15.682-33.344 45.27-33.344 45.27l19.929 17.623c-1.22.547-1.976.879-1.976.879l30.54 29.121c29.988-12.207 58.582-32.165 82.295-65.087 10.909-15.145 16.348-42.115-2.146-57.585-6.886-5.76-15.391-7.512-22.782-7.66zm-17.43 37.372c1.986.2 5.314 2.022 5.438 7.182.185 7.641-6.39 14.909-12.11 20.347-8.502 8.083-25.286 17.512-39.517 24.745 10.871-15.605 26.354-36.519 37.49-45.897 2.486-2.094 5.447-4.34 8.698-6.377z"/>
    <path fill="none" stroke="#000" stroke-width="1.026" d="M215.568 34.789c-10.216-1.397-17.639 1.633-24.422 5.567-12.394 7.188-20.198 17.458-28.607 31.07-11.733 18.993-29.527 49.38-29.527 49.38"/>
    <path fill="url(#linearGradient958)" stroke="#000" stroke-width="1.026" d="M89.669 107.723c-4.741-3.767-9.203 1.606-5.965 5.11 8.61 9.318 28.494 30.624 57.507 47.234 5.07 2.903 7.727-3.293 4.136-5.935-19.916-14.646-38.153-32.483-55.678-46.41z"/>
    <path fill="none" stroke="#000" stroke-width="1.026" d="M126.959 116.133c8.087-15.841 17.279-31.85 28.151-48.116"/>
    <path fill="url(#linearGradient966)" stroke="#000" stroke-width="1.026" d="M95.652 101.905c-4.124-4.433-9.461 2.342-6.096 5.724 10.119 10.166 28.165 29.305 56.163 46.6 4.972 3.07 8.313-2.937 4.62-5.436-20.444-13.841-39.532-30.599-54.687-46.888z"/>
    <path fill="none" stroke="#000" stroke-width="1.026" d="M119.912 110.296s22.315-27.491 35.198-42.279c9.288-10.66 18.534-22.371 30.669-29.301 7.197-4.11 17.505-6.629 29.79-3.927"/>
    <path fill="none" stroke="#000" stroke-width="1.026" d="M114.606 104.309l25.497-32.504s19.922-22.434 31.234-32.424c9.91-8.75 22.846-14.362 39.034-13.217 19.114 1.35 31.539 10.957 32.88 28.836"/>
    <path fill="url(#linearGradient974)" stroke="#000" stroke-width="1.026" d="M101.14 96.327c-4.643-3.885-9.493 1.404-6.206 4.861 8.461 8.9 25.316 27.905 56.627 48.574 4.877 3.219 8.962-2.63 5.511-5.453-19.423-15.899-38.842-33.684-55.931-47.982z"/>
    <path fill="none" stroke="#000" stroke-width="1.026" d="M202.92 19.309c-8.73.944-22.19 2.186-36.225 16.356-13.768 13.899-26.592 36.14-26.592 36.14"/>
    <path fill="url(#linearGradient920)" stroke="#000" stroke-width="1.026" d="M194.534 48.427c1.847-.109 5.303 1.529 5.44 7.182.184 7.641-6.392 14.909-12.112 20.347-8.53 8.111-25.254 17.503-39.516 24.745l-15.334 20.104c8.729-2.966 62.04-21.702 77.941-42.437 15.772-20.565 9.716-36.681 8.748-36.119-9.675-2.152-17.802 1.66-25.167 6.178z"/>
    <path fill="none" stroke="#000" stroke-width="1.026" d="M173.044 20.198c-14.356 8.53-22.644 19.74-31.175 31.036-12.026 15.92-32.063 50.693-32.063 50.693m93.114-82.618s14.954-3.282 26.626 4.548c11.144 7.476 12.381 16.188 13.62 29.84.651 7.17-2.265 15.969-6.584 23.033-4.166 6.812-16.771 20.039-30.87 28.168-18.761 10.817-57.909 25.092-57.909 25.092"/>
    <path fill="none" stroke="#000" stroke-width="1.026" d="M215.568 34.789c10.847 2.888 17.528 7.775 18.25 17.864 1.262 17.652-17.531 34.026-17.53 33.906m-1.864-44.999c8.688 4.233 7.268 14.694 6.061 23.57"/>
    <path fill="url(#linearGradient912)" stroke="#000" stroke-width="1.026" d="M185.452 7.38c-5.097.343-8.67 1.632-11.814 2.89-12.805 5.124-19.964 11.522-26.17 20.167-3.779 5.264-7 13.556-8.594 18.843 12.393-15.815 25.006-27.18 44.983-33.196 4.115-1.099 8.13-.432 17.571 6.151 12.946 9.026 18.273 20.014 18.273 20.014.811 1.327 7.024 15.554-8.748 36.12-15.901 20.734-69.212 39.47-77.941 42.436l10.866 5.75c23.312-8.376 44.958-17.788 61.809-30.636 9.666-7.37 16.846-14.479 21.726-27.81 3.921-10.711 4.78-19.798-.04-30.658-4.213-9.49-13.614-18.525-22.286-23.85-6.348-3.898-11.969-6.737-19.635-6.221z"/>
    <path fill="none" stroke="#000" stroke-width="1.026" d="M154.174 134.427c27.382-10.78 52.93-25.054 70.343-43.74"/>
    <path fill="url(#linearGradient982)" stroke="#000" stroke-width="1.026" d="M157.027 144.26c5.077 3.298 9.762-2.224 5.964-5.111-10.009-7.61-33.541-24.11-55.777-48.337-5.365-5.845-10.031 1.345-6.56 5.205 15.156 16.85 37.117 35.734 56.373 48.242z"/>
    <path fill="none" stroke="#000" stroke-linecap="round" stroke-linejoin="round" stroke-width="1.026" d="M53.214 197.992c.536 1.6 2.087 3.366 6.993 2.954 14.64-1.23 20.685-13.58 27.055-26.545 1.674-3.407 3.887-9.723 5.062-13.201"/>
    <path fill="none" stroke="#000" stroke-linecap="round" stroke-linejoin="round" stroke-width="1.026" d="M103.45 152.49s-11.51 27.89-20.312 43.584c-5.593 9.97-9.238 18.755-21.29 24.34-5.647 2.616-12.902 1.203-15.495-3.354"/>
    <path fill="none" stroke="#000" stroke-linecap="round" stroke-linejoin="round" stroke-width="1.026" d="M46.921 210.684c4.4 8.929 13.101 7.17 18.927.055 7.24-8.842 18.632-30.845 18.632-30.845"/>
    <path fill="none" stroke="#000" stroke-linecap="round" stroke-linejoin="round" stroke-width="1.026" d="M49.119 204.959c.425 5.646 4.165 8.915 9.34 7.671 5.885-1.415 11.423-7.778 14.567-12.421"/>
    <path fill="none" stroke="#000" stroke-linecap="round" stroke-linejoin="round" stroke-width="1.026" d="M51.06 201.121c1.202 6.57 7.588 7.519 12.954 4.913 4.707-2.286 10.323-8.243 11.446-9.883"/>
    <path fill="none" stroke="#000" stroke-width="1.026" d="M203.97 43.493c7.035.303 11.054 6.255 9.881 14.398-1.557 10.812-7.688 14.923-14.921 20.889-16.017 13.21-55.121 27.688-55.121 27.688"/>
    <path fill="none" stroke="#000" stroke-width="1.026" d="M198.002 46.493c8.394 1.116 10.706 12.445 4.264 20.224-10.84 13.09-35.008 23.759-35.008 23.759m-28.699 23.039s36.661-14.33 52.172-25.173c12.143-8.49 18.82-17.224 22.078-25.797"/>
</svg>
