<svg xmlns="http://www.w3.org/2000/svg" cursor="default" viewBox="0 0 256 256">
    <path fill="#faa" stroke="#000" stroke-width=".5" d="M127.887 125.023s-4.68 30.187-5.096 45.415c-.456 16.662-2.132 34.52 2.852 49.923 1.674 5.176 5.765 11.83 5.765 11.83l-6.991 1.134s-4.092-6.654-5.766-11.83c-4.983-15.404-3.308-33.261-2.852-49.923.417-15.228 5.096-45.415 5.096-45.415"/>
    <path fill="#ff8080" stroke="#000" stroke-width=".5" d="M167.906 111.433l-10.824 5.411 24.92-4.877z"/>
    <path fill="#faa" stroke="#000" stroke-width=".5" d="M115.527 116.51l5.479-7.482h45.563l7.613 1.965c-17.993 4.35-21.869 12.386-43.623 13.468z"/>
    <path fill="none" stroke="#000" stroke-width=".5" d="M128.268 121.244s9.783-1.36 12.742-1.773c5.368-.75 16.559-5.968 23.116-8.552"/>
    <g fill="#faa" stroke="#000" stroke-width=".5">
        <path d="M77.782 115.766c.968 1.93 1.127 7.363.66 12.578-2.53 28.279-7.57 52.252-8.857 79.992-.244 5.26.441 18.908 1.098 20.708l3.285-1.607c-.438-1.214-1.409-14.25-1.226-19.075 1.073-28.227 6.57-50.57 8.877-78.658.788-9.603 1.001-14.022-.242-16.543z"/>
        <path d="M80.64 114.258c.967 1.93 1.553 7.264 1.086 12.48-2.53 28.278-7.93 52.506-9.379 80.34-.458 8.788.964 18.56 1.62 20.36l3.84-.088c-.438-1.215-2.318-11.218-1.999-19.844 1.09-29.43 6.79-51.32 9.095-79.41.788-9.602.02-14.537-1.223-17.06z"/>
    </g>
    <path fill="#faa" stroke="#000" stroke-width=".5" d="M56.055 10.945s25.335-1.629 37.902-1.99c25.151-.724 49.753-.004 74.865 1.59 10.536.67 31.798 2.283 31.798 2.283l-22.888 23.618L73.539 27.25z"/>
    <path fill="none" stroke="#000" stroke-width=".5" d="M65.375 13.625c45.277-1.828 95.564.308 133.375 2.75"/>
    <path fill="none" stroke="#000" stroke-width=".481" d="M69.676 17.375c41.08-2.285 88.273.666 123.191 3.25M70.915 22.249c41.807-2.169 88.275-.407 123.221 1.753"/>
    <path fill="none" stroke="#000" stroke-width=".441" d="M184.888 26.504c-35.085-2.685-74.142-1.49-103.528.244m103.528 2.881c-35.085-2.685-74.142-1.49-103.528.244"/>
    <path fill="#ffd5d5" stroke="#000" stroke-width=".5" d="M56.055 10.945c-2.94-.06-3.303 3.66-.118 4.71-1.954-.113-2.86 3.627.376 4.556-2.067-.009-1.685 3.47.117 3.684-2.134.727-.864 3.856.86 4.182-1.706.003-2.259 3.957.124 4.611-.772.267-.82 1.853-.432 2.397-3.264-.457-4.13 4.416.676 5.462-.298.45-.113 1.815.396 2.562-2.192-.463-3.876 3.05-.585 4.998-3.673-1.19-6.078 4.152-1.716 5.734-2.658-.285-2.704 3.964-1.783 4.457-2.004-.203-2.492 3.947.03 4.889-2.095-.18-2.024 2.485-.646 2.827-1.53-.066-2.527 2.885-1.26 3.844-2.76-.081-3.262 3.239-2.183 4.088-1.08.045-2.508 1.95-1.507 3.658-1.023-.108-2.365.774-2.306 2.676-2.323-.526-4.035 3.2-2.213 4.95-1.834-.56-2.744 2.771-1.257 3.786-1.686-.883-3.771 2.01-2.677 3.747-1.748-.525-2.757 2.362-1.569 3.166-2.998.021-3.311 2.561-2.52 3.688-1.587.06-2.494 2.176-1.816 3.722-1.414.005-2.126 2.193-.947 2.864-1.483-.507-3.061 2.917.947 4.498 8.432 3.325 17.684 2.533 27.621 3.665h.098c1.763 4.069 5.126 6.496 8.877 8.89.917.83 1.857 1.662 2.82 2.525 1.603 1.438 3.585-1.229 1.966-2.766-2.953-2.804-6.207-4.925-7.97-8.642 20.07-9.517 24.013 11.94 51.416 6.49 5.485 2.402 13.763 10.976 16.456 7.204 0 0-4.37-4.11-10.746-8.641-2.44-1.625-3.969-2.81-5.314-3.553.015-.049.037-.09.052-.137 1.258-.348 2.26-1.59 2.433-3.522 6.114-4.687 20.054.22 27.096-3.855 12.704-7.353 28.392 4.36 40.352 7.03l2.649 2.791c1.11 1.143 2.232 2.121 3.289 3.996-.128.122-.237.234-.373.362-1.376 1.285-.205 3.533 1.564 2.717 1.877-.864 3.806-3.408 5.024-5.279l.37.826c2.01-2.074 3.602-3.902 4.426-6.248 6.116-.638 11.81-1.51 17.817-2.629 4.53-.843 3.51-4.95.877-4.898 1.13-1.086.573-3.696-1.967-3.811 1.392-1.54-.372-3.823-2.275-3.874 1.394-1.415.164-3.475-1.414-3.752 1.026-1.836-.5-3.474-1.846-3.566.576-1.425-.052-3.84-2.552-3.751 2.034-1.882.365-4.815-2.121-4.488.412-1.68-.818-2.34-1.844-2.583.911-1.841.437-3.955-1.353-4.058 1.372-1.765-.229-4.132-1.846-3.812.429-1.84-1.12-3.08-2.213-3.197.86-2.76-.138-3.536-1.72-3.69.455-1.107.487-2.132.122-3.075 2.373-1.187.227-5.637-2.465-4.556-.11-.658-.637-1.175-1.317-1.163 2.834-1.494 2.183-4.766-.768-4.794 3.827-1.689 2.288-5.91.106-5.449 1.832-.625 1.43-4.082.14-3.714 1.087-.912 1.806-2.977.309-3.382.706-.84.68-1.742.183-2.521 1.137-.712 1.089-2.858.246-3.32 1.817-1.367 1.652-3.919.23-4.015 1.169-1.177.862-3.139.14-3.732 1.406-1.28 1.299-4.028.28-4.371 1.439-.826 2.189-2.923.745-3.788 2.778-1.616 3.283-5.68-1.026-5.737-5.16 4.669-13.721 6.788-22.526 8.724-2.586-3.054-6.854-2.898-9.818-1.347-4.298-1.202-7.044 2.486-8.432 4.78-12.498-.711-25.74-.355-32.053 4.431-12.728-4.708-28.412-8.79-44.926-13.414-1.36-2.305-4.573-4.829-6.826-2.368-3.516-2.973-5.646-.854-6.007.757-4.222-1.01-6.755-1.145-12.563-3.168a4.614 4.614 0 0 0-1.414-.278zM199.987 113.77a12.62 12.62 0 0 0-.165 1.497c-.26.61-.496 1.12-.735 1.625l-1.348-1.775a9.323 9.323 0 0 0 2.248-1.347z"/>
    <path fill="none" stroke="#000" stroke-width=".5" d="M159.845 24.987c-.84 1.66-1.155 2.943-1.468 4.134m9.9-8.916c-3.495 2.358-3.916 5.292-4.92 8.117m14.737-6.77s-4.024.727-5.82 1.728c-2.923 1.629-3.997 4.673-3.997 4.673m33.369-9.388c-12.5 6.078-21.182 8.574-33.37 9.388m7.81 1.967c13.13-2.179 18.696-4.883 24.816-7.567m-73.111 7.063s3.869 1.655 5.67 2.729c1.998 1.19 4.085 2.37 5.653 4.087 2.433 2.662.556 6.218-3.043 3.739-6.116-4.212-12.015-5.956-18.349-8.261-11.196-4.075-20.652-6.712-32.012-9.968"/>
    <path fill="none" stroke="#000" stroke-width=".5" d="M136.07 39.97c3.67 2.857 7.041 7.16 7.295 11.586.224 3.917-4.116 5.056-5.05 2.09.19 2.841-1.591 3.582-2.418 2.847l-3.305-2.696c-1.119-3.27-2.795-6.12-5.304-8.348-.058.063.663-1.889 2-3.913.91-1.379 3.259-3.735 3.259-3.735m-3.259 3.735c5.703 2.667 8.108 6.148 9.028 12.11"/>
    <path fill="none" stroke="#000" stroke-width=".5" d="M127.288 45.45s-4.833 1.782-6.783 3.39c-2.79 2.303-4.623 4.307-5.826 8.131-1.103 3.507 3.314 5.466 4.391 1.87 0 0 .781-2.542 3.218-5.261 1.967-2.196 7.739-4.74 7.739-4.74m-6.652 44.958c-6.537 2.705-12.544 9.26-12.783 17.304l4.87 2.522c-1.3-6.611 4.022-13.564 11.652-16.76m-4.649-63.498c-1.437.809-5.11 4.824-5.612 7.822-.532 3.173 1.732 4.542 3.74 2.957 1.595-3.03 3.557-5.284 7.082-8.653m-7.083 8.653c-.781 2.207-1.068 3.334-.087 4.696m12.827-16.808c1.922-.911 4.226-1.76 6.739-2.193 5.872-1.012 12.383-.067 18.306-.719 3.405-.375 6.703-1.207 9.9-1.168 2.995.036 5.211.621 7.809 1.968"/>
    <path fill="none" stroke="#000" stroke-width=".5" d="M138.07 35.275s4.625-1.578 8.44-1.56c9.383.04 13.712 1.304 17.852 1.17 0 0 6.194-3.252 8.84-4.132.95-.316 2.884-.833 2.884-.833M119.125 58.7c-1.136 3.01 1.14 5.09 1.989 4.576 1.209-.874 2.294-1.376 3.391-1.914 0 0 .283-2.046 1.478-3.652 1.971-2.647 5-3.617 6.61-3.913"/>
    <path fill="none" stroke="#000" stroke-width=".5" d="M127.636 55.928c2.634 1.653 4.994 4.58 6.522 6.739 1.987 2.809 3.87 6.826 3.87 6.826"/>
    <path fill="none" stroke="#000" stroke-width=".5" d="M135.897 56.493c3.626 3.117 5.235 5.855 6.304 8.522 2.58 6.435-2.47 6.518-4.174 4.478 1.317 3.66-6.508 4.151-7.783.087-.512-1.634-1.684-3.653-2.87-5.261-.814-1.106-2.869-2.957-2.869-2.957"/>
    <path fill="none" stroke="#000" stroke-width=".5" d="M121.114 63.276s-5.673 4.214-6.87 7.521c-1.034 2.857-.85 6.642 2.774 6.078 0 0 .084-2.352 1.922-5.078 2.101-3.115 8.435-7.478 8.435-7.478m-10.357 12.556c-.138 1.741.698 2.553 2.364 2.573l4.167-3.564c2.152-2.58 4.432-4.39 6.695-6.304"/>
    <path fill="none" stroke="#000" stroke-width=".5" d="M133.592 72.32s4.892 4.25 6.392 7.043c.891 1.66 1.994 3.693 1.391 5.478-.536 1.586-3.963 2.513-5.091.392-.8-1.503-2.33-5.254-4.26-7.826-1.572-2.094-5.064-4.91-5.064-4.91"/>
    <path fill="none" stroke="#000" stroke-width=".5" d="M123.549 75.884s2.12 2.839 3.043 4.348c.906 1.483 2.435 4.61 2.435 4.61 1.315.922 1.817 1.095 4.435 3.217 1.162.493 3.646-.329 2.883-2.734"/>
    <path fill="none" stroke="#000" stroke-width=".5" d="M119.382 79.448s-3.02 2.654-4.365 4.65c-1.346 1.998-2.273 4.541-2.074 6.34.258 2.343 2.51 2.868 3.562 1.795.078-.97 1.097-4.038 2.826-6.218 1.927-2.43 5.696-5.863 7.044-6.174"/>
    <path fill="none" stroke="#000" stroke-width=".5" d="M129.027 84.841s-3.43 2.062-4.696 3.565c-1.703 2.023-2.001 4.396-3.478 5.892-1.55 1.57-4.78.614-4.348-2.065"/>
    <path fill="none" stroke="#000" stroke-width=".5" d="M124.331 88.406s4.506 2.084 6.392 3.61c2.914 2.355 5.674 5.374 6.543 7.63 1.687 4.377-3.703 6.098-5.838 2.773-1.995-3.106-5.166-7.446-9.488-9.49"/>
    <path fill="none" stroke="#000" stroke-width=".5" d="M133.462 88.059c3.242 3.047 6.094 5.027 7.595 8.31 1.378 3.013-.813 5.24-3.573 3.994m-6.979.827c-3.585 1.338-8.96 3.874-8.726 10.133.095 2.528-1.094 4.142-2.614 4.464 0 0-2.258-1.272-3.703-2.163"/>
    <path fill="none" stroke="#000" stroke-width=".5" d="M141.345 96.82s16.442-.483 24.595-1.476c6.35-.773 15.985-2.54 21.367-2.01 3.823.375 5.161-1.061 8.64-2.54 0 0-6.88-2.245-10.713-2.444-8.302-.431-16.918 2.298-25.197 3.06-7.356.676-21.735 1.073-21.735 1.073"/>
    <path fill="none" stroke="#000" stroke-width=".5" d="M135.92 87.596c2.231-.405 5.476-.95 7.515-1.106 10.055-.765 25.623.671 30.253.123l1.182 2.475m3-3.336l1.41 2.821m2.217 4.742l1.69 3.444m-6.107-2.995l1.563 3.286m-37.298-15.11l21.52.86c8.112-2.324 14.258-3.433 20.415-3.197l9.447-2.293-1.084-3.364s-5.742-.541-8.609-.368c-7.547.455-14.838 3.174-22.382 3.689-7.528.513-22.628-.615-22.628-.615"/>
    <path fill="none" stroke="#000" stroke-width=".5" d="M137.44 71.738c2.86-.293 6.641-.602 9.07-.497 5.433.234 10.8 1.405 16.11 2.582 2.298.51 4.38.642 7.256.246l.491 1.615"/>
    <path fill="none" stroke="#000" stroke-width=".5" d="M169.876 74.07s3.238-.704 4.919-.673c1.441.027 4.072.629 4.072.629m-26.577-2.229s11.23-2.532 17.094-3.262c3.216-.4 6.488-.667 9.715-.368 2.218.205 6.518 1.475 6.518 1.475-2.164.822-3.118 2.436-3.8 3.936m-8.129 13.035s2.762-.754 4.181-.86c3.07-.231 5.616.354 8.608-.37 2.215-.535 6.518-2.582 6.518-2.582-2.62-1.356-4.61-3.007-9.715-3.198m-1.47 6.195l1.153 2.456m2.167 5.026l1.756 3.553m4.308-7.428c5.282-3.606 13.04-4.822 21.478-5.62m-16.725 7.009c6.714-2.082 11.546-2.126 18.846-2.52m2.552 3.75s-9.95 1.16-14.838 2.209c-2.297.492-4.468 1.515-6.783 1.913-2.819.484-4.921.695-7.95.613-9.817-.266-17.856 2.292-31.53 3.039-7.403.404-20.443 2.845-23.739 5.652"/>
    <path fill="none" stroke="#000" stroke-width=".5" d="M181.15 102.701s7.001-1.215 10.659-2.76c1.456-.616 5.073-1.866 6.36-2.403l-.62-1.936m-48.071-9.323c4.466-1.167 5.832-1.77 13.388-3.478M141.59 84.4l7.472-2.153m43.933.553c3.421-1.3 6.966-2.132 10.576-2.336 3.212-.18 5.739.387 7.256.738m-18.1-3.892l14.903-3.978m1.844 3.812c-1.644 1.559-4.905 2.645-8.946 3.628m-8.885-6.826c2.4-1.741 6.634-1.192 13.773-3.812m-19.799-.492s6.851-2.202 10.391-2.767c2.534-.404 7.686-.43 7.686-.43m.123-3.075l-8.7 3.659m-16.018 1.138s6.58-3.58 10.023-5.043c3.898-1.657 12.23-4.31 12.23-4.31"/>
    <path fill="none" stroke="#000" stroke-width=".5" d="M142.882 66.937s7.428 1.474 11.191 1.475c6.305.003 12.47-1.955 18.754-2.46 3.709-.296 11.157-.329 11.157-.329m5.137-2.499s-3.284-2.044-5.137-2.457c-4.13-.922-8.476-.236-12.695.087-4.966.38-9.807 1.973-14.783 2.174-5.312.214-15.914-1.044-15.914-1.044m26.958 4.956l.608 1.827m2.957-2.347l.739 2.086m3.174-2.435l.782 2.044m-2.542 5.404l.437 1.621m3.15-1.494l.22.915"/>
    <path fill="none" stroke="#000" stroke-width=".5" d="M172.94 60.58l12.175-4.087 14.152-3.637m.769 4.796c-5.854.688-9.42 2.266-14.4 3.537m-48.956-4.261s6.212.33 9.13.565c6.517.526 19.274 2.478 19.274 2.478l.552 1.565m-.552-1.565c2.688.375 5.242.416 7.857.609"/>
    <path fill="none" stroke="#000" stroke-width=".5" d="M142.94 53.275s8.062.16 12.435.696c6.175.757 10.49.48 16 1.26 3.273.465 10.653 2.305 10.653 2.305m-9.925-2.206s7.679-2.542 10.664-3.576c5.416-1.878 16.607-4.346 16.607-4.346"/>
    <path fill="none" stroke="#000" stroke-width=".5" d="M141.936 46.796c4.464-.18 10.188.856 14.59 1.64 8.315 1.478 13.36.956 17.803 1.008 1.907.022 5.43-.072 7.466-.279l.93 2.594m-39.372.06c5.806.068 14.997 2.57 22.387 2.871"/>
    <path fill="none" stroke="#000" stroke-width=".5" d="M137.723 41.275s5.774.405 8.609.957c4.745.923 11.34 3.538 14.435 4.087l.757 2.806m3.416-2.589c.211.976.484 1.952.81 2.928m2.321-3.058l1.049 3.15"/>
    <path fill="none" stroke="#000" stroke-width=".5" d="M160.767 46.319c2.36.397 4.867.36 7.13.087 4.208-.508 12.128-2.53 12.128-2.53l-.67-2.452c-2.84.72-7.204-.217-9.458-.236-2.985-.025-5.391.473-8.932-.02-2.99-.414-8.128-2.45-11.112-2.91-3.216-.497-8.111-.469-9.808-.338m59.468 5.774c-4.422 1.687-8.661 3.244-13.944 4.676-1.358.368-2.378.608-3.774.795m3.298-.672l.843 2.239m14.069-12.941c-5.417 1.724-10.08 1.88-14.726 2.254a13.51 13.51 0 0 0-2.659.491l.83 2.697"/>
    <path fill="none" stroke="#000" stroke-width=".5" d="M180.025 43.876c1.161-.248 2.345-.503 3.662-.685 5.133-.71 10.02-1.137 16.134-2.879m-20.466 1.112c1.007-.27 1.839-.458 3.009-.845 6.172-2.043 12.975-2.966 17.887-6.108m-31.769 6.697c1.849-1.71 3.837-3.495 9.315-4.766 7.75-1.797 16.426-3.12 22.685-5.946m-22.75 5.99c-3.163-1.122-5.33-1.916-13.37-1.562m36.258-8.161c-11.535 6.671-20.282 6.285-24.65 9.027m18.555 37.108l1.327 3.584m-.889 10.848l.984 3.504m2.147-4.619l1.202 3.57m1.483 4.862l.56 1.871m17.851-.888c-2.44-.348-5.44-.432-10.27.062-3.786.387-5.867.29-10.75 1.886m22.434 1.803s-7.275.048-10.792.538c-3.457.482-10.261 2.37-10.261 2.37m1.059 3.921s6.745-1.314 10.033-1.725c4.158-.52 12.236-1.23 12.236-1.23m1.967 3.812c-7.911 1.435-16.507 3.13-23.734 4.305"/>
    <path fill="none" stroke="#000" stroke-width=".5" d="M200.224 114.342c-1.596 3.77-2.125 5.082-5.457 8.195-1.375 1.286-.204 3.533 1.566 2.718 2.14-.987 4.162-3.86 5.358-5.808 1.421-2.316 2.454-5.42 2.424-8.736m2.652-.304c.027 4.69-1.92 7.194-4.968 10.337m-9.435-2.048c1.178 1.192 2.072 2.14 2.777 3.48m.668-4.426c.707.747 1.299 1.355 1.578 1.955m-8.799-18.68l1.57 3.034m2.305 4.152c.69 1.395 1.39 2.721 2.196 3.783m-5.718-3.152c.88 1.755 1.478 2.698 2.333 3.835"/>
    <g fill="#faa" stroke="#000" stroke-width=".5">
        <path d="M187.974 113.647c-1.058 1.88-1.474 7.301-1.255 12.532 1.187 28.367 5.085 52.552 5.056 80.322-.005 5.265-1.336 18.866-2.078 20.633l-3.204-1.76c.495-1.193 2.082-14.169 2.128-18.997.266-28.246-4.167-50.823-5.14-78.99-.331-9.63-.335-14.053 1.026-16.513z"/>
        <path d="M185.192 112.005c-1.058 1.881-1.896 7.182-1.677 12.414 1.186 28.367 5.432 52.823 5.561 80.694.041 8.8-1.842 18.494-2.583 20.26l-3.83-.269c.494-1.192 2.846-11.096 2.936-19.726.307-29.449-4.35-51.585-5.322-79.752-.332-9.629.67-14.523 2.03-16.983z"/>
    </g>
    <path fill="none" stroke="#000" stroke-width=".5" d="M139.486 43.195c4.913-.231 10.108.16 14.865 1.274m35.324 15.581l.922 2.398m-4.058-1.538l.246.985m11.605 54.217c.318.294.535.609.732.862m-13.812-15.142l1.675 2.936m16.695.769a52.653 52.653 0 0 0-.87-4.304m3.523 3.913c-.051-1.229-.374-2.735-.783-4.435m-1.609-4.739l-.608-1.957m-1.696-4.695l-1.348-3.653m-4.049-13.184l1.397 3.532m-6.261-16.522l1 2.348m-5.044-14.044l.826 2.26m-3.342-9.943l.857 2.726m-5.317-16.53l.93 2.574m-5.2 1.036l-.878-2.8m3.037-.323l.696 2.521M60.648 110.29c.913 6.723 5.137 9.867 9.999 12.97-4.003-3.62-7.353-7.157-7.923-12.669"/>
    <path fill="#faa" stroke="#000" stroke-width=".5" d="M9.095 222.562s9.409-.875 14.012-1.112c23.64-1.216 38.09-.9 63.364 4.49 16.59 3.537 32.108 11.183 32.108 11.183l-12.517 8.042-59.524-12.094-37.712-.027z"/>
    <path fill="none" stroke="#000" stroke-width=".5" d="M7.96 226.303s9.41-.831 14.011-1.112c17.761-1.082 43.503-.383 65.193 4.819 17.334 4.157 30.28 10.855 30.28 10.855m10.776-7.667s-4.091-6.654-5.766-11.83c-4.983-15.404-3.307-33.261-2.852-49.923.417-15.228 5.097-45.415 5.097-45.415"/>
    <path fill="#faa" stroke="#000" stroke-width=".5" d="M71.431 229.475l2.4-2.588s-3.98-1.915-6.226-4.967c-.667-.907-2.464.39-1.895 1.776 1.087 2.652 3.347 4.335 5.721 5.78zm10.685-4.408c-.788 2.977-4.709 6.294-4.709 6.294l-2.857-2.072s3.53-2.653 5.138-6.085c.478-1.019 2.811.415 2.428 1.863z"/>
    <path fill="#faa" stroke="#000" stroke-width=".5" d="M74.603 226.958l1.605-3.262c-2.003-.445-3.82-.768-6.754-3.614-1.025-.995-2.655.695-1.846 1.955 1.694 2.39 4.323 3.958 6.995 4.92z"/>
    <path fill="#ffd5d5" stroke="#000" stroke-width=".5" d="M45.915 222.81c1.467-1.582 3.167-4.438 4.175-9.576 5.461-27.861 8.326-52.411 13.41-79.767.916-4.927 6.104-17.554 7.237-19.099l2.706 2.46c-.76 1.044-5.546 13.243-6.5 17.976-5.8 28.798-7.8 50.394-13.424 78.01-1.922 9.442-4.6 11.918-6.498 13.993zm-11.845 3.37c-7.582-1.203-16.147-3.06-24.123-3.632-3.604-.26-3.946 3.21-.848 3.544 8.297.895 16.775 2.15 24.751 3.447z"/>
    <path fill="#ffd5d5" stroke="#000" stroke-width=".5" d="M33.85 229.54c-7.583-1.203-16.136-2.78-24.114-3.322-3.82-.259-3.946 3.21-.848 3.544a480.26 480.26 0 0 1 24.967 3.387z"/>
    <path fill="#faa" stroke="#000" stroke-width=".5" d="M79.635 223.182c-.91 2.943-5.128 6.219-5.128 6.219l-2.766-2.325s2.819-2.458 5.325-5.522c.726-.888 3.01.197 2.569 1.628z"/>
    <path fill="#ffd5d5" stroke="#000" stroke-width=".5" d="M52.104 225.085s28.09 8.356 42.78 11.481c7.803 1.66 22.458 3.579 23.505 3.572 1.633-.01 1.878-2.985-.35-3.097-1.147-.058-14.586-2.198-22.606-4.113-14.189-3.389-35.152-11.524-41.653-11.24zm-3.432 8.529c15.716 6.307 45.47 11.97 67.906 12.585 2.153.06 2.656-3.515.13-3.392-.982.048-6.15-.61-9.93-1.191-17.42-2.679-39.9-6.494-54.015-10.33z"/>
    <path fill="#ffd5d5" stroke="#000" stroke-width=".5" d="M42.026 222.93l-2.827.696-1.557 8.993s5.467 2.972 14.818 5.616c17.491 4.946 35.484 8.095 53.48 10.652 5.661.805 9.207.672 10.338.703 2.153.06 2.317-3.515.13-3.391-.981.055-6.427-.426-10.207-1.007-17.42-2.679-37.81-6.187-51.924-10.022-13.195-3.586-10.567-3.763-12.251-12.24z"/>
    <path fill="#ffd5d5" stroke="#000" stroke-width=".5" d="M51.264 228.806c11.085.847 28.387 8.102 42.944 11.216 7.801 1.67 22.698 3.267 23.746 3.26 1.633-.01 2-3.048-.228-3.16-1.148-.058-15.195-1.88-23.216-3.795-14.184-3.388-33.458-11.307-42.406-11.242z"/>
    <path fill="#ffd5d5" stroke="#000" stroke-width=".5" d="M46.707 226.792c1.467-1.583 5.08-5.96 6.088-11.098 5.462-27.862 8.59-52.364 13.41-79.767 1.525-8.667 6.105-17.554 7.238-19.099l3.662 1.155c-.76 1.044-5.807 10.026-7.456 18.498-5.612 28.835-7.8 51.177-13.424 78.793-1.923 9.441-6.514 13.44-8.411 15.514z"/>
    <path fill="#ffd5d5" stroke="#000" stroke-width=".5" d="M46.674 221.917c1.561 2.654 1.56 7.51 1.56 7.51l-3.033.28s.226-4.132-1.173-7.628c-.416-1.038 1.887-1.453 2.646-.162z"/>
    <path fill="#ffd5d5" stroke="#000" stroke-width=".5" d="M43.647 222.001c1.56 2.655 1.554 7.705 1.554 7.705l-3.127.179s-.184-3.563-.96-7.347c-.226-1.095 1.774-1.828 2.533-.537z"/>
    <path fill="#ffd5d5" stroke="#000" stroke-width=".5" d="M8.764 229.54c-2.957-.265-2.53 3.054-.391 3.304 12.854 1.503 34.325.849 44.65-4.087 1.584-.758.783-3.715-1.258-2.957-14.62 5.433-32.435 4.683-43 3.74z"/>
    <path fill="#ffd5d5" stroke="#000" stroke-width=".5" d="M8.826 233.044c-2.958-.264-2.531 3.054-.392 3.305 12.854 1.503 35.37.418 45.695-4.518 1.584-.757.784-3.715-1.257-2.956-14.62 5.432-33.48 5.113-44.046 4.17z"/>
    <path fill="#ffd5d5" stroke="#000" stroke-width=".5" d="M38.167 222.318c-2.105-1.338-6.143 3.544-5.057 8.609.706 3.292 3.698 6.153 6.717 6.054 1.28-.041 2.047-.636 2.047-.636-5.568-4.936-4.437-11.096-3.707-14.027z"/>
    <path fill="#ffd5d5" stroke="#000" stroke-width=".5" d="M40.68 224.08c-2.178 3.318-1.914 6.036-.444 8.323 1.952 3.033 4.19 2.446 5.147 2.286.52-.087.359 2.076-1.873 2.212-.97.06-4.724.534-7.17-3.92-1.856-3.383-.64-7.636 1.592-10.318.618-.743 1.918-1.242 2.672-.637.726.583.587 1.275.077 2.053z"/>
    <path fill="#faa" stroke="#000" stroke-width=".5" d="M250.328 218.929s-9.428-.907-14.035-.769c-22.295.666-44.823 2.325-66.555 7.348-16.375 3.785-27.466 9.809-27.466 9.809l11.672 8.582 59.21-13.547 37.7-.95z"/>
    <path fill="#faa" stroke="#000" stroke-width=".5" d="M189.235 227.137l-2.274-2.7s4.066-1.723 6.454-4.665c.71-.874 2.442.507 1.809 1.864-1.212 2.597-3.55 4.171-5.99 5.501z"/>
    <path fill="#ffd5d5" stroke="#000" stroke-width=".5" d="M201.356 119.976c-.597.935-1.344 1.994-2.184 2.95.153.422.333.936.554 1.654 9.139 29.695 1.464 63.281 6.009 85.56 1.925 9.44 4.856 11.816 6.797 13.85l1.02-4.02c-1.5-1.55-3.693-4.293-4.38-9.484-4.106-31.046 3.616-58.413-6.981-88.452-.326-.967-.598-1.62-.835-2.058z"/>
    <path fill="none" stroke="#000" stroke-width=".5" d="M251.555 222.64s-9.428-.905-14.035-.768c-22.295.667-45.21 1.697-66.933 6.758-16.123 3.756-28.127 11.25-28.127 11.25"/>
    <path fill="#faa" stroke="#000" stroke-width=".5" d="M178.597 223.316c.646 3.011 4.405 6.51 4.405 6.51l2.952-1.934s-3.4-2.817-4.844-6.321c-.429-1.04-2.828.281-2.513 1.745z"/>
    <path fill="#ffd5d5" stroke="#000" stroke-width=".5" d="M224.83 221.5c7.076-1.365 16.715-1.823 24.676-2.569 3.598-.337 4.015 3.124.925 3.525-8.276 1.075-17.072 1.73-25.02 3.198z"/>
    <path fill="#ffd5d5" stroke="#000" stroke-width=".5" d="M225.104 224.978c7.678-1.058 16.728-1.668 24.692-2.381 3.813-.342 4.015 3.123.925 3.525a480.254 480.254 0 0 0-24.888 3.923z"/>
    <path fill="#faa" stroke="#000" stroke-width=".5" d="M186.044 224.924l-1.365-2.888c2.157-.579 3.141-1.035 6.11-3.843 1.038-.983 3.137.65 2.311 1.899-1.723 2.368-4.371 3.903-7.056 4.832z"/>
    <path fill="#faa" stroke="#000" stroke-width=".5" d="M181.127 221.438c.768 2.982 4.827 6.454 4.827 6.454l2.873-2.19s-2.7-2.59-5.058-5.77c-.683-.92-3.016.055-2.642 1.506z"/>
    <path fill="#ffd5d5" stroke="#000" stroke-width=".5" d="M207.414 222.378c-.04 1.836-27.876 9.037-42.522 12.4-7.775 1.787-21.55 3.541-22.597 3.558-1.633.025-1.942-2.945.283-3.105 1.146-.082 13.708-1.994 21.686-4.078 14.117-3.686 34.144-10.951 41.745-11.782z"/>
    <path fill="#ffd5d5" stroke="#000" stroke-width=".5" d="M208.273 225.71c-9.313 1.651-28.145 9.082-42.631 12.51-7.763 1.837-21.797 3.233-22.844 3.25-1.633.025-2.065-3.005.16-3.166 1.146-.082 14.325-1.685 22.302-3.772 14.108-3.693 32.102-10.407 42.154-12.154z"/>
    <path fill="#ffd5d5" stroke="#000" stroke-width=".5" d="M211.03 230.83c-15.577 6.645-45.202 12.948-67.62 14.047-2.151.107-2.72-3.151-.203-3.388 21.281-1.999 43.616-7.054 63.681-12.897z"/>
    <path fill="#ffd5d5" stroke="#000" stroke-width=".5" d="M217.444 220.006l2.84.635 1.751 8.957s-5.401 3.089-14.694 5.934c-17.38 5.322-35.3 8.859-53.237 11.804-5.643.926-9.19.87-10.32.925-2.152.107-2.393-3.464-.204-3.388 20.59-1.836 42.93-6.834 61.879-12.366 13.126-3.832 10.483-3.99 11.985-12.5z"/>
    <path fill="#ffd5d5" stroke="#000" stroke-width=".5" d="M199.184 122.912c-.877 1-1.849 1.881-2.851 2.343-.057.026-.112.041-.167.061a25 25 0 0 0 .202.8c8.297 30.714 1.728 58.336 6.715 86.542 1.677 9.487 6.802 13.296 8.743 15.33l1.02-4.02c-1.5-1.552-5.141-5.793-5.956-10.965-4.919-31.196 2.137-58.818-7.136-88.442-.21-.669-.397-1.2-.57-1.649z"/>
    <path fill="#ffd5d5" stroke="#000" stroke-width=".5" d="M212.774 219.093c-1.503 2.687-1.398 7.542-1.398 7.542l3.039.214s-.1-4.002 1.224-7.528c.393-1.047-2.134-1.535-2.865-.228z"/>
    <path fill="#ffd5d5" stroke="#000" stroke-width=".5" d="M214.415 226.849l3.13.11s-.32-3.67.802-7.365c.403-1.324-1.991-2.036-2.698-.636-1.186 2.348-1.234 5.17-1.234 7.89z"/>
    <path fill="#ffd5d5" stroke="#000" stroke-width=".5" d="M250.84 225.896c2.95-.328 2.596 2.999.462 3.295-12.818 1.78-34.299 1.59-44.727-3.123-1.6-.723-.864-3.697 1.193-2.983 14.734 5.116 32.53 3.983 43.072 2.81z"/>
    <path fill="#ffd5d5" stroke="#000" stroke-width=".5" d="M250.854 229.401c2.951-.328 2.596 3 .462 3.295-12.818 1.78-35.353 1.182-45.781-3.53-1.6-.723-.864-3.698 1.193-2.983 14.734 5.116 33.583 4.39 44.126 3.218z"/>
    <path fill="#ffd5d5" stroke="#000" stroke-width=".5" d="M221.288 219.31c2.075-1.382 6.218 3.41 5.241 8.498-.634 3.307-3.564 6.232-6.585 6.198-1.28-.014-2.06-.591-2.06-.591 5.46-5.056 4.197-11.19 3.404-14.104z"/>
    <path fill="#ffd5d5" stroke="#000" stroke-width=".5" d="M218.813 221.126c2.25 3.27 2.045 5.994.623 8.311-1.885 3.075-4.134 2.537-5.095 2.397-.521-.076-.315 2.084 1.92 2.172.97.038 4.735.432 7.083-4.075 1.783-3.422.476-7.648-1.813-10.28-.635-.73-1.945-1.201-2.686-.58-.713.598-.56 1.288-.032 2.055zm-17.701-109.794c-2.29.25-4.424.46-6.292.627-2.716.242-5.797 1.316-8.045 2.18-22.421 4.923-40.21 6.06-47.4 13.05-22.844 22.213-10.044 106.96-10.044 106.96.3 2.563 4.59 2.703 4.9-1.178.307-3.835-3.623-84.602 3.927-95.868 9.729-14.52 49.263-15.19 58-19.61 3.584-1.812 4.74-3.298 4.954-6.161z"/>
    <path fill="none" stroke="#000" stroke-width=".5" d="M82.172 104.796s17.33 2.191 25.122 5.07c14.308 5.286 28.037 18.2 28.037 18.2"/>
    <path fill="#ffd5d5" stroke="#000" stroke-width=".5" d="M187.974 113.647c-.697-.918-1.75-2.516-2.685-4.197-15.076 5.281-43.06 6.903-53.914 21.392-10.89 14.537-5.886 101.282-5.776 102.697.375 4.832 5.178 3.38 5.165-.245-.007-1.724-6.282-84.408 3.571-98.597 9.237-13.301 29.612-15.168 52.389-20.566.416-.099.8-.296 1.25-.484z"/>
    <path fill="#ffd5d5" stroke="#000" stroke-width=".5" d="M123.734 226.34c1.49-.418 6.275-1.581 9.446-1.15 3.003.409 4.988-3.985.58-5.338-4.377-1.343-11.057 1.323-11.99 2.344-1.696 1.859-1.198 5.034 1.964 4.145z"/>
    <g fill="#ffd5d5" stroke="#000" stroke-width="1.103">
        <path stroke-width=".5" d="M73.974 107.862c-.711 1.653-1.315 3.16-2.152 4.649l6.977 1.948c1.237-1.677 1.9-3.12 1.922-4.97.064-.989-3.631-3.594-6.747-1.627zm3.586.005c-.82 2.067-1.638 4.072-2.373 5.68"/>
    </g>
    <path fill="#ffd5d5" stroke="#000" stroke-width=".5" d="M66.412 110.9c1.177 5.7 5.361 8.644 9.017 12.114 1.619 1.537-.364 4.206-1.968 2.767-5.163-4.632-10.052-8.427-10.74-15.217m3.482-7.121c1.177.065 8.095.17 11.835.662 18.162 2.392 39.545 15.747 39.403 15.76l-4.675 1.585c-15.28-5.152-28.97-13.375-46.748-14.73.053-1.093.059-2.185.185-3.277z"/>
    <path fill="#ffd5d5" stroke="#000" stroke-width=".5" d="M79.006 113.713c19.855 4.802 40.691 8.942 60.021 24.346 2.292 1.827 5.91-1.523 3.305-3.826-15.683-13.864-37.96-19.006-61.611-24.744-.666 1.504-1.33 3.46-1.715 4.224z"/>
    <path fill="#ffd5d5" stroke="#000" stroke-width=".5" d="M66.412 110.9c.25 1.7 1.046 3.474 2.056 4.847 22.218 5.932 45.672 8.748 67.603 26.226 2.291 1.826 6.124-1.155 3.52-3.458-16.467-13.044-32.327-19.535-67.979-26.605-1.598-.317-3.49-.8-5.2-1.01z"/>
    <path fill="none" stroke="#000" stroke-width=".5" d="M55.937 15.655l20.396 4.746m-6.301-6.011c3.445.837 6.982 6.138 7.429 8.885m-1.422-9.64c3.395 3.25 5.395 6.676 5.857 9.792m.97-7.425c.567.892 3.16 5.356 3.182 7.686"/>
    <path fill="none" stroke="#000" stroke-width=".5" d="M96.309 24.775s-12.426-1.701-18.848-1.5c-1.666.052-4.87 1.13-4.87 1.13m4.869-1.13c-4.513-2.841-14.975-5.957-21.523-7.62"/>
    <path fill="none" stroke="#000" stroke-width=".5" d="M56.314 20.21s11.128 1.985 16.277 4.195c2.262.97 6.261 3.913 6.261 3.913"/>
    <path fill="none" stroke="#000" stroke-width=".5" d="M111.679 29.58S89.8 28.09 78.852 28.317c-3.081.065-7.652.783-7.652.783"/>
    <path fill="none" stroke="#000" stroke-width=".5" d="M118.225 32.011c-1.541-.22-15.769 1.153-21.071 1.805-6.389.785-12.568.912-18.563-.367-4.177-.892-5.529-3.304-8.81-5.304-3.797-2.316-8.906-3.805-13.352-4.25"/>
    <path fill="none" stroke="#000" stroke-width=".5" d="M119.455 36.315s-9.775 2.242-14.757 2.46c-5.792.253-11.557-.95-17.34-1.353-4.67-.325-9.39-.161-14.02-.86-5.402-.817-15.925-3.874-15.925-3.874m-.123-4.612c7.331.82 15.257 4.435 21.65 5.438m-21.957 1.572c4.92 1.241 8.984 1.808 13.463 3.787 2.793 1.234 5.78 2.266 7.965 2.346 2.589.095 12.868 1.238 19.092 1.922 6.506.714 12.85-.516 19.37-2.03m-59.214-.565c4.722.792 6.76.913 11.715 2.73 3.68 1.349 5.897-1.278 10.696-1.74"/>
    <path fill="none" stroke="#000" stroke-width=".5" d="M75.644 42.618s6.635 1.363 10.361 1.69c3.973.35 8.005-.354 11.965.125 6.164.747 18.133 4.259 18.133 4.259m-8.331-5.797c5.27-.208 6.912.39 9.408.8m-1.045 9.591s-18.234-.36-27.301-1.23c-3.919-.375-7.752-1.927-11.683-1.721-1.648.086-6.887 1.383-6.887 1.383"/>
    <path fill="none" stroke="#000" stroke-width=".5" d="M57.468 48.108c1.88.783 6.883 2.991 13.226 3.672 4.533.486 7.564 3.228 7.564 3.228s12.421 2.012 18.692 2.337c5.896.305 17.709-.37 17.709-.37M55.753 53.84s8.82 3.395 13.57 3.314c3.19-.054 8.935-2.146 8.935-2.146"/>
    <path fill="none" stroke="#000" stroke-width=".5" d="M57.97 54.593c5.331 2.585 9.769 3.897 14.284 6.26 1.823.955 4.159.856 6.526 1.226 4.657.729 9.154 2.274 13.866 2.398 4.748.125 9.46-.914 14.207-1.114 4.75-.201 14.26-.087 14.26-.087"/>
    <path fill="none" stroke="#000" stroke-width=".5" d="M106.853 63.363c-5.74-1.682-8.709-3.015-17.392-4.696-4.856-.94-10.277-2.152-17.199-1.907m20.384 7.717l24.12 2.886m-1.566 1.565s-7.665.147-11.478-.174c-5.319-.447-15.826-2.435-15.826-2.435-5.285-.813-11.188-2.344-15.975-1.199-4.02-1.672-8.157-2.829-11.965-4.711-2.007-.993-5.986-2.111-5.986-2.111m.03 4.888c4.254.929 7.705 1.398 11.437 2.03m-13.343 4.641l5.32 1.882s10.12 1.798 14.725 1.593c2.08-.093 4.16-.914 6.242-.861 7.334.186 15.445 1.576 21.767 3.443 1.963.592 5.661 2.405 5.661 2.405"/>
    <path fill="none" stroke="#000" stroke-width=".5" d="M95.374 79.885s-9.449-.941-14.087-1.914c-3.718-.779-7.032-2.339-10.957-3.13-3.875-.782-9.22-1.781-12.915-3.102"/>
    <path fill="none" stroke="#000" stroke-width=".5" d="M119.382 79.448s-9.043-1.43-13.573-1.129c-6.402.426-11.537 1.712-17.806 3.13m24.688 7.747s-13.742.018-20.537-.861c-5.327-.69-10.558-2.035-15.741-3.444-1.914-.52-3.672-1.276-5.548-1.779-4.244-1.138-12.883-2.793-12.883-2.793l-9.577-2.714"/>
    <path fill="none" stroke="#000" stroke-width=".5" d="M114.413 84.891s-7.136-.113-10.884-.553c-5.1-.598-10.45-2.104-15.526-2.89-3.432-.532-5.8-.985-9.273-.933-2.08.031-6.384.724-9.327.595-.08.678-.176 1.08-.216 1.533m47.193 16.022s-8.284-2.294-12.543-2.583c-5.452-.37-16.356 1.107-16.356 1.107.304.102 5.054 1.925 7.01 2.829 5.647 2.609 18.446 2.828 18.446 2.828"/>
    <path fill="#ffd5d5" stroke="#000" stroke-width=".5" d="M183 110.288c-18.332 4.161-29.996 2.74-39.034 4.782-9.94 2.245-16.244 6.49-22.792 17.445-1.504 2.515-6.013.271-4.256-2.73 6.617-11.3 12.774-16.31 25.676-19.601 9.011-2.299 22.19-.172 40.105-4.367 7.906-1.852 14.303-2.868 17.072-3.632l.838 3.985c-3.213.7-10.546 2.515-17.608 4.118z"/>
    <path fill="#ffd5d5" stroke="#000" stroke-width=".5" d="M182.975 105.745c-18.238 3.93-32.841 3.11-41.878 5.15-9.94 2.246-17.549 8.403-24.097 19.359-1.504 2.515-5.491.358-3.734-2.642 6.617-11.3 13.72-17.724 26.459-21.602 8.876-2.703 23.052-.278 41.424-3.309z"/>
    <path fill="#ffd5d5" stroke="#000" stroke-width=".5" d="M127.482 102.534s6.348 3.391 9.023 5.786c2.689 2.406 5.262 4.773 5.087 8.217-.115 2.28-3.287 2.374-4.608 1.435 1.173 3.68-2.345 4.98-4.653 3.044l-10.573-8.87c-.448-6.866 4.787-9.107 5.724-9.612z"/>
    <path fill="none" stroke="#000" stroke-width=".5" d="M123.288 106.059c4.853 3.445 11.82 6.27 13.696 11.913m-26.999-20.898S97.593 91.6 92.244 90.146c-4.304-1.171-8.764-1.847-13.218-2.087-3.196-.173-7.861.59-10.456.521-.174.755-.19 1.156-.286 1.678 5.82.701 6.503 2.085 9.699 2.67 2.932.537 5.39.663 7.213.88 4.7.56 10.168 2.557 10.168 2.557"/>
    <path fill="none" stroke="#000" stroke-width=".5" d="M92.244 90.146s7.953-.387 11.87.434c5.141 1.079 14.739 5.827 14.739 5.827m-7.761 11.113l-19.184-2.83s-11.24-2.373-16.725-4.057c-1.77-.544-4.667-1.937-5.903-2.46 0 0 2.82-1.261 4.124-1.635 4.79-1.372 10.657-.326 14.077.651m-19.197-6.931c-5.95-.768-11.76-.752-17.935-2.595-2.102-.628-3.272-1.057-6.464-2.433m-1.257 3.786s2.315 1.329 3.901 1.901c4.38 1.581 13.65 2.952 13.65 2.952 3.32.342 6.51.945 9.96 1.026 3.728.087 5.036-1.184 7.844-1.967"/>
    <path fill="none" stroke="#000" stroke-width=".5" d="M69.28 98.173c-1.925-.71-6.343-1.977-9.541-2.343-7.073-.81-21.357.099-21.357.099m1.568-3.167c5.082 1.744 13.485.74 20.23 1.107m-27.082 12.334c10.595 4.083 22.206 3.32 33.314 4.697m-.394-4.18s-7.846-.565-11.785-1.088c-6.735-.893-20.186-2.294-20.186-2.294m1.814-3.72s8.783.37 13.165.702c7.25.548 11.995 2.682 17.177 3.123M68.57 88.58c-6.635-.12-10.325-2.518-14.892-4.565-2.163-.97-5.149-2.835-7.579-3.735m3.812-6.334s5.387 2.412 8.158 3.417c4.125 1.496 7.552 3.322 11.334 3.747M53.355 66.014s2.381.87 3.627 1.046c2.639.372 5.336-.191 7.994 0 2.324.167 4.687.33 6.92.998 1.962.588 3.61 1.996 5.565 2.609 3.928 1.233 8.081 1.638 12.174 2.087 5.943.651 11.941 1.137 17.913.87 2.105-.095 6.261-.87 6.261-.87m6.696-23.914s-15.128-.429-22.694-.38c-4.511.028-9.076 1.132-13.528.4-4.527-.747-11.438-4.26-14.319-5.412m32.876 14.034c7.395.857 11.576 3.055 17.056 5.49M58.054 43.108s6.62 2.525 10.365 2.984c5.134.63 8.732 4.243 8.732 4.243m10.484-15.93l.174 3.087m-4.441-3.24l.142 2.959m-3.61-3.686l.171 3.587m7.65 5.001l-.076 2.354m-7.366-3.213l.147 2.2m.6 4.604l.261 2.522zm2.522.782v2.174m3.933-1.862l-.117 2.801m-5.917 3.565l.08 1.624m2.08-1.335v1.632m3.573-1.096l-.079 1.849m-5.418 4.588l.14 2.413m1.741-2.236l.126 2.677m3.28-1.856l.009 2.341m-16.162-5.823l-.061-3.197m-5.375 5.576c-.077 1.42-.082 3.148-.22 4.262m5.964-2.091c-.039.963-.023 1.927.061 2.89m-.492 5.596c.037.562.046 1.148 0 1.69M64.76 72.84l-.091.891m2.828-.553l-.092 1.23m.215-7.256c.02-.996-.055-2.423-.036-3.665m-2.014-5.534l.02-1.346m2.07 2.2l-.04-1.74M66.144 45.6l.185-3.32m1.844 3.628l.308-2.89m2.19 3.499l.236-2.799m-4.229-6.269l.261-2.174m1.913 2.87l.358-2.2m2.244 3.269l.332-2.89M69.206 19.5a51.206 51.206 0 0 0-.604 3.41m2.786-2.418c-.344.947-.688 1.977-.918 3.038m3.532-1.95c-.415.687-.807 2.129-1.02 2.717M71.921 65.12l-.852.264m12.637-23.936l.143 2.74m-23.475 62.088a42.52 42.52 0 0 1-.13-3.956m2.47 4.148l.051-3.54m-2.261-6.94l.23-2.12m2.553 2.712l.271-2.296m3.612 3.074c.103-.814.203-1.62.388-2.604m-3.141-4.913c.191-.576.294-1.065.44-1.596m1.313-6.279s.25-1.055.307-1.496m-4.795 9.145c.224-.818.352-1.546.496-2.122m1.378-6.11c.089-.384.22-1.09.34-1.811m17.62-7.962l.062.984m5.472-.062v.738m-3.197-1.23v.738m-2.583 5.227v2.46m2.522-1.907l.061 2.214m3.935-1.783l.215 2.46m-7.014 4.734l-.149 1.906m2.92-1.322l-.122 1.66m4.55-.737l-.03 1.383m-7.964 4.119c-.153.928-.359 1.83-.676 2.675m3.628-2.244c-.16.84-.326 1.674-.584 2.429m4.95-1.814c-.168 1-.388 1.949-.8 2.705M75.86 103.83l1.23-2.644m2.06 3.074l1.075-2.213m2.377 2.81l.882-2.01m71.935-63.094c4.509.764 9.418.947 14.043.435m-9.522.782l-.173-.738m4.173 1.218l-.217-.914m3.348.783l-.2-.944m10.396-5.274l.465 1.345m2.708-2.476l.544 1.653m1.865-2.213l.59 1.666"/>
    <path fill="#ffd5d5" stroke="#000" stroke-width=".5" d="M119.461 226.822c-2.489.468-1.825 4.124-.601 5.206 2.719 2.404 5.29 2.982 8.253 3.232 4.722.399 7.513-.821 8.471-3.116 1.485-3.556-14.17-5.69-16.123-5.322z"/>
    <path fill="#ffd5d5" stroke="#000" stroke-width=".5" d="M124.1 229.232c1.505-.362 6.33-1.34 9.482-.789 2.986.523 5.137-3.791.785-5.311-4.323-1.51-11.1.898-12.071 1.884-1.767 1.792-1.39 4.984 1.804 4.216z"/>
    <path fill="#ffd5d5" stroke="#000" stroke-width=".5" d="M121.92 223.234c-2.258-1.295-4.145 2.113-3.134 3.866 1.833 3.177 10.506 5.012 14.044 4.843 4.734-.227 4.385-4.556 2.003-4.624-6.382-.182-9.077-1.887-12.913-4.085z"/>
</svg>
