<svg xmlns="http://www.w3.org/2000/svg" xmlns:xlink="http://www.w3.org/1999/xlink" cursor="default" viewBox="0 0 256 256">
    <defs>
        <linearGradient id="innoGrad0">
            <stop offset="0" stop-color="#faa"/>
            <stop offset="1" stop-color="#ffd5d5"/>
        </linearGradient>
        <linearGradient id="linearGradient1253" x1="15.353" x2="11.779" y1="-80.379" y2="-202.708" gradientTransform="translate(123.547 112.55) scale(.29305)" gradientUnits="userSpaceOnUse" xlink:href="#innoGrad0"/>
        <linearGradient id="linearGradient1488" x1="-206.949" x2="-368.99" y1="-52.752" y2="150.188" gradientTransform="translate(123.547 112.55) scale(.29305)" gradientUnits="userSpaceOnUse" xlink:href="#innoGrad0"/>
        <linearGradient id="linearGradient1504" x1="-379.343" x2="-307.038" y1="138.506" y2="-133.142" gradientTransform="translate(123.547 112.55) scale(.29305)" gradientUnits="userSpaceOnUse" xlink:href="#innoGrad0"/>
        <linearGradient id="linearGradient1512" x1="418.555" x2="321.271" y1="113.912" y2="-153.602" gradientTransform="translate(123.547 112.55) scale(.29305)" gradientUnits="userSpaceOnUse" xlink:href="#innoGrad0"/>
        <linearGradient id="linearGradient1540" x1="-28.518" x2="-28.816" y1=".368" y2="-68.221" gradientTransform="translate(123.547 112.55) scale(.29305)" gradientUnits="userSpaceOnUse" xlink:href="#innoGrad0"/>
        <linearGradient id="linearGradient1558" x1="-33.733" x2="-118.982" y1="-10.388" y2="-30.54" gradientTransform="translate(123.547 112.55) scale(.29305)" gradientUnits="userSpaceOnUse" xlink:href="#innoGrad0"/>
        <linearGradient id="linearGradient1572" x1="50.288" x2="104.161" y1="-47.606" y2="-48.357" gradientTransform="translate(123.547 112.55) scale(.29305)" gradientUnits="userSpaceOnUse" xlink:href="#innoGrad0"/>
        <linearGradient id="linearGradient1584" x1="42.342" x2="105.118" y1="12.234" y2="-.67" gradientTransform="translate(123.547 112.55) scale(.29305)" gradientUnits="userSpaceOnUse" xlink:href="#innoGrad0"/>
        <linearGradient id="linearGradient1594" x1="59.66" x2="140.807" y1="-16.271" y2="99.986" gradientTransform="translate(123.547 112.55) scale(.29305)" gradientUnits="userSpaceOnUse" xlink:href="#innoGrad0"/>
        <linearGradient id="linearGradient1602" x1="-50.7" x2="-129.466" y1="1.373" y2="142.199" gradientTransform="translate(123.547 112.55) scale(.29305)" gradientUnits="userSpaceOnUse" xlink:href="#innoGrad0"/>
        <linearGradient id="linearGradient1610" x1="-72.375" x2="-63.336" y1="-42.995" y2="-79.089" gradientTransform="translate(123.547 112.55) scale(.29305)" gradientUnits="userSpaceOnUse" xlink:href="#innoGrad0"/>
        <linearGradient id="linearGradient1622" x1="70.34" x2="72.672" y1="-68.895" y2="-97.179" gradientTransform="translate(123.547 112.55) scale(.29305)" gradientUnits="userSpaceOnUse" xlink:href="#innoGrad0"/>
        <linearGradient id="linearGradient1652" x1="112.945" x2="-257.448" y1="-39.499" y2="-91.845" gradientTransform="translate(123.547 112.55) scale(.29305)" gradientUnits="userSpaceOnUse" xlink:href="#innoGrad0"/>
        <linearGradient id="linearGradient1664" x1="-82.576" x2="249.156" y1="-40.749" y2="-103.249" gradientTransform="translate(123.547 112.55) scale(.29305)" gradientUnits="userSpaceOnUse" xlink:href="#innoGrad0"/>
        <linearGradient id="linearGradient1686" x1="-476.969" x2="-260.738" y1="211.899" y2="207.656" gradientTransform="translate(123.547 112.55) scale(.29305)" gradientUnits="userSpaceOnUse" xlink:href="#innoGrad0"/>
        <linearGradient id="linearGradient1731" x1="-206.949" x2="-368.99" y1="-52.752" y2="150.188" gradientTransform="matrix(-.29213 .02323 .02323 .29213 129.94 113.42)" gradientUnits="userSpaceOnUse" xlink:href="#innoGrad0"/>
        <linearGradient id="linearGradient1733" x1="-476.969" x2="-260.738" y1="211.899" y2="207.656" gradientTransform="matrix(-.29213 .02323 .02323 .29213 129.94 113.42)" gradientUnits="userSpaceOnUse" xlink:href="#innoGrad0"/>
        <linearGradient id="linearGradient1754" x1="-100.89" x2="182.427" y1="332.054" y2="230.938" gradientTransform="translate(123.547 112.55) scale(.29305)" gradientUnits="userSpaceOnUse" xlink:href="#innoGrad0"/>
        <linearGradient id="linearGradient1036" x1="514.084" x2="298.196" y1="176.393" y2="189.304" gradientTransform="translate(123.547 112.55) scale(.29305)" gradientUnits="userSpaceOnUse" xlink:href="#innoGrad0"/>
        <linearGradient id="linearGradient1161" x1="157.991" x2="162.834" y1="-93.703" y2="-184.931" gradientUnits="userSpaceOnUse" xlink:href="#innoGrad0"/>
        <linearGradient id="linearGradient1167" x1="435.968" x2="307.128" y1="-239.427" y2="68.956" gradientUnits="userSpaceOnUse" xlink:href="#innoGrad0"/>
        <linearGradient id="linearGradient1180" x1="157.991" x2="162.834" y1="-93.703" y2="-184.931" gradientUnits="userSpaceOnUse" xlink:href="#innoGrad0"/>
        <linearGradient id="linearGradient1184" x1="380.204" x2="303.962" y1="-174.286" y2="39.766" gradientUnits="userSpaceOnUse" xlink:href="#innoGrad0"/>
        <linearGradient id="linearGradient1191" x1="-108.455" x2="167.366" y1="317.206" y2="226.375" gradientTransform="matrix(-.2925 .01791 .01791 .2925 130.694 112.332)" gradientUnits="userSpaceOnUse" xlink:href="#innoGrad0"/>
    </defs>
    <path fill="#faa" stroke="#000" stroke-width=".5" d="M111.839 88.521h-4.87l-5.49 21.448 9.738.621z"/>
    <path fill="url(#linearGradient1253)" stroke="#000" stroke-width=".5" d="M156.365 83.724c6.691-.259 19.95-2.36 19.95-2.36l39.28-6.744 8.564-4.984c1.1-6.917-8.301-9.07-20.58-9.132-14.82-.076-33.831 2.892-43.634 4.205-12.933 1.732-23.016 3.736-34.574 3.959-11.552.223-20.917-.925-33.932-1.863-9.865-.712-29.022-2.512-43.81-1.53-12.251.813-21.503 3.536-19.982 10.372l8.852 4.452 39.62 4.33s13.362 1.287 20.056 1.136c10.06-.228 20.024-2.501 30.081-2.809 10.057-.308 20.055 1.355 30.109.968z"/>
    <path fill="none" stroke="#000" stroke-width=".5" d="M31.882 73.689c1.664-3.468 11.78-3.52 14.481-3.657 11.61-.587 25.193.245 37.944 1.155 9.07.647 17.342 1.603 26.06 1.573 5.167-.018 9.77-.072 15.42-.256a605.375 605.375 0 0 0 15.63-.694c8.703-.503 16.902-1.962 25.915-3.163 12.671-1.688 26.178-3.348 37.802-3.472 2.705-.028 12.805-.595 14.678 2.765"/>
    <path fill="none" stroke="#000" stroke-width=".5" d="M214.246 69.563c-4.605-2.15-20.181 1.33-30.683 2.247-9.286.812-19.36 2.174-28.66 2.81-9.569.654-19.235.315-28.874.61s-19.36 1.227-28.952 1.16c-9.321-.067-19.46-.811-28.778-1.053-10.538-.274-26.297-2.795-30.763-.369"/>
    <path fill="#faa" stroke="#000" stroke-width=".5" d="M134.822 105.18l-7.91.485h-7.923c-1.01 5.497-.957 10.55-5.634 19.582-7.57 14.622-20.417 34.985-21.673 48.512 2.765-.02 6.354.293 8.168.433 1.394-10.554 16.901-33.134 22.8-46.068 1.53-3.357 3.277-8.186 4.56-12.727 1.56 4.454 3.598 9.167 5.332 12.425 6.678 12.549 23.536 34.138 25.573 44.587 1.801-.25 5.364-.783 8.126-.931-2.08-13.425-16.149-32.964-24.6-47.096-5.219-8.73-5.475-13.776-6.819-19.202z"/>
    <path fill="none" stroke="#000" stroke-width=".5" d="M129.667 105.718c.378 5.184 2.632 11.844 7.679 21.059 7.101 12.965 22.193 31.336 25.212 45.038"/>
    <path fill="#faa" stroke="#000" stroke-width=".5" d="M140.715 181.307s5.65-3.427 10.504-5.902c8.368-4.268 17.674-6.297 30.937-9.411 8.85-2.078 21.916-4.052 31.658-5.24 15.414-1.88 26.915-2.199 32.28-.863l-4.312 8.575-98.68 19.106z"/>
    <path fill="#faa" stroke="#000" stroke-width=".5" d="M231.612 106.86c6.345 11.947 11.036 26.439 11.772 33.747.806 8-1.305 13.882-1.482 20.882l4.193-1.598 1.887-16.87-9.476-29.614z"/>
    <path fill="#faa" stroke="#000" stroke-width=".5" d="M244.2 151.568c-.543 3.538-1.84 6.456-1.987 9.895 1.337-.266 2.798.211 3.882-1.572.206-1.449.672-2.768 1.059-4.127zm-84.843 24.717l-7.425 1.888c-2.387-12.35-.938-28.036 6.594-43.595 8.602-17.77 20.136-36.82 23.11-48.34 1.819-.04 5.42-.086 8.17-.381-2.834 13.584-14.917 35.81-22.93 51.594-8.96 17.646-8.893 28.135-7.52 38.834z"/>
    <path fill="none" stroke="#000" stroke-width=".5" d="M155.678 176.953c-2.096-12.587-.827-24.945 6.584-39.997 7.472-15.178 20.286-36.98 23.855-50.842m27.679-15.877s-1.651-.085-2.697 0c-9.307.752-18.432 2.995-27.648 4.496-8.73 1.421-17.373 3.54-26.187 4.27-10.193.845-20.78-.19-31.163.127-10.383.318-20.887 1.998-31.112 1.778-8.842-.19-17.6-1.776-26.4-2.662-9.29-.934-18.535-2.615-27.87-2.797-1.049-.02-2.693.165-2.693.165"/>
    <path fill="url(#linearGradient1161)" stroke="#000" stroke-width=".5" d="M189.125 89.879c1.64-2.946 2.724-7.286 2.801-10.392.205-8.283-3.536-16.869-4.782-18.414-2.187-2.711-5.203-2.782-6.26-1.214 0 0 6.792 8.839 6.898 18.678.027 2.587-1.665 7.577-1.665 7.577z"/>
    <path fill="url(#linearGradient1161)" stroke="#000" stroke-width=".5" d="M185.27 89.07c1.64-2.947 2.566-7.09 2.643-10.196.205-8.283-5.22-17.487-6.613-18.904-2.41-2.452-7.352-.625-7.105 2.693 2.165-.603 3.968 2.116 5.558 5.183 1.797 3.466 2.545 6.436 2.356 10.201-.26 5.183 3.162 11.022 3.162 11.022z"/>
    <path fill="url(#linearGradient1664)" stroke="#000" stroke-width=".5" d="M151.044 85.769c13.185-3.055 21.377-5.92 28.054-7.55 9.55-2.33 19.624-4.341 29.405-5.325 3.084-.31 8.622-1.033 8.622-1.033l4.093 5.245-70.81 14.067z"/>
    <path fill="url(#linearGradient1664)" stroke="#000" stroke-width=".5" d="M166.939 86.405s16.278-4.893 24.557-6.795c12.1-2.78 23.329-2.742 28.212-4.61l1.987 3.934-40.133 8.345z"/>
    <path fill="url(#linearGradient1664)" stroke="#000" stroke-width=".5" d="M152.872 90.06c5.564-2.529 10.17-3.128 14.94-3.814 12.22-1.759 25.827-2.73 37.988-4.848 5.048-.88 15.02-3.259 15.02-3.259l1.59 5.087-65.087 10.887z"/>
    <path fill="url(#linearGradient1036)" stroke="#000" stroke-width=".5" d="M193.804 167.277c-1.082 1.64.526 4.47.967 6.783l48.962-2.633 4.181-5.536c.755-1.519.68-3.489-.928-3.753z"/>
    <path fill="url(#linearGradient1664)" stroke="#000" stroke-width=".5" d="M158.388 92.434c5.293-1.772 12.61-2.65 19.8-3.081 21.87-1.314 43.856-8.074 43.7-8.102l1.462 4.833s-23.567 6.755-39.395 7.333c-11.074.404-23.614 2.582-23.544 2.67z"/>
    <path fill="url(#linearGradient1036)" stroke="#000" stroke-width=".5" d="M247.452 158.563c-.663.017-1.428.412-2.513.856-2.119.868-6.335 1.673-10.491 1.93-9.863.607-20.78.102-30.913 1.116-2.702.27-7.995 2-10.139 2.664-1.683 1.208-1.266 3.99.06 3.932 2.064-.544 7.819-2.025 10.587-2.323 10.458-1.124 21.054-.131 31.538-.972 4.343-.348 10.97-1.633 12.728-3.006 1.688-1.316 1.512-4.256-.857-4.197z"/>
    <path fill="#ffd5d5" stroke="#000" stroke-width=".5" d="M220.75 71.177s3.382.24 5.363 2.462c1.633 1.832 2.551 4.645 2.009 6.596-.375 1.348-1.712 3.43-1.712 3.43z"/>
    <path fill="#ffd5d5" stroke="#000" stroke-width=".5" d="M218.119 67.888s3.377-.295 5.682 1.59c1.9 1.552 3.249 4.186 3.02 6.198-.159 1.39-1.153 3.656-1.153 3.656z"/>
    <path fill="url(#linearGradient1512)" stroke="#000" stroke-width=".5" d="M217.697 67.537c-1.409 0-2.782.508-3.552 1.662-.736 1.102-.238 2.999-.238 2.999s2.987-.02 4.211 1.412c4.733 5.534 4.044 15.298 7.064 21.924 5.435 11.924 12.554 18.394 17.43 35.394 1.493 5.21 3.33 11.238 3.594 15.005 1.396 2.072 2.71 4.567 3.404 6.228.961-3.672.716-6.357.142-9.714-1.935-11.323-4.283-20.99-9.868-31.105-4.124-7.468-7.835-14.702-11.76-25.368-2.233-6.065-1.893-14.096-7.343-17.57-.872-.556-1.989-.865-3.084-.867z"/>
    <path fill="url(#linearGradient1731)" stroke="#000" stroke-width=".5" d="M193.211 92.56c-3.2.436-6.335.747-9.214.854 7.685 12.612 29.775 28.624 40.29 38.195 4.982 4.536 11.587 10.947 17.024 16.752 5.826 6.22 7.935 11.323 7.027 17.147l.619.36c.25 4.62-.137 6.368-.927 8.544 0 0 2.82-.168 4.002-2.638 2.875-6.01.476-16.357-3.375-22.667-3.788-6.206-14.01-16.83-19.112-22.154-8.3-8.662-27.98-23.74-36.334-34.394z"/>
    <path fill="none" stroke="#000" stroke-width=".5" d="M188.105 93.144c7.668 12.08 26.515 25.013 35.856 34.53 5.156 5.254 15.005 15.043 20.123 22.175 4.647 6.474 5.366 12.126 4.793 14.676.409 5.682.017 7.506-.847 9.886"/>
    <path fill="url(#linearGradient1167)" stroke="#000" stroke-width=".5" d="M193.004 151.944c18.827-20.653 34.322-45.124 39.323-62.534 2.414 1.71 3.459 6.152 3.109 9.872-.635 6.737-4.098 11.551-7.505 17.23-9.085 15.14-32.385 39.222-32.385 39.222z"/>
    <path fill="url(#linearGradient1167)" stroke="#000" stroke-width=".5" d="M190.462 148.153s33.516-34.236 39.02-55.284c.658-2.514-1.995-8.32-2.019-8.874 3.873 2.679 5.306 4.967 5.694 8.682.637 6.103-2.9 13.015-6.307 18.694-9.084 15.14-33.846 40.573-33.846 40.573z"/>
    <path fill="url(#linearGradient1733)" stroke="#000" stroke-width=".5" d="M197.232 176.798l51.85-7.694c.82.864.332 4.263-1.402 5.592-2.548 1.956-5.647 2.984-9.37 3.97-10.998 2.91-23.268.754-34.606 1.688-1.456.12-4.328.697-4.328.697z"/>
    <path fill="url(#linearGradient1754)" stroke="#000" stroke-width=".5" d="M184.462 166.779c-15.36 3.788-24.254 10.154-42.82 14.161-4.266.92-3.297 5.063-1.012 5.17-2.246 1.02-1.293 4.686.787 4.383-2.345 1.522-1.058 4.216-.113 4.27-1.718.625-1.512 4.544 2.445 3.822 23.847-4.348 28.949-8.727 47.569-15.173z"/>
    <path fill="none" stroke="#000" stroke-width=".5" d="M141.305 194.765c21.364-4.12 31.75-9.626 48.045-16.093m-47.933 11.823c23.22-4.916 30.478-10.898 47.171-16.492m-47.958 12.108c23.728-4.84 29.445-10.897 47.49-16.093"/>
    <path fill="url(#linearGradient1733)" stroke="#000" stroke-width=".5" d="M194.854 172.787s4.885-1.076 7.368-1.326c11.518-1.161 23.268.638 34.72-.791 3.3-.412 7.686-1.186 9.976-3.598.84-.886 1.338-1.902 1.46-2.735 0 0 .987.435 1.127 2.418.086 1.212-.394 2.823-1.609 4.051-3.057 3.092-7.24 3.421-11.51 4.245-10.626 2.052-21.664.086-32.455.91-2.244.17-6.7.836-6.7.836z"/>
    <path fill="#ffd5d5" stroke="#000" stroke-width=".5" d="M185.84 154.88c-1.36 3.086-2.038 7.508-1.827 10.608.563 8.266 5.083 16.468 6.468 17.892 2.429 2.497 5.438 2.287 6.346.629 0 0-7.583-8.172-8.6-17.96-.267-2.572.956-7.698.956-7.698z"/>
    <path fill="#ffd5d5" stroke="#000" stroke-width=".5" d="M189.752 155.33c-1.36 3.085-1.897 7.297-1.686 10.396.563 8.266 6.818 16.929 8.336 18.21 2.627 2.219 7.378-.058 6.825-3.34-2.1.802-4.147-1.738-6.015-4.645-2.11-3.285-3.78-6.039-3.94-9.805-.221-5.185-3.52-10.816-3.52-10.816z"/>
    <path fill="#faa" stroke="#000" stroke-width=".5" d="M138.09 113.247c2.044-.686 4.08 1.248 6.557 2.82l-4.762-11.795z"/>
    <path fill="url(#linearGradient1594)" stroke="#000" stroke-width=".5" d="M150.886 105.716l-9.855 2.066c1.125 5.075 7.658 12.823 12.239 17.802 9.771 10.623 36.596 29.502 40.126 39.545 1.635-.506 5.1-1.631 7.852-2.257-4.16-12.972-29.521-31.28-40.884-42.544-4.421-4.383-7.362-9.438-9.478-14.612z"/>
    <path fill="none" stroke="#000" stroke-width=".5" d="M145.864 106.996c1.125 5.074 8.223 12.584 12.715 17.643 10.067 11.337 34.154 26.138 39.127 39.258"/>
    <path fill="url(#linearGradient1584)" stroke="#000" stroke-width=".5" d="M155.694 109.543c1.602-1.04 3.477 1.07 3.625 4.572.115 2.728-1.5 5.768-3.737 7.333-2.394 1.674-5.792 2.39-8.612 1.628-3.47-.938-4.603-5.435-1.023-5.307 7.635.814 7.156-5.86 9.747-8.226z"/>
    <path fill="url(#linearGradient1622)" stroke="#000" stroke-width=".5" d="M145.969 89.175c.237-1.673.75-3.316.899-5.339.195-2.67-5.246-2.744-5.563.056l-.506 5.339z"/>
    <path fill="url(#linearGradient1622)" stroke="#000" stroke-width=".5" d="M151.139 89.118c.146-.964.5-3.494.974-3.606l2.341-.552c-.035-3.757-6.137-4.696-7.474-.911-.58 1.645-.674 3.417-1.011 5.126z"/>
    <path fill="url(#linearGradient1572)" stroke="#000" stroke-width=".5" d="M144.12 88.154a28.269 28.269 0 0 0-3.94.29l-1.067 14.948 15.341 2.529 2.979-6.8c3.999.9 5.592-3.013 1.798-6.293-3.457-2.99-9.516-4.689-15.111-4.674z"/>
    <path fill="url(#linearGradient1584)" stroke="#000" stroke-width=".5" d="M143.321 113.133c.898.086 5.027 2.04 8.2-4.408 1.775-3.604 4.328-1.036 4.767 1.932.399 2.701-2.14 5.766-4.48 7.175-2.503 1.506-6.124 1.586-8.886.633-3.397-1.173-3.166-5.673.4-5.332z"/>
    <path fill="url(#linearGradient1572)" stroke="#000" stroke-width=".5" d="M138.607 108.337s14.675 2.507 18.039-2.585c1.527-2.311.812-5.588-2.304-5.732-2.13 5.371-11.055 3.88-15.229 3.372z"/>
    <path fill="url(#linearGradient1572)" stroke="#000" stroke-width=".5" d="M154.342 100.02c-4.801-1.477-14.892-2.304-14.892-2.304l.281-4.945c5.897-.183 16.98.856 17.702 6.294.142 1.07-.787 1.91-.787 1.91s-1.511-.71-2.304-.955z"/>
    <path fill="url(#linearGradient1540)" stroke="#000" stroke-width=".5" d="M136.551 83.25c.117-2.654 4.883-2.755 4.932.224.175 10.574-.04 20.384-2.33 29.467-.804 3.188-5.598 3.639-4.948-.512 1.855-11.846 1.955-20.285 2.346-29.18z"/>
    <path fill="url(#linearGradient1540)" stroke="#000" stroke-width=".5" d="M131.647 83.676c.266-2.643 5.025-2.755 4.988.224-.13 10.575-.516 19.069-2.161 28.231-.582 3.236-4.825 3.965-4.611-.231.592-11.608.881-19.25 1.784-28.224z"/>
    <path fill="none" stroke="#000" stroke-width=".5" d="M124.167 105.887c-.06 5.197-1.903 11.982-6.377 21.488-6.295 13.375-20.237 32.634-22.412 46.495"/>
    <path fill="#faa" stroke="#000" stroke-width=".5" d="M117.76 182.009s-5.848-3.075-10.844-5.249c-8.614-3.748-18.027-5.204-31.455-7.502-8.96-1.533-22.123-2.705-31.92-3.296-15.5-.934-26.998-.548-32.272 1.113l4.829 8.295 99.662 13.039z"/>
    <path fill="#faa" stroke="#000" stroke-width=".5" d="M22.483 113.258c-5.604 12.312-9.4 27.064-9.688 34.403-.315 8.034 2.152 13.776 2.756 20.752l-4.282-1.338-2.916-16.724 7.649-30.137z"/>
    <path fill="#faa" stroke="#000" stroke-width=".5" d="M12.65 158.652c.76 3.497 2.232 6.331 2.59 9.754-1.352-.183-2.78.383-3.971-1.331-.295-1.434-.84-2.722-1.31-4.055zm86.196 19.484l7.527 1.431c1.628-12.473-.778-28.04-9.247-43.11-9.672-17.211-22.348-35.52-26.021-46.837-1.818.07-5.416.245-8.178.118 3.659 13.386 17.078 34.831 26.041 50.096 10.02 17.066 10.596 27.54 9.878 38.302z"/>
    <path fill="url(#linearGradient1686)" stroke="#000" stroke-width=".5" d="M64.155 171.301l-.426 6.839-49.017 1.256-4.608-5.187c-.872-1.454-.954-3.424.628-3.814z"/>
    <path fill="url(#linearGradient1686)" stroke="#000" stroke-width=".5" d="M9.984 166.868c.663-.036 1.456.297 2.573.654 2.182.697 6.448 1.165 10.612 1.091 9.88-.175 20.722-1.545 30.903-1.338 2.715.055 8.13 1.36 10.319 1.853a14.33 14.33 0 0 0-.016.961 13.032 13.032 0 0 1-.26 2.849c-2.101-.379-7.427-1.285-10.21-1.363-10.514-.29-20.998 1.539-31.516 1.532-4.357-.003-11.064-.759-12.926-1.987-1.787-1.179-1.845-4.123.521-4.252z"/>
    <path fill="none" stroke="#000" stroke-width=".5" d="M102.559 178.578c1.323-12.691-.7-24.949-9.016-39.52-8.386-14.692-22.508-35.67-26.919-49.289"/>
    <path fill="url(#linearGradient1488)" stroke="#000" stroke-width=".5" d="M62.014 89.81c-1.327 9.968-27.3 32.632-36.685 44.127-4.664 5.713-14.012 17.113-17.296 23.6-3.338 6.595-4.91 17.1-1.566 22.863 1.373 2.369 4.197 2.312 4.197 2.312-.96-2.106-1.484-3.818-1.6-8.444l.588-.407c-1.367-5.734.331-10.987 5.646-17.65 4.959-6.218 11.035-13.132 15.642-18.049 11.554-12.33 38.688-35.024 39.234-48.158l-3.23.186c-.253.355-.506.703-.759 1.054.088-.375.164-.747.223-1.117z"/>
    <path fill="none" stroke="#000" stroke-width=".5" d="M62.014 89.81l4.394.317c-2.227 13.991-25.312 31.962-35.455 44.086-4.724 5.647-13.766 16.186-18.303 23.702-4.118 6.822-4.387 12.513-3.614 15.01.044 5.696.579 7.483 1.628 9.787"/>
    <path fill="url(#linearGradient1686)" stroke="#000" stroke-width=".5" d="M61.492 181.063l-52.297-3.559c-.748.927.008 4.276 1.841 5.464 2.696 1.747 5.866 2.527 9.656 3.214 11.194 2.029 23.254-1.093 34.63-1.06 1.461.003 4.37.35 4.37.35z"/>
    <path fill="url(#linearGradient1686)" stroke="#000" stroke-width=".5" d="M63.545 176.877s-4.955-.686-7.45-.738c-11.574-.244-23.144 2.48-34.674 1.964-3.322-.149-7.756-.572-10.23-2.796-.908-.816-1.484-1.79-1.672-2.61 0 0-.95.512-.932 2.5.01 1.215.617 2.783 1.925 3.91 3.293 2.84 7.49 2.837 11.81 3.32 10.756 1.202 21.603-1.633 32.426-1.667 2.25-.007 6.744.303 6.744.303z"/>
    <path fill="url(#linearGradient1180)" stroke="#000" stroke-width=".5" d="M63.853 93.716c-1.817-2.84-3.165-7.106-3.432-10.201-.71-8.255 2.498-17.054 3.648-18.672 2.017-2.84 5.022-3.095 6.174-1.595 0 0-6.24 9.238-5.743 19.065.13 2.584 2.125 7.461 2.125 7.461z"/>
    <path fill="url(#linearGradient1180)" stroke="#000" stroke-width=".5" d="M67.65 92.672c-1.816-2.84-2.993-6.92-3.26-10.015-.711-8.254 4.141-17.773 5.444-19.272 2.256-2.595 7.3-1.074 7.257 2.253-2.199-.47-3.831 2.355-5.231 5.514-1.582 3.569-2.147 6.579-1.728 10.326.577 5.157-2.482 11.194-2.482 11.194z"/>
    <path fill="url(#linearGradient1652)" stroke="#000" stroke-width=".5" d="M101.61 87.281c-13.346-2.243-24.649-4.202-31.393-5.528-14.892-2.927-20.747-2.51-32.253-4.108-1.76-.245-3.16-.206-3.16-.206l-3.765 5.485 71.537 9.712z"/>
    <path fill="url(#linearGradient1652)" stroke="#000" stroke-width=".5" d="M85.785 88.887S69.09 85.951 60.712 84.56c-12.247-2.035-23.307-2.263-28.295-3.83l-1.743 4.049 40.569 5.876z"/>
    <path fill="url(#linearGradient1652)" stroke="#000" stroke-width=".5" d="M100.049 91.676c-5.708-2.184-10.343-2.5-15.146-2.894-12.304-1.008-25.945-1.146-38.213-2.517-5.092-.569-15.192-2.334-15.192-2.334l-1.275 5.174 68.195 7.548z"/>
    <path fill="url(#linearGradient1652)" stroke="#000" stroke-width=".5" d="M98.644 95.408c-5.391-1.445-16.704-2.899-23.907-2.89-21.91.025-44.267-5.379-44.114-5.416l-1.163 4.913s23.935 5.302 39.77 4.911c11.077-.273 24.386 1.281 27.252 2.032z"/>
    <path fill="#ffd5d5" stroke="#000" stroke-width=".5" d="M31.143 76.978s-3.36.445-5.202 2.785c-1.518 1.929-2.262 4.792-1.602 6.706.456 1.323 1.918 3.319 1.918 3.319z"/>
    <path fill="#ffd5d5" stroke="#000" stroke-width=".5" d="M33.569 73.533s-3.389-.087-5.575 1.934c-1.802 1.667-2.987 4.378-2.635 6.372.243 1.378 1.373 3.578 1.373 3.578z"/>
    <path fill="url(#linearGradient1504)" stroke="#000" stroke-width=".5" d="M33.969 73.158c1.405-.087 2.806.337 3.646 1.441.802 1.056.421 2.979.421 2.979s-2.983.163-4.117 1.667c-4.386 5.813-3.1 15.517-5.71 22.315-4.696 12.234-11.407 19.126-15.234 36.393-1.172 5.29-2.412 11.517-2.444 15.293-.801 1.26-1.968 3.243-2.498 4.291a27.43 27.43 0 0 0-.928 2.048c-.594-1.88-.921-4.753-.875-6.594.238-9.565 2.87-23.384 8.27-34.754 3.66-7.706 6.922-15.154 10.188-26.04 1.857-6.19 1.028-14.185 6.255-17.985.836-.608 1.932-.986 3.026-1.054z"/>
    <path fill="url(#linearGradient1184)" stroke="#000" stroke-width=".5" d="M63.775 155.897c-20.054-19.463-37.015-42.942-43.071-60.014-2.305 1.855-3.076 6.353-2.5 10.044 1.046 6.686 4.797 11.28 8.545 16.74 9.992 14.556 34.72 37.168 34.72 37.168z"/>
    <path fill="url(#linearGradient1184)" stroke="#000" stroke-width=".5" d="M66.08 151.958s-35.545-32.124-42.325-52.795c-.81-2.47 1.483-8.428 1.473-8.981-3.702 2.91-4.993 5.281-5.153 9.014-.263 6.13 3.69 12.812 7.437 18.273 9.993 14.556 36.263 38.428 36.263 38.428z"/>
    <path fill="url(#linearGradient1191)" stroke="#000" stroke-width=".5" d="M73.208 170.182c15.562 2.843 24.83 8.653 43.605 11.517 4.314.659 3.6 4.853 1.326 5.099 2.304.881 1.577 4.598-.518 4.423 2.434 1.375 1.314 4.143.374 4.256 1.753.518 1.787 4.442-2.207 3.963-24.068-2.882-29.428-6.941-48.407-12.237zm44.787 25.295c-21.576-2.808-32.279-7.668-48.939-13.128m48.565 8.872c-23.476-3.487-31.086-9.015-48.09-13.577m48.608 9.154c-23.979-3.382-30.056-9.078-48.383-13.162"/>
    <path fill="#ffd5d5" stroke="#000" stroke-width=".5" d="M70.99 157.537c2.27 3.307 2.608 8.223 2.587 11.33-.058 8.284-4.068 16.748-5.363 18.253-2.271 2.64-5.287 2.616-6.295 1.016 0 0 7.069-8.62 7.485-18.451.11-2.585-1.424-7.626-1.424-7.626z"/>
    <path fill="#ffd5d5" stroke="#000" stroke-width=".5" d="M67.227 159.078c1.546 2.997 2.34 7.167 2.319 10.274-.057 8.285-5.771 17.314-7.207 18.685-2.487 2.376-7.368.393-7.017-2.916 2.145.672 4.033-1.989 5.72-5.005 1.905-3.407 3.403-6.258 3.333-10.027-.096-5.189 2.852-11.01 2.852-11.01z"/>
    <path fill="url(#linearGradient1602)" stroke="#000" stroke-width=".5" d="M95.369 102.053l9.963 1.46c-.813 5.134-4.214 17.082-7.904 23.206-8.604 14.278-30.33 32.123-33.239 42.363-1.774-.401-5.28-1.232-8.018-1.612 3.203-13.202 21.707-26.74 32.975-45.125 3.604-5.88 4.427-14.999 6.223-20.292z"/>
    <path fill="url(#linearGradient1610)" stroke="#000" stroke-width=".5" d="M97.053 97.257c1.516-4.18 3.131-9.322 5.647-13.003 1.716-2.51 5.587-1.158 4.248 1.243-2.808 5.037-3.352 7.593-4.3 11.035z"/>
    <path fill="url(#linearGradient1610)" stroke="#000" stroke-width=".5" d="M101.815 96.744c1.516-4.18 2.619-8.809 5.134-12.49 1.716-2.51 5.222-1.328 4.248 1.243-1.903 5.024-3.096 7.324-4.226 10.962z"/>
    <path fill="url(#linearGradient1558)" stroke="#000" stroke-width=".5" d="M109.242 94.67s-12.084-.708-17.755 3.894c-1.284 1.041-1.75 3.768-1.08 4.61l19.153-3.577z"/>
    <path fill="none" stroke="#000" stroke-width=".5" d="M100.46 103.023c-.813 5.134-3.923 15.261-7.51 21.61-7.46 13.2-28.976 30.083-33.138 43.483"/>
    <path fill="url(#linearGradient1558)" stroke="#000" stroke-width=".5" d="M90.884 109.77c-3.614-1.036-3.128-5.808 1.828-8.186 5.698-2.735 16.848-1.987 16.848-1.987l-.16 4.132c-7.064 1.07-15.173 1.644-16.31 5.774 0 0-1.423.21-2.206.266z"/>
    <path fill="url(#linearGradient1558)" stroke="#000" stroke-width=".5" d="M109.48 107.862c-6.198.15-12.397.598-18.596 1.907-4.355.92-2.598 5.612.278 5.325 6.317-.63 11.947-1.03 18.16-1.033z"/>
    <path fill="url(#linearGradient1558)" stroke="#000" stroke-width=".5" d="M108.69 112.953c-6.187.428-12.19.648-18.324 2.234-4.31 1.114-2.304 6.267.572 5.981 6.34-.631 9.81-2.52 16.69-2.127z"/>
    <path fill="url(#linearGradient1540)" stroke="#000" stroke-width=".5" d="M111.261 84.324c1.378-2.742 5.746-2.477 5.077.427-2.24 9.732-1.91 20.45-2.714 30.466-.61 7.612-9.1 7.655-10.37 3.903 1.067-.325 4.645.234 5.314-6.794 1.008-10.58-.887-20.875 2.693-28.002z"/>
    <path fill="url(#linearGradient1540)" stroke="#000" stroke-width=".5" d="M116.6 84.417c.97-2.911 5.336-2.625 4.852.315-1.654 10.028-1.66 21.12-2.265 30.803-.269 4.318-6.444 6.672-6.478 2.47-.095-11.865 1.107-25.232 3.89-33.588z"/>
    <path fill="url(#linearGradient1540)" stroke="#000" stroke-width=".5" d="M121.77 84.38c.572-2.593 5.098-2.625 4.613.315-1.653 10.028-1.382 19.755-1.708 29.452-.11 3.285-5.332 4.605-5.366.404-.095-11.865.562-21.57 2.46-30.171z"/>
    <path fill="url(#linearGradient1540)" stroke="#000" stroke-width=".5" d="M126.521 83.676c.573-2.594 5.083-2.393 4.909.582-.603 10.29-.743 19.235-1.804 28.747-.365 3.267-5.332 4.606-5.366.405-.095-11.866.363-21.134 2.261-29.734z"/>
</svg>
