<svg xmlns="http://www.w3.org/2000/svg" xmlns:xlink="http://www.w3.org/1999/xlink" cursor="default" viewBox="0 0 256 256">
    <defs>
        <linearGradient id="innoGrad1">
            <stop offset="0" stop-color="#ff8080"/>
            <stop offset="1" stop-color="#faa"/>
        </linearGradient>
        <linearGradient id="innoGrad0">
            <stop offset="0" stop-color="#ffd5d5"/>
            <stop offset="1" stop-color="#faa"/>
        </linearGradient>
        <linearGradient id="linearGradient4755" x1="7.203" x2="-101.975" y1="217.833" y2="79.2" gradientUnits="userSpaceOnUse" xlink:href="#innoGrad0"/>
        <linearGradient id="linearGradient4757" x1="7.203" x2="-101.975" y1="217.833" y2="79.2" gradientUnits="userSpaceOnUse" xlink:href="#innoGrad1"/>
        <linearGradient id="linearGradient4759" x1="27.267" x2="-101.975" y1="173.7" y2="79.2" gradientUnits="userSpaceOnUse" xlink:href="#innoGrad1"/>
        <linearGradient id="linearGradient4763" x1="178.385" x2="360.495" y1="181.879" y2="114.19" gradientUnits="userSpaceOnUse" xlink:href="#innoGrad1"/>
        <linearGradient id="linearGradient4765" x1="7.203" x2="-101.975" y1="217.833" y2="79.2" gradientUnits="userSpaceOnUse" xlink:href="#innoGrad1"/>
        <linearGradient id="linearGradient4767" x1="178.385" x2="360.495" y1="181.879" y2="114.19" gradientUnits="userSpaceOnUse" xlink:href="#innoGrad1"/>
        <linearGradient id="linearGradient4769" x1="178.385" x2="360.495" y1="181.879" y2="114.19" gradientUnits="userSpaceOnUse" xlink:href="#innoGrad1"/>
        <linearGradient id="linearGradient4773" x1="133.168" x2="134.532" y1="311.565" y2="-132.14" gradientUnits="userSpaceOnUse" xlink:href="#innoGrad1"/>
    </defs>
    <g>
        <g fill="url(#linearGradient4755)" stroke-width="1.445" transform="matrix(.34582 -.00975 .00975 .34582 77.975 88.672)">
            <path fill="url(#linearGradient4765)" stroke="#000" d="M-89.686 264.745c40.786-1.659 109.652 1.83 157.667 19.691 16.574 6.165 7.322 16.542 7.322 16.542-51.96-16.882-125.12-26.032-165.88-23.554"/>
            <path fill="url(#linearGradient4769)" stroke="#000" d="M386.291 284.644c-36.823-17.523-133.745-18.731-183.733-4.838l2.236 11.467c53.56-10.788 137.52-12.49 179.14 4.925"/>
            <path fill="#ff8080" stroke="#000" d="M141.541 5.573c-7.907.52-15.967-1.517-24.044-3.816l10.42-21.413zM119.987 155.233c6.2-2.546 13.217-3.087 20.317-3.422l-2.538 19.963z"/>
            <path fill="url(#linearGradient4773)" stroke="#000" d="M131.922-19.408L108.113-5.97c-3.086 18.882-19.914 33.266-34.402 42.56C56.391 47.704 48.283 61.074 58.83 80.79c15.337 28.67 36.149 36.746 49.456 64.603 3.074 6.436 6.783 20.328 6.783 20.328 1.586 5.55 3.303 13.393 3.303 13.393-14.115 32.013-34.007 66.904-51.292 87.306-11.451 13.4-19.13 22.522-13.417 38.098 12.907 35.195 27.248 68.221 55 101.66l14.338-8.13c-24.26-24.295-44.62-63.09-53.222-91.323-2.991-9.818-6.087-18.73 5.714-30.533 33.581-40.548 34.458-55.888 53.801-86.066 1.835 8.327 10.642 24.562 14.028 29.365 17.057 24.195 29.883 31.4 51.344 53.378 11.498 11.774 11.18 15.638 1.126 31.06-17.526 26.884-51.253 78.394-72.84 110.372l16.23 1.296c12.44-25.91 50.256-76.743 68.141-104.59 12.6-19.618 12.018-31.31.5-44.03-22.825-25.208-32.317-30.371-47.216-48.38-11.529-13.938-22.764-31.803-26.946-49.224 15.852-38.298 51.484-48.974 68.974-87.597 4.477-9.888 3.033-22.297-2.807-30.634-12.693-18.12-42.625-37.411-51.25-54.6zm-3.406 6.714c.684 1.762 2.482 8.209 4.091 11.478 10.026 20.37 41.305 36.684 54.124 57.327 4.116 6.63 7.807 14.089 3.13 23.147-17.35 33.602-46.82 46.42-62.791 81.001-2.134-6.32-4.442-13.909-6.688-18.503-14.627-29.927-49.823-58.492-52.026-71.995-2.135-13.09 7.259-18.55 17.773-26.303 19.085-14.926 37.772-30.145 42.387-56.152z"/>
            <path stroke="#000" d="M139.352-33.1s2.938-21.225 7.959-32.382c22.789-50.637 98.167-115.192 143.199-153.38 2.457-9.134 4.976-11.722.92-14.9-4.718-.12-17.467 9.503-20.13 11.554-42.918 33.058-117.291 98.838-139.637 156.13-5.043 12.933-5.651 25.402-5.651 25.402s9.13-21.365 6.935-28.584C112.88-135.25 82.235-183.29 35.41-228.24c-10.077-9.672-17.584-14.796-26.286-18.404-11.905-1.136.756 15.188 6.825 21.04 16.128 15.552 19.9 20.182 35.165 37.928 37.412 43.497 46.763 62.753 60.036 110.524 6.595 23.736 2.136 56.422 2.136 56.422z"/>
            <path fill="#faa" stroke="#000" d="M159.482-11.576s4.007-9.538-4.08-18.035c-11.615-12.206-34.96-15.479-48.125-4.566-5.969 4.947-6.288 11.931-1.405 15.532z"/>
            <path fill="#faa" stroke="#000" d="M154.062 4.617c7.645-6.564 8.239-15.4.726-22.53-9.927-9.424-23.825-13.173-36.623-8.506-10.28 3.749-18.048 8.011-10.662 21.466 0 0 9.544-7.572 26.455-5.296C146.06-8.62 151.319 2.033 154.062 4.617z"/>
            <path fill="#ff8080" stroke="#000" d="M107.884 172.566s-3.695 8.932 3.137 16.146c9.814 10.363 27.09 13.787 38.237 4.599 5.054-4.166 6.32-11.923 2.192-14.984z"/>
            <path fill="#ff8080" stroke="#000" d="M112.98 158.302c-6.474 5.528-7.775 12.901-1.427 18.958 8.389 8.004 20.142 11.22 30.973 7.314 8.7-3.138 14.784-11.639 4.99-19.057 0 0-3.24 7.407-17.544 5.426-10.236-1.417-15.466-8.986-16.993-12.641z"/>
            <a>
                <path fill="url(#linearGradient4763)" stroke="#000" d="M438.237 83.254c-87.467 35.008-198.866 5.462-246.627-5.185-14.275-3.183-10.68-15.308-.301-13.486 53.52 9.396 160.473 39.607 244.275 6.242"/>
            </a>
            <path fill="url(#linearGradient4767)" stroke="#000" d="M414.103 36.539c69.22 109.153-188.285 221.306-216.951 243.164-6.884 5.25-.225 16.56 6.91 10.994 41.487-32.36 274.82-128.773 228.16-244.096"/>
            <path fill="url(#linearGradient4759)" stroke="#000" d="M-119.273 53.887C-92.21 74.129 17.763 78.332 68.777 73.65c14.565-1.336 10.833-13.833.302-13.486C14.474 61.968-69.827 66.96-116.62 41.457"/>
            <path fill="url(#linearGradient4757)" stroke="#000" d="M-92.616 25.437C-159.206 125.64 56.634 222.344 79.75 286.778c2.924 8.15-10.54 12.918-14.461 4.761-29.097-60.517-232.463-165.14-175.617-259.467"/>
        </g>
        <path fill="#faa" stroke="#000" stroke-width=".5" d="M123.783 84.528c2.737.178 5.529-.514 8.326-1.296l-3.595-7.293z"/>
        <path fill="#ffd5d5" stroke="#000" stroke-width=".5" d="M133.164 77.76l2.408 3.188s11.198 7.154 16.388 10.842c1.953 1.388 5.198 4.133 5.198 4.133l-5.099 2.384s-2.917-2.646-4.7-3.876c-5.436-3.747-12.03-6.783-17.151-10.729-1.427-1.1-2.262-3.347-2.567-4.338-.227.654-.755 2.061-1.24 3.304-.957 2.456-3.51 5.288-5.424 7.035-2.137 1.95-7.145 4.88-9.41 8.88l-4.864-1.932c-.321-.09 2.97-5.244 8.602-8.566 3.734-2.202 4.047-4.035 5.951-6.104.504-.548 2.216-2.447 2.216-2.447l4.021-.767z"/>
        <path fill="#ffd5d5" stroke="#000" stroke-width=".5" d="M74.997 91.345c-13.22.206-27.978.737-36.651 9.959-2.479 2.635-3.113 4.96-1.093 7.165 3.032-3.32 6.709-7.116 13.615-9.078 7.834-2.224 16.118-3.724 24.258-3.47 12.142.377 35.534 8.09 35.534 8.09.006.221 2.553-.265 3.14-2.052 1.036-3.151-.53-5.402-3.24-6.791-2.707-1.388-5.33-1.005-8.904-1.288-9.071-.72-15.278-2.712-26.659-2.535z"/>
        <path fill="#ffd5d5" stroke="#000" stroke-width=".5" d="M105.612 99.11c-6.794-.132-14.065-3.264-21.054-5.247-7.771-2.206-15.641-5.454-23.76-4.773-6.126.514-12.1 1.06-16.638 5.207-1.8 1.645-2.486 3.095-2.898 4.33.413-.437 5.768-3.172 8.582-3.959 3.982-1.114 7.942-1.305 12.074-1.163 6.214.214 12.172 2.624 18.11 4.467 8.597 2.67 22.327 7.037 25.8 6.44"/>
        <path fill="#ffd5d5" stroke="#000" stroke-width=".5" d="M133.686 139.2c-2.727-7.202-9.043-16.01-12.394-20.622-4.243-5.84-9.517-10.38-10.476-14.088-.175-.673.042-1.307-.064-1.941-.489-2.941-2.591-3.55-5.14-3.44 0 0-.442 3.725.153 5.438 2.02 5.82 7.237 9.973 11.036 14.82 6.356 8.112 9.974 14.412 13.55 21.586z"/>
        <path fill="#ff8080" stroke="#000" stroke-width=".5" d="M209.484 219.179c1.597-2.425 3.107-4.808-.93-4.566-1.867 2.608-41.324 4.293-63.99 5.122-18.605.681-33.91.027-51.547 1.562-15.17 1.32-36.702 2.26-36.702 2.26l.75 4.87s19.49-1.689 29.825-2.363c23.48-1.531 37.404-1.51 58.409-2.128 21.93-.645 61.41-2.29 64.185-4.757zM58.159 239.185c-1.732-2.331-3.328-4.297.715-4.282 5.367-.914 40.303-2.743 62.979-3.191 18.615-.368 34.37.07 51.496 1.313 11.773.854 35.159 4.217 35.159 4.217l-.474 4.905s-23.876-3.255-34.916-3.99c-23.479-1.564-29.797-1.74-50.803-1.174-21.931.59-55.365 1.29-64.156 2.202z"/>
        <path fill="#ff8080" stroke="#000" stroke-width=".5" d="M167.818 219.414c13.487 1.271 41.745 6.342 41.745 6.342l-1.688 3.942c-13.192-3.162-34.083-6-47.701-6.9-12.81-.846-38.361-.464-38.361-.464-21.914.098-61.416 1.224-64.326-1.082-1.731-2.331-3.373-4.626.67-4.61 2.012 2.498 41.76 1.605 64.127 1.283 16.15-.233 30.986.119 45.534 1.49z"/>
        <path fill="#ffd5d5" stroke="#000" stroke-width=".5" d="M167.747 193.56c2.463.92 15.263 1.442 25.89 7.857 5.434 3.28 10.634 5.684 13.775 10.875 1.27 2.098 2.072 6.887 2.072 6.887.787-.563 2.509-2.344 2.796-4.02.398-2.328-.22-4.83-1.506-6.81-3.186-4.908-8.173-7.333-13.435-10.462-3.939-2.341-8.782-3.915-13.191-5.165-5.482-1.555-15.706-3.453-17.131-3.413zM130.075 157.088l-5.889.63c-4.829 9.185-12.289 15.993-17.982 25.991-3.064 5.38-3.72 8.365-3.614 11.302.112 3.126 1.429 5.43 2.804 7.204 5.982 7.714 13.418 11.04 19.755 17.54 2.157 2.211 3.2 4.526 3.2 4.526l5.618-.44s-2.464-3.534-3.532-4.815c-6.48-7.777-14.864-10.367-21.43-19.784-2.554-3.662-2.341-5.498-.916-9.158.64-1.644 1.688-3.597 2.667-4.976 6.135-8.645 13.778-17.224 19.32-28.02zM55.495 238.862c-4.125-.849-4.467 4.84-1.666 5.654 0 0 12.531 3.056 17.693 3.75 8.107 1.089 16.357 1.599 24.518 1.034 10.429-.722 30.703-6.21 30.936-6.712l.07-6.97c-23.22 1.096-47.191 8.253-71.551 3.244z"/>
        <path fill="#ff8080" stroke="#000" stroke-width=".5" d="M57.31 234.589c-1.732-2.331-5.075-5.044-1.031-5.029 6.663-2.012 42.966-2.42 65.642-2.868 18.615-.368 34.374.013 51.496 1.313 11.44.869 34.144 4.329 34.144 4.329l.54 4.793s-23.875-3.255-34.915-3.99c-23.479-1.564-29.797-1.74-50.803-1.174-21.931.59-56.282 1.714-65.074 2.626z"/>
        <path fill="#ffd5d5" stroke="#000" stroke-width=".5" d="M55.563 233.842c-3.48-1.042-3.676 3.46-.584 4.962 4.172 2.029 15.396 4.41 22.988 5.032 8.904.73 17.878.595 26.694-.846 8.17-1.335 23.347-5.022 23.347-5.022l.032-3.912c-23.27.036-48.16 7.064-72.477-.214z"/>
        <path fill="#ffd5d5" stroke="#000" stroke-width=".5" d="M57.008 229.292c-4.409-.861-4.355 3.365-1.705 4.53 5.609 2.466 12.816 3.457 18.72 4.44 15.512 2.581 51.855-2.185 55.03-3.224l-.49-3.764c-22.728 1.09-35.618 5.036-71.555-1.982z"/>
        <path fill="#ffd5d5" stroke="#000" stroke-width=".5" d="M120.779 229.332c-4.344.725-43.38 1.541-61.974-3.503-1.488-.404-2.12-1.467-2.49-2.272-1.84-.52-4.12 4.317-.036 6.003 0 0 10.403 2.86 18.602 3.575 18.17 1.585 45.738 1.005 53.08-1.245 4.64-1.516-4.599-1.723-7.182-2.558zM210.596 236.127a1.754 1.754 0 0 0-.4.045l-53.466 2.036c-1.93 2.496-4.306 4.487-6.951 4.927 6.34 1.146 14.462 5.981 32.427 6.989 9.725.546 24.385-2.532 30.56-5.972 2.311-1.288 1.107-4.518-1.5-3.74 1.771-.928 1.238-4.27-.67-4.285z"/>
        <path fill="#ffd5d5" stroke="#000" stroke-width=".5" d="M210.055 231.335c-.326-.001-.693.085-1.095.282-2.443 1.196-16.82 3.952-24.69 4.644-8.296.73-26.447.059-26.83.05-.259 1.153-.981 2.518-2.101 3.603 9.316 2.16 21.369 2.002 30.66 1.144 7.045-.708 20.668-2.918 23.609-4.15 3.039-1.274 2.73-5.564.447-5.573z"/>
        <path fill="none" stroke="#000" stroke-width=".5" d="M211.266 240.412c-.318.137-4.452 2.258-10.71 3.533-4.388.894-9.88 1.566-13.692 1.9-8.109.71-22.355 1.354-32.411-1.46"/>
        <path fill="#ffd5d5" stroke="#000" stroke-width=".5" d="M47.53 185.827c2.832 3.754 16.165 13.907 41.575 15.1 8.44.396 15.54-.845 19.815-4.625 3.398-3.004.419-5.923-.873-6.074 0 0-.453 1.35-1.008 1.933-3.287 3.462-12.325 4.024-17.282 3.759-12.951-.695-31.817-4.508-40.217-14.82-2.507.554-3.08 3.31-2.01 4.727z"/>
        <path fill="#ffd5d5" stroke="#000" stroke-width=".5" d="M102.974 189.286c-6.175.22-12.529 1.674-17.685 3.508-7.502 2.668-13.906 6.479-20.324 11.19-3.725 2.735-7.802 5.635-9.695 9.234-1.438 2.734-1.901 5.898 2.217 8.034 0 0-.931-1.961.093-3.786 3.662-6.527 16.592-14.402 26.475-18.996 8.62-4.008 14.459-3.973 18.533-4.499.045-1.41.308-2.895.954-4.697-.19.005-.378.006-.568.012zM129.556 147.239s2.857-10.991 5.456-16.204c5.081-10.188 17.152-24.473 18.2-29.02.479-5.295 3.033-2.214 4.552-3.313.954 1.86-.118 5.001-1.261 7.07-5.378 9.734-12.682 17.02-17.305 26.503-1.068 2.191-2.36 6.921-2.36 6.921l-1.37 6.327z"/>
        <path fill="#ffd5d5" stroke="#000" stroke-width=".5" d="M124.13 140.761c-2.148.088-3.03 4.043-1.826 5.825 1.32 1.956 4.67 1.268 6.97.74 1.74-.4 2.732-1.945.888-3.538-1.823-1.575-3.256-3.14-6.031-3.027z"/>
        <path fill="#ffd5d5" stroke="#000" stroke-width=".5" d="M126.549 136.081c-2.193.068-3.694 2.897-2.315 4.513 2.347 2.749 8.107 12.825 9.557 15.427 2.945 5.284 6.708 11.259 10.916 16.14 5.278 6.12 14.583 13.419 17.118 17.764 2.816 4.936 1.056 7.401-.548 10.528-4.688 9.139-22.018 24.646-22.018 24.646l4.959 2.77s12.375-11.738 17.307-18.633c2.522-3.526 4.744-7.631 6.158-11.455 1.963-5.31-1.052-10.908-4.621-14.15-11.177-9.81-18.435-18.587-25.073-30.682-1.542-2.81-6.343-13.452-9.364-16.019-.657-.558-1.462-.868-2.076-.849z"/>
        <path fill="#ffd5d5" stroke="#000" stroke-width=".5" d="M126.09 227.395l17.991 5.64c2.004 5.14 5.691 1.71 6.075-.922-.446-1.523-2.04-3.446-4.282-5.416-3.59-3.154-12.679-5.256-16.662-5.068-5.937.28-6.794 5.423-3.122 5.766zM128.614 230.856c-1.548 3.947-2.702 7.618-2.664 11.888.03 3.371 5.15 2.979 5.392.389.402-4.295 1.614-7.914 2.8-11.233z"/>
        <path fill="#ffd5d5" stroke="#000" stroke-width=".5" d="M136.304 241.529s5.323 1.63 8.122 1.722c4.672.154 7.534.192 10.888-3.055 3.052-2.955 2.716-7.32.91-10.113-6.565 4.926-12.448 8.167-20.231 7.472z"/>
        <path fill="#ffd5d5" stroke="#000" stroke-width=".5" d="M134.141 231.9c-1.494 3.912-2.686 6.759-2.742 11.028-.044 3.371 4.475 3.113 4.96.557.734-3.864 1.257-6.369 2.515-9.66z"/>
        <path fill="#ffd5d5" stroke="#000" stroke-width=".5" d="M122.802 230.632c5.066.473 10.89.673 15.494 3.599 1.098.698 1.848 2.294 1.848 2.294l6.075-.922c-.446-1.523-1.937-3.57-4.283-5.417-3.942-3.104-13.417-5.153-16.661-5.068-5.942.156-6.144 5.17-2.473 5.514z"/>
        <path fill="#ffd5d5" stroke="#000" stroke-width=".5" d="M149.568 226.908a15.273 15.273 0 0 0-3.013.329c1.44 1.438 3.416 3.813 3.449 4.78.049 1.467-1.519 3.137-4.435 3.44-2.423.252-6.96-.672-7.04-.688a38.583 38.583 0 0 0-1.016 3.316c2.476.835 5.893 1.62 10.218 1.23 3.31-.3 5.96-1.152 8.013-3.765 1.306-1.662 1.36-3.988.25-5.787-1.341-2.173-3.29-2.892-6.426-2.855z"/>
        <path fill="#ffd5d5" stroke="#000" stroke-width=".5" d="M156.089 224.477c-3.06.094-7.23 1.272-8.29 4.092.992 1.241 2.41 3.433 1.682 4.997 1.559-2.35 3.611-4.679 6.931-4.567 1.997.068 2.79.078 6.352 1.493 10.114 4.017 14.847 5.681 23.74 5.853 6.85.132 16.242-.412 22.184-3.392 2.798-1.404 4.146-6.534.875-7.197-1.441-.292-1.485.681-2.062 1.77-.292.553-1.048 1.1-1.619 1.332-4.28 1.746-11.588 2.773-16.275 2.597-9.848-.37-12.124-1.156-28.213-6.37-1.762-.572-3.598-.66-5.305-.608zM214.335 183.342c-1.453 4.241-4.372 5.776-7.356 7.383-4.115 2.215-10.34 4.651-18.62 4.927-7.128.237-13.882-.699-19.855-2.276-2.68-.709-5.871-2.087-6.679-3.45-1.316-.036-2.471 1.705-2.294 3.03.302 2.257 2.805 3.47 4.892 4.378 8.707 3.793 18.88 3.943 27.255 2.825 8.766-1.17 18.82-4.464 24.119-10.91 1.771-2.155 1.553-4.714-1.462-5.907zM124.012 153.016c-2.44.173-3.049 4.322 2.035 4.817 2.758.269 10.32-.34 12.954-4.428 3.79-5.884.494-8.437.494-8.437-1.877 5.243-7.88 7.51-15.483 8.048z"/>
        <path fill="#ffd5d5" stroke="#000" stroke-width=".5" d="M123.941 147.82c-3.85.441-2.482 5.058.622 5.425 2.81.333 10.982-.97 13.552-5.356 4.337-7.4-1.277-8.693-1.277-8.693-1.597 5.65-4.744 7.687-12.897 8.623zM153.211 102.016c1.439-1.119 6.754-4.473 14.952-6.395l8.33-5.809s-19.08 1.834-25.275 7.415c-5.117 4.611-2.055 8.583-.155 9.15.826-1.179 1.463-2.523 2.148-4.361z"/>
        <path fill="#ffd5d5" stroke="#000" stroke-width=".5" d="M158.068 101.348c2.843-1.391 5.776-2.715 10.095-5.727 0 0 5.44-4.046 8.33-5.809 3.285-2.004 7.038-3.505 10.758-4.484 5.453-1.436 10.84-1.445 16.243-.59 6.598 1.043 12.628 3.265 17.796 7.395 2.761 2.207 6.609 8.442 6.609 8.442l-13.377-8.384-29.226-.902s-11.04 5.669-16.192 9.482c-2.947 2.182-9.84 5.874-13.235 6.117.739-1.256 1.767-3.051 2.2-5.54z"/>
        <path fill="#ffd5d5" stroke="#000" stroke-width=".5" d="M179.77 94.233s13.249-1.969 20.112-1.501c7.611.518 14.077 2.144 19.95 5.752 7.195 4.42 10.825 11.581 10.504 14.708 6.534-2.654-.449-10.665-2.499-13.132-2.187-2.632-4.334-4.555-7.273-6.389-3.543-2.21-7.808-3.797-11.931-4.599-5.743-1.116-11.763-1.693-17.469-.4-4.21.955-11.393 5.56-11.393 5.56zM122.5 71.955s-.397-4.954-1.494-7.115C113.134 49.33 89.996 30.67 75.71 7.832c-.763-1.22-.964-2.611-.058-3.73 1.036-1.278 3.074-.813 3.074-.813-.1 1.487.364 2.271 1.03 3.209 17.038 24.005 36.733 39.29 46.848 58.794 1.017 1.963.987 4.154.987 4.154s1.026-3.166 2.31-5.409c11.595-20.267 27.783-39.53 45.749-55.52 1.347-1.199 1.17-2.815.828-3.525 4.122-.385 5.626 3.085 3.7 5.238-6.013 6.725-10.896 11.42-16.297 17.361-10.961 12.059-19.352 22.26-28.49 37.004-4.444 7.171-5.177 10.59-5.177 10.59z"/>
        <path fill="#ffd5d5" stroke="#000" stroke-width=".5" d="M117.582 78.686s-1.382-3.248 1.422-6.14c4.028-4.156 12.112-5.267 16.663-1.55 2.063 1.686 2.17 4.064.477 5.29z"/>
        <path fill="#ffd5d5" stroke="#000" stroke-width=".5" d="M119.449 84.2c-2.643-2.235-2.843-5.244-.239-7.672 3.442-3.207 8.256-4.482 12.683-2.891 3.557 1.278 6.244 2.73 3.679 7.31 0 0-3.3-2.579-9.155-1.806-4.19.553-6.017 4.18-6.968 5.06z"/>
    </g>
</svg>
