<svg xmlns="http://www.w3.org/2000/svg" xmlns:xlink="http://www.w3.org/1999/xlink" cursor="default" viewBox="0 0 256 256">
    <defs>
        <linearGradient id="innoGrad0">
            <stop offset="0" stop-color="#faa"/>
            <stop offset="1" stop-color="#ffd5d5"/>
        </linearGradient>
        <linearGradient id="linearGradient925" x1="168.037" x2="173.443" y1="206.946" y2="183.179" gradientTransform="matrix(1.49834 -.27733 .32548 1.7585 -153.36 -101.238)" gradientUnits="userSpaceOnUse" xlink:href="#innoGrad0"/>
        <linearGradient id="linearGradient933" x1="158.27" x2="164.234" y1="192.393" y2="209.893" gradientTransform="matrix(1.49834 -.27733 .32548 1.7585 -153.36 -101.238)" gradientUnits="userSpaceOnUse" xlink:href="#innoGrad0"/>
        <linearGradient id="linearGradient941" x1="190.743" x2="202.469" y1="182.019" y2="136.516" gradientTransform="matrix(1.49834 -.27733 .32548 1.7585 -153.36 -101.238)" gradientUnits="userSpaceOnUse" xlink:href="#innoGrad0"/>
        <linearGradient id="linearGradient949" x1="135.789" x2="212.98" y1="109.452" y2="149.227" gradientTransform="matrix(1.49834 -.27733 .32548 1.7585 -153.36 -101.238)" gradientUnits="userSpaceOnUse" xlink:href="#innoGrad0"/>
        <linearGradient id="linearGradient957" x1="90.73" x2="95.536" y1="140.299" y2="112.192" gradientTransform="matrix(1.49834 -.27733 .32548 1.7585 -153.36 -101.238)" gradientUnits="userSpaceOnUse" xlink:href="#innoGrad0"/>
        <linearGradient id="linearGradient965" x1="142.212" x2="136.781" y1="219.249" y2="193.086" gradientTransform="matrix(1.49834 -.27733 .32548 1.7585 -153.36 -101.238)" gradientUnits="userSpaceOnUse" xlink:href="#innoGrad0"/>
        <linearGradient id="linearGradient973" x1="136.704" x2="132.82" y1="216.094" y2="193.997" gradientTransform="matrix(1.49834 -.27733 .32548 1.7585 -153.36 -101.238)" gradientUnits="userSpaceOnUse" xlink:href="#innoGrad0"/>
        <linearGradient id="linearGradient981" x1="127.181" x2="128.327" y1="211.487" y2="193.986" gradientTransform="matrix(1.49834 -.27733 .32548 1.7585 -153.36 -101.238)" gradientUnits="userSpaceOnUse" xlink:href="#innoGrad0"/>
        <linearGradient id="linearGradient989" x1="123.771" x2="123.48" y1="212.4" y2="191.717" gradientTransform="matrix(1.49834 -.27733 .32548 1.7585 -153.36 -101.238)" gradientUnits="userSpaceOnUse" xlink:href="#innoGrad0"/>
        <linearGradient id="linearGradient997" x1="118.084" x2="115.958" y1="205.337" y2="188.837" gradientTransform="matrix(1.49834 -.27733 .32548 1.7585 -153.36 -101.238)" gradientUnits="userSpaceOnUse" xlink:href="#innoGrad0"/>
        <linearGradient id="linearGradient999" x1="111.367" x2="113.392" y1="203.216" y2="185.091" gradientTransform="matrix(1.49834 -.27733 .32548 1.7585 -153.36 -101.238)" gradientUnits="userSpaceOnUse" xlink:href="#innoGrad0"/>
        <linearGradient id="linearGradient1001" x1="105.107" x2="108.932" y1="201.231" y2="183.481" gradientTransform="matrix(1.49834 -.27733 .32548 1.7585 -153.36 -101.238)" gradientUnits="userSpaceOnUse" xlink:href="#innoGrad0"/>
        <linearGradient id="linearGradient1003" x1="99.562" x2="104.307" y1="196.623" y2="176.123" gradientTransform="matrix(1.49834 -.27733 .32548 1.7585 -153.36 -101.238)" gradientUnits="userSpaceOnUse" xlink:href="#innoGrad0"/>
        <linearGradient id="linearGradient1005" x1="99.436" x2="98.364" y1="190.313" y2="173.688" gradientTransform="matrix(1.49834 -.27733 .32548 1.7585 -153.36 -101.238)" gradientUnits="userSpaceOnUse" xlink:href="#innoGrad0"/>
        <linearGradient id="linearGradient1007" x1="96.324" x2="97.752" y1="182.431" y2="166.931" gradientTransform="matrix(1.49834 -.27733 .32548 1.7585 -153.36 -101.238)" gradientUnits="userSpaceOnUse" xlink:href="#innoGrad0"/>
        <linearGradient id="linearGradient1009" x1="93.974" x2="97.977" y1="175.13" y2="162.13" gradientTransform="matrix(1.49834 -.27733 .32548 1.7585 -153.36 -101.238)" gradientUnits="userSpaceOnUse" xlink:href="#innoGrad0"/>
        <linearGradient id="linearGradient1011" x1="93.688" x2="94.498" y1="170.758" y2="158.133" gradientTransform="matrix(1.49834 -.27733 .32548 1.7585 -153.36 -101.238)" gradientUnits="userSpaceOnUse" xlink:href="#innoGrad0"/>
        <linearGradient id="linearGradient1013" x1="91.798" x2="91.74" y1="162.373" y2="154.623" gradientTransform="matrix(1.49834 -.27733 .32548 1.7585 -153.36 -101.238)" gradientUnits="userSpaceOnUse" xlink:href="#innoGrad0"/>
        <linearGradient id="linearGradient1015" x1="92.689" x2="92.866" y1="157.254" y2="150.379" gradientTransform="matrix(1.49834 -.27733 .32548 1.7585 -153.36 -101.238)" gradientUnits="userSpaceOnUse" xlink:href="#innoGrad0"/>
        <linearGradient id="linearGradient1017" x1="92.03" x2="91.652" y1="151.481" y2="145.606" gradientTransform="matrix(1.49834 -.27733 .32548 1.7585 -153.36 -101.238)" gradientUnits="userSpaceOnUse" xlink:href="#innoGrad0"/>
        <linearGradient id="linearGradient1019" x1="89.326" x2="90.17" y1="148.689" y2="140.689" gradientTransform="matrix(1.49834 -.27733 .32548 1.7585 -153.36 -101.238)" gradientUnits="userSpaceOnUse" xlink:href="#innoGrad0"/>
        <linearGradient id="linearGradient1021" x1="89.696" x2="89.545" y1="143.707" y2="136.207" gradientTransform="matrix(1.49834 -.27733 .32548 1.7585 -153.36 -101.238)" gradientUnits="userSpaceOnUse" xlink:href="#innoGrad0"/>
        <linearGradient id="linearGradient1023" x1="98.803" x2="99.586" y1="140.42" y2="130.295" gradientTransform="matrix(1.49834 -.27733 .32548 1.7585 -153.36 -101.238)" gradientUnits="userSpaceOnUse" xlink:href="#innoGrad0"/>
        <linearGradient id="linearGradient1025" x1="93.302" x2="94.959" y1="135.932" y2="126.057" gradientTransform="matrix(1.49834 -.27733 .32548 1.7585 -153.36 -101.238)" gradientUnits="userSpaceOnUse" xlink:href="#innoGrad0"/>
    </defs>
    <path fill="url(#linearGradient957)" stroke="#000" d="M15.496 98.405c-.583-12.687 10.657-22.96 22.5-29.404 9.247-5.03 20.874-8.928 31.44-4.05 7.035 3.248 9.809 10.265 9.866 17.786.11 14.365-16.281 19.713-23.918 18.412-7.67-1.306-13.104-4.435-14.617 2.063l-10.76-3.555c-.71-2.331 1.288-9.52 5.533-10.629 9.53-2.49 14.818.46 20.91.509 5.393.043 11.055-1.846 11.397-6.529.361-4.956-3.578-6.845-7.603-7.032-6.221-.29-11.376 1.649-16.457 4.332-6.9 3.644-13.58 11.08-13.953 17.854z"/>
    <path fill="url(#linearGradient941)" stroke="#000" d="M185.235 177.439c22.828-9.606 41.86-39.691 41.765-61.917-.09-21.42-17.611-44.312-34.24-54.75-16.765-10.522-33.51-16.805-51.855-12.265-34.226 8.471-56.344 40.213-77.78 39.969-9.625-.11-8.78-12.341-2.887-12.29 20.583.182 35.931-27.456 73.09-37.53 21.957-5.952 39.971-5.355 66.261 13.136 18.655 13.12 36.3 34.125 37.361 61.246 1.532 39.124-21.9 59.061-49.36 75.207z"/>
    <path fill="url(#linearGradient1025)" stroke="#000" d="M44.337 113.758s2.75-1.857 2.515-5.464c-.537-8.229-8.607-12.689-18.21-13.086-10.343-.429-21.666 3.94-19.865 13.645.567 3.054 4.473 4.66 4.473 4.66"/>
    <path fill="url(#linearGradient1023)" stroke="#000" d="M11.658 123.106c-2.077-1.365-2.884-2.639-3.387-5.69-1.14-6.909 7.589-12.502 17.446-13.184 10.616-.733 20.567 2.996 20.167 12.808-.132 3.237-2.04 5.464-2.04 5.464"/>
    <path fill="url(#linearGradient1021)" stroke="#000" d="M11.939 132.355c-1.708-.74-2.736-1.983-3.203-5.284-.94-6.652 6.25-12.147 16.29-13.547 10.812-1.506 20.97 1.514 20.935 10.992-.012 3.126-1.89 4.585-1.89 4.585"/>
    <path fill="url(#linearGradient1019)" stroke="#000" d="M43.914 134.655c1.415-1.178 2.46-2.377 1.923-5.668-1.083-6.631-9.626-9.385-20.314-7.05-10.663 2.332-17.398 6.711-15.373 14.78.764 3.05 3.097 3.238 3.097 3.238"/>
    <path fill="url(#linearGradient1017)" stroke="#000" d="M44.297 142.676c1.418-1.206 2.505-2.904 1.929-6.188-1.16-6.62-7.369-8.762-16.984-7.032-10.864 1.954-18.874 8.081-17.383 14.877.939 4.274 4.916 4.955 4.916 4.955"/>
    <path fill="url(#linearGradient1015)" stroke="#000" d="M45.948 147.993c.929-1.85 2.065-2.647 1.24-5.876-1.659-6.506-9.044-6.541-18.306-4.362-10.747 2.53-16.683 9.311-14.34 16.051 1.024 2.943 3.521 4.301 6.74 4.284"/>
    <path fill="url(#linearGradient1013)" stroke="#000" d="M49.037 154.993c1.086-1.602 1.814-3.107.545-6.162-2.554-6.156-9.056-5.772-18.883-2.396-11.043 3.793-15.758 12.562-12.188 19.864 1.364 2.79 4.816 3.467 4.816 3.467"/>
    <path fill="url(#linearGradient1011)" stroke="#000" d="M28.212 180.33c-8.58-2.851-9.792-13.986 1.562-22.588 8.923-6.76 22.19-10.172 24.516.554"/>
    <path fill="url(#linearGradient1009)" stroke="#000" d="M33.996 189.122c-8.11-1.788-10.792-15.06.224-24.405 9.682-8.214 22.212-11.025 25.243-.3"/>
    <path fill="url(#linearGradient1007)" stroke="#000" d="M43.422 199.078s-5.587 2.104-8.568-4.749c-3.347-7.697 1.78-19.252 8.329-25.248 5.459-4.998 19.056-10.928 21.842 2.176"/>
    <path fill="url(#linearGradient1005)" stroke="#000" d="M70.204 177.367c-2.864-12.598-14.921-9.033-21.916 1.877-6.99 10.905-7.634 22.325-2.77 27.523 3.677 3.927 8.871.867 8.871.867"/>
    <path fill="url(#linearGradient1003)" stroke="#000" d="M77.285 183.583c.193-1.79-1.324-6.204-4.145-7.592-7.322-3.603-14.937 2.388-18.79 13.927-2.53 7.576-5.227 20.049 1.69 25.408 3.673 2.847 8.487-.767 8.487-.767"/>
    <path fill="url(#linearGradient1001)" stroke="#000" d="M84.672 185.752s-1.66-3.838-4.375-5.138c-7.193-3.443-14.46 3.93-17.345 12.856-2.784 8.61-2.869 23.718 4.724 27.74 3.845 2.037 7.566-2.043 7.566-2.043"/>
    <path fill="url(#linearGradient999)" stroke="#000" d="M90.453 188.862c.361-1.854-2.595-5.384-5.994-5-6.12.694-10.952 7.427-12.704 14.248-2.388 9.3-.699 25.895 5.783 27.544 3.373.858 7.215-2.46 7.215-2.46"/>
    <path fill="url(#linearGradient997)" stroke="#000" d="M98.294 191.269c-.459-3.06-3.587-5.515-6.523-4.902-6.08 1.27-10.175 7.85-11.46 19.483-1 9.049.866 20.504 7.396 21.459 4.374.64 5.764-3.64 5.764-3.64"/>
    <path fill="url(#linearGradient989)" stroke="#000" d="M105.53 192.315s-1.132-3.793-4.466-3.72c-6.75.147-10.756 10.196-11.445 18.393-.884 10.517 3.482 23.267 8.467 23.08 4.05-.152 5.615-5.245 5.615-5.245"/>
    <path fill="url(#linearGradient925)" stroke="#000" d="M129.343 226.997c8.832.495 12.73-4.196 14.28-8.881 5.087-15.377 7.397-23.34 15.452-33.21 5.451-6.681 12.574-5.965 14.105-2.349 4.582 1.318 9.122.698 13.335-1.15-1.405-6.991-7.075-15.092-13.957-16.276-7.684-1.321-15.75 1.55-21.551 7.059-8.959 8.506-12.468 20.81-17.325 31.06-7.005-1.302-3.876 19.9-4.34 23.747z"/>
    <path fill="url(#linearGradient933)" stroke="#000" d="M172.3 190.752c-1.8 4.934-6.392 12.263-16.636 15.018-10.046 2.702-18.98.22-24.905-5.237-.285.494-.53 1.018-.768 1.542-.81 2.051-1.373 5.242-1.359 10.318.003 1.18.052 2.332.117 3.463 5.738 5.624 18.3 7.917 25.523 5.716 14.5-4.417 31.922-13.045 33.318-33.327z"/>
    <path fill="url(#linearGradient981)" stroke="#000" d="M114.503 192.132s-2.644-3.09-4.832-3.084c-5.744.014-10.657 10.021-10.812 20.549-.152 10.39 3.264 21.642 8.55 21.132 2.694-.26 5.075-5.031 5.075-5.031"/>
    <path fill="url(#linearGradient973)" stroke="#000" d="M122.45 193.73c-.388-2.1-2.355-3.869-4.372-3.738-5.236.34-9.403 10.84-9.622 18.691-.322 11.506 2.334 23.458 7.85 23.014 4.493-.361 4.634-6.882 4.634-6.882"/>
    <path fill="url(#linearGradient965)" stroke="#000" stroke-linejoin="round" d="M133.834 202.895c1.94-9.814-3.236-12.492-6.599-12.097-7.016.826-8.654 11.692-9.102 18.85-.498 7.956.352 23.015 7.195 22.273 6.38-.693 3.33-9.423 3.303-19.528-.018-6.567.928-9.999 2.127-11.859.834.714 1.904 1.654 3.076 2.361z"/>
    <path fill="url(#linearGradient949)" stroke="#000" stroke-linejoin="round" d="M150.707 25.736c-16.724 2.9-32.99 10.546-47.03 20.512-13.504 9.587-22.492 18.066-29.874 21.624 1.046 1.018 2.602 3.204 2.602 3.204 14.314-8.474 29.992-25.112 56.923-32.419 8.671-2.352 18.363-3.733 26.566-3.155 8.93-1.098 18.146.215 26.605 3.761 26.927 11.288 52.853 36.364 54.242 67.606.6 13.51-3.727 25.563-16.37 43.198-12.811 17.871-28.128 32.92-51.97 32.07-7.34-.262-8.782 4.127-7.674 8.006 3.2 11.21 31.832 4.957 46.895-7.309 22.04-17.947 39.098-41.52 41.387-72.233 2.661-35.717-31.06-70.155-63.275-81.872-12.733-4.631-26.019-5.248-39.027-2.993z"/>
</svg>
