<svg xmlns="http://www.w3.org/2000/svg" xmlns:xlink="http://www.w3.org/1999/xlink" cursor="default" viewBox="0 0 256 256">
    <defs>
        <linearGradient id="innoGrad2">
            <stop offset="0" stop-color="#faa"/>
            <stop offset="1" stop-color="#ffd5d5"/>
        </linearGradient>
        <linearGradient id="innoGrad8">
            <stop offset="0" stop-color="#ffd5d5"/>
            <stop offset="1" stop-color="#ffd5d5" stop-opacity="0"/>
        </linearGradient>
        <linearGradient id="innoGrad10">
            <stop offset="0" stop-color="#ff8080"/>
            <stop offset="1" stop-color="#ffd5d5" stop-opacity="0"/>
        </linearGradient>
        <linearGradient id="innoGrad1">
            <stop offset="0" stop-color="#ff8080"/>
            <stop offset="1" stop-color="#faa"/>
        </linearGradient>
        <linearGradient id="innoGrad12">
            <stop offset="0" stop-color="#ff8080"/>
            <stop offset="1" stop-color="#faa"/>
        </linearGradient>
        <linearGradient id="innoGrad11">
            <stop offset="0" stop-color="#ff8080"/>
            <stop offset=".128" stop-color="#faa"/>
            <stop offset=".477" stop-color="#ffd5d5"/>
            <stop offset=".677" stop-color="#ffd5d5"/>
            <stop offset="1" stop-color="#faa"/>
        </linearGradient>
        <linearGradient id="linearGradient1197" x1="18.693" x2="195.207" y1="172.406" y2="172.406" gradientTransform="rotate(-4.218 218.652 -530.208) scale(.82732)" gradientUnits="userSpaceOnUse" xlink:href="#innoGrad11"/>
        <linearGradient id="linearGradient1211" x1="89.423" x2="86.741" y1="199.036" y2="249.543" gradientTransform="rotate(-4.218 218.652 -530.208) scale(.82732)" gradientUnits="userSpaceOnUse" xlink:href="#innoGrad12"/>
        <linearGradient id="linearGradient1299" x1="146.472" x2="233.345" y1="135.034" y2="123.923" gradientTransform="rotate(-4.218 218.652 -530.208) scale(.82732)" gradientUnits="userSpaceOnUse" xlink:href="#innoGrad1"/>
        <linearGradient id="linearGradient1307" x1="146.596" x2="170.043" y1="134.307" y2="106.275" gradientTransform="rotate(-4.218 218.652 -530.208) scale(.82732)" gradientUnits="userSpaceOnUse" xlink:href="#innoGrad1"/>
        <linearGradient id="linearGradient1315" x1="138.962" x2="175.518" y1="125.812" y2="95.649" gradientTransform="rotate(-4.218 218.652 -530.208) scale(.82732)" gradientUnits="userSpaceOnUse" xlink:href="#innoGrad10"/>
        <linearGradient id="linearGradient1325" x1="93.692" x2="128.542" y1="132.509" y2="206.755" gradientTransform="rotate(-4.218 218.652 -530.208) scale(.82732)" gradientUnits="userSpaceOnUse" xlink:href="#innoGrad10"/>
        <linearGradient id="linearGradient1349" x1="92.589" x2="131.161" y1="77.518" y2="91.268" gradientTransform="rotate(-4.218 218.652 -530.208) scale(.82732)" gradientUnits="userSpaceOnUse" xlink:href="#innoGrad8"/>
        <linearGradient id="linearGradient1357" x1="-33.214" x2="148.179" y1="187.786" y2="56.955" gradientTransform="rotate(-4.218 218.652 -530.208) scale(.82732)" gradientUnits="userSpaceOnUse" xlink:href="#innoGrad2"/>
        <linearGradient id="linearGradient1366" x1="61.009" x2="24.995" y1="130.044" y2="124.478" gradientTransform="rotate(-4.218 218.652 -530.208) scale(.82732)" gradientUnits="userSpaceOnUse" xlink:href="#innoGrad10"/>
        <linearGradient id="linearGradient1374" x1="22.35" x2="16.92" y1="183.016" y2="169.506" gradientTransform="rotate(-4.218 218.652 -530.208) scale(.82732)" gradientUnits="userSpaceOnUse" xlink:href="#innoGrad2"/>
        <linearGradient id="linearGradient1384" x1="113.099" x2="121.013" y1="119.766" y2="97.623" gradientTransform="rotate(-4.218 218.652 -530.208) scale(.82732)" gradientUnits="userSpaceOnUse" xlink:href="#innoGrad12"/>
        <linearGradient id="linearGradient1406" x1="123.993" x2="147.561" y1="132.338" y2="80.195" gradientTransform="rotate(-4.218 218.652 -530.208) scale(.82732)" gradientUnits="userSpaceOnUse" xlink:href="#innoGrad12"/>
        <linearGradient id="linearGradient1422" x1="165.708" x2="217.209" y1="135.151" y2="136.222" gradientTransform="rotate(-4.218 218.652 -530.208) scale(.82732)" gradientUnits="userSpaceOnUse" xlink:href="#innoGrad12"/>
        <linearGradient id="linearGradient1430" x1="183.301" x2="222.998" y1="144.626" y2="135.156" gradientTransform="rotate(-4.218 218.652 -530.208) scale(.82732)" gradientUnits="userSpaceOnUse" xlink:href="#innoGrad1"/>
        <linearGradient id="linearGradient1438" x1="182.691" x2="220.509" y1="144.796" y2="145.174" gradientTransform="rotate(-4.218 218.652 -530.208) scale(.82732)" gradientUnits="userSpaceOnUse" xlink:href="#innoGrad1"/>
        <linearGradient id="linearGradient1446" x1="194.151" x2="207.451" y1="157.743" y2="160.016" gradientTransform="rotate(-4.218 218.652 -530.208) scale(.82732)" gradientUnits="userSpaceOnUse" xlink:href="#innoGrad1"/>
        <linearGradient id="linearGradient1454" x1="243.068" x2="233.447" y1="107.381" y2="71.016" gradientTransform="rotate(-4.218 218.652 -530.208) scale(.82732)" gradientUnits="userSpaceOnUse" xlink:href="#innoGrad2"/>
        <linearGradient id="linearGradient1464" x1="98.571" x2="70.917" y1="120.569" y2="85.344" gradientTransform="rotate(-4.218 218.652 -530.208) scale(.82732)" gradientUnits="userSpaceOnUse" xlink:href="#innoGrad10"/>
        <linearGradient id="linearGradient1474" x1="89.732" x2="69.847" y1="120.911" y2="93.934" gradientTransform="rotate(-4.218 218.652 -530.208) scale(.82732)" gradientUnits="userSpaceOnUse" xlink:href="#innoGrad10"/>
        <linearGradient id="linearGradient1486" x1="110.422" x2="128.605" y1="48.614" y2="53.286" gradientTransform="rotate(-4.218 218.652 -530.208) scale(.82732)" gradientUnits="userSpaceOnUse" xlink:href="#innoGrad8"/>
        <linearGradient id="linearGradient1500" x1="24.894" x2="21.588" y1="134.949" y2="162.689" gradientUnits="userSpaceOnUse" xlink:href="#innoGrad10"/>
    </defs>
    <path fill="url(#linearGradient1211)" fill-rule="evenodd" stroke="#000" stroke-linecap="round" stroke-linejoin="round" stroke-width=".8" d="M68.076 173.488l.432 16.96c1.698 17.229 35.899 24.384 70.727 24.415 23.131.02 75.14-.646 75.413-18.307-.861-8.643-2.557-20.166-3.63-33.89z"/>
    <path fill="url(#linearGradient1446)" stroke="#000" stroke-width=".8" d="M209.772 140.62s2.183.199 3.088-.302c2.548-1.409 3.526-5.817 5.25-8.164 2.102-2.864 6.555-7.52 6.555-7.52-6.934 4.112-11.818 5.026-16.675 5.896z"/>
    <path fill="url(#linearGradient1197)" stroke="#000" stroke-width=".8" d="M68.483 190.323c2.491-10.808 40.349-16.692 64.735-17.032 38.777-.539 79.316 14.38 81.334 23.378l-5.733-66.35-26.53-27.373-78.258-1.559-38.156 36.544z"/>
    <path fill="url(#linearGradient1325)" d="M68.483 190.323c2.491-10.808 40.349-16.692 64.735-17.032 38.777-.539 79.316 14.38 81.334 23.378l-5.733-66.35-26.53-27.373-78.258-1.559-38.156 36.544z" opacity=".65"/>
    <path fill="url(#linearGradient1357)" d="M143.225 41.216c-2.36.198-4.694.555-6.669 1.116-5.946 2.709-11.425-.246-22.088 3.79-11.11 4.637-21.915 12.162-31.537 18.284-4.695 3.235-13.377 9.425-13.213 9.567l.05.03c-5.401 4.032-12.078 7.753-14.003 13.169-9.868 27.757-9.957 38.59-14.833 43.906-2.234 2.434-10.122 3.304-13.552 7.072-9.683 10.639-18.9 26.93-21.223 39.637-.848 4.641 5.415 8.117 11.965 7.562 11.14-.944 35.134-9.703 35.134-9.703 5.194-9.234 6.243-22.145 16.299-27.053 9.613-4.69 24.302-22.391 33.616-35.29 0 0 8.469.559 12.387-.767 2.737-.926 7.2-4.826 7.2-4.826-2.033-2.96-3.722-5.174-5.19-6.905 1.075 1.08 1.986 2.185 2.68 3.328 2.757 3.513 3.665 4.559 5.458 4.915 1.977.338 3.473.064 5.79-1.96-.663-2.748-2.637-5.33-4.497-7.507-11.579-14.15-16.256-20.444-15.962-25.674.258-4.6 1.461-4.458 4.826-.506 3.79 4.45 7.744 6.457 13.464 7.475 1.403.25 6.186 1.628 9.591 2.504 6.992 1.8 9.72 1.847 13.76 1.354 4.836-.59 5.317-2.13 7.306-8.177 2.498-7.597 4.42-10.326 7.65-10.565 3.75-.257 2.056 3.336.094 6.115-3.968 5.477-.199 10.46-.389 16.48-.78 2.451-3.196 4.418-5.854 10.472a63.83 63.83 0 0 1-2.817 4.791c-.97 1.464-3.013 3.46-3.716 3.753.332 3.096 3.54 5.188 7.185 5.128 2.906-.205 3.855-1.973 4.854-5.564 1.71-5.898 4.355-12.863 11.426-13.466 4.201-.45 7.793-.158 10.73 1.026 2.989 1.204 4.305 2.465 6.891 6.875 3.954 6.743 5.563 8.104 13.833 8.707 6.407.435 13.128.937 20.797-1.067 4.965-1.358 9.889-3.79 14.263-7.026 1.878-1.39 2.067-2.426 3.25-6.969.63-2.42.31-3.896-.505-6.713-2.007-6.745-7.43-8.674-11.918-13.72-3.714-5.967-.05-11.193-3.69-17.081-1.84-2.495-5.135-4.493-13.03-6.259-18.975-4.036-42.29-3.115-65.334-10.16-2.538-.32-6.545-.428-10.479-.098z"/>
    <path fill="url(#linearGradient1454)" d="M232.258 57.57c10.066 10.095 19.148 23.134 16.323 35.248 0 0-.935-5.774-2.37-7.995-1.233-1.907-3.26-3.162-4.857-4.775-2.262-2.284-5.349-4.023-6.693-6.943-1.325-2.88-.376-6.34-.907-9.465-.35-2.055-1.496-6.07-1.496-6.07z"/>
    <path fill="#ff8080" d="M47.106 182.138c1.571-3.092 3.164-5.331 5.185-7.658-2.945.706-3.649 2.597-14.15 3.253-2.153 5.592-6.203 14.098-15.39 14.319.01 5.443 4.076 4.658 11.937 3.48 3.87-.578 6.89-4.592 8.781-7.162 1.43-1.942 2.592-4.177 3.637-6.232z"/>
    <path fill="url(#linearGradient1366)" fill-rule="evenodd" d="M72.612 122.706c3.776-2.056 6.609-3.77 11.43-6.048 6.657-2.416 12.561-3.632 19.123-3.514-4.885 7.586-10.376 14.45-15.76 20.055-1.658 1.723-4.985 5.23-6.417 6.906-4.041 4.731-5.899 5.79-14.471 10.152-5.965 4.792-6.885 8.606-24.106 12.517 7.78-12.307 26.815-35.986 30.201-40.068z"/>
    <path fill="#ff8080" d="M43.404 188.486s4.997 1.895 11.721.887c4.75-.713 8.939-2.787 11.6-5.834.485-.548 1.356-1.728 1.356-1.728l-1.559-27.142c-5.869 14.54-18.997 21.394-23.118 33.817z"/>
    <path fill="#ff8080" fill-rule="evenodd" d="M22.553 192.193c-3.222.291-5.754-6.238-3.697-7.01 5.857-3.845 5.98-6.951 17.62-7.354 1.452.175 1.361 1.444.92 1.898-2.488 5.073-5.312 10.083-10.91 12.063-.929.27-3.23.497-3.933.403z"/>
    <path fill="url(#linearGradient1438)" fill-rule="evenodd" d="M207.957 130.745c-2.901-.98-5.41-3.669-6.6-6.223 3.435-1.181 7.797-2.638 10.499-3.331 15.57-4.771 12.876-5.205 23.556-9.34 2.65-1.37 5.85-3.532 5.865-3.519-4.948 8.49-14.309 15.445-22.202 19.847-4.277 1.616-7.189 3.019-11.118 2.566z"/>
    <path fill="url(#linearGradient1430)" fill-rule="evenodd" d="M200.17 124.41c-1.21-.482-1.869-1.718-2.49-2.633 3.096-.755 6.14-2.133 8.162-3.064 3.186-1.468 3.55-1.75 4.897-2.23 2.754.092 6.235-.03 8.735-.232 2.44-.213 6.961-1.428 8.313-1.473.25 1.025-5.437 2.872-6.724 3.39-5.407 2.487-10.885 3.344-15.55 4.866-.786.26-2.375.771-2.911.955-.925.339-1.623.707-2.432.422z"/>
    <path fill="url(#linearGradient1422)" fill-rule="evenodd" d="M193.015 122.039c-4.977-.803-11.776-2.343-13.338-7.76 1.806-1.128 5.309-2.617 7.557-2.796 5.327-.151 9.343 2.388 14.12 3.654 3.388 1 7.133.764 9.941 1.21-8.284 3.758-10.215 5.892-18.28 5.692z"/>
    <path fill="url(#linearGradient1299)" fill-rule="evenodd" d="M211.256 116.137c-8.092.082-12.803-2.06-18.25-3.864-5.88-2.1-9.171.387-15.21 2.625-3.066.717-8.19 1.3-7.08-2.885 1.49-1.316 2.775-2.418 4.423-3.529 6.446-3.852 10.817-4.718 17.687-1.325 3.491 2.228 7.967 2.684 10.98 2.834 7.064.358 15.404 1.1 21.627.233 7.65-1.097 12.916-3.688 18.65-7.733.732-.516 2.34-1.336.802 1.313-2.163 3.353-5.404 5.563-8.386 7.34-7.528 4.004-17.457 5.337-25.243 4.99z"/>
    <path fill="url(#linearGradient1307)" fill-rule="evenodd" d="M166.15 109.972c.763-4.815 2.895-10.552 6.193-13.79 2.341-2.309 6.958-3.248 12.318-2.709 3.36.338 6.222 1.422 8.523 4.027 4.247 6.65 4.813 8.87 10.398 11.991-3.753.832-8.312-1.182-10.504-2.316-3.212-1.492-6.112-2.72-9.64-2.032-4.688.73-7.506 2.41-10.677 5.265-.592.536-1.902 1.67-1.979 1.73-1.905.846-4.044-.531-4.632-2.166z"/>
    <path fill="url(#linearGradient1374)" d="M50.26 160.557s4.13-.412 5.513 2.316c2.217 4.372-2.009 9.68-2.009 9.68s4.379-4.165 6.118-6.526c4.154-5.641 5.332-9.69 10.11-17.715-7.866 3.129-10.29 10.745-19.732 12.245z"/>
    <path fill="url(#linearGradient1406)" d="M144.822 106.234c-.27 6.103 7.17 3.122 10.282 1.65 4.224-1.996 5.699-9.803 12.14-18.597.618-1.363-.774-7.196-1.35-11.214-.677-4.716 4.816-7.255 4.097-11.196-.648-2.501-4.865-.451-6.27 1.615-3.765 5.844-6.191 15.208-8.45 21.783-3.812 11.097-10.45 15.96-10.45 15.96z"/>
    <path fill="url(#linearGradient1315)" d="M154.835 107.787c1.014 5.18 8.511 6.119 11.379 2.642 3.364-19.537 14.639-20.162 26.947-13.247L177.242 82.21s-4.728 1.708-8.555 5.52c-8.137 9.508-6.657 15.234-13.852 20.057z"/>
    <path fill="url(#linearGradient1384)" d="M112.355 70.815c-2.645.692-1.287 5.39-.265 7.77 5.296 12.331 13.045 15.466 19.342 28.483 0 0 1.221 1.632 2.315 1.653 3.017.056 4.789-2.158 4.789-2.158s.192 1.121 1.094 1.385c1.692.495 4.13-.575 5.509-1.675 9.372-7.481 12.5-22.621 12.6-23.722 0 0-.973 2.58-9.863 2.613-4.913.018-11.1-2.227-15.861-3.44-3.63-.923-7.521-1.279-10.807-3.078-3.456-1.892-7.252-8.25-8.853-7.831z"/>
    <path fill="url(#linearGradient1464)" d="M105.412 92.471s6.391 3.429 8.923 5.49c3.475 2.83 8.343 9.68 8.343 9.68s2.856 2 5.445 1.524c1.91-.351 3.39-2.25 3.39-2.25-2.526-6.93-10.133-11.986-17.61-24.847z"/>
    <path fill="url(#linearGradient1474)" d="M91.48 114.46c4.543-1.034 8.006-1.288 13.26-.978 11.017 1.012 14.861-2.582 17.985-6.215-3.959-4.824-5.811-9.48-16.527-14.187L77.06 119.82s10.87-4.551 14.419-5.36z"/>
    <path fill="url(#linearGradient1486)" d="M106.304 49.84s9.408-2.88 12.822-2.255c7.946 1.455 9.533 5.174 14.21 7.331 4.271 1.97 12.58 5.095 12.58 5.095l2.868-11.524c-19.124-9.474-32.852-3.794-42.48 1.353z"/>
    <path fill="url(#linearGradient1500)" d="M28.84 136.848c5.33-3.286 8.97-2.352 13.303-7.053-2.31 7.155-6.812 15.584-16.473 27.009l-13.215 4.017c4.497-8.848 9.75-17.025 16.384-23.973z"/>
    <path fill="none" stroke="#000" stroke-width=".8" d="M131.463 106.905c2.76 4.012 7.062-.562 7.262-.954 0 0 .07 1.304.54 1.636 1.546 1.092 4.2-.024 5.773-1.264 0 0 .037 2.073.72 2.67 2.47 2.159 9.018-1.294 9.018-1.294 1.143 6.009 9.912 6.028 11.482 2.296.17 2.016 2.562 3.038 4.352 2.193 0 0-.779 2.349 1.618 2.863 2.723.585 7.542-.815 7.542-.815 1.064 6.502 12.673 8.423 17.94 7.475.77 1.47 1.98 2.987 3.769 2.643.714 2.343 3.83 6.076 7.435 6.534 0 0 6.555-.798 9.815-2.557 10.5-5.667 20.023-14.251 26.052-24.548 2.927-4.998 4.31-11.07 4.203-16.86-.075-4.056-1.613-8.04-3.377-11.693-2.337-4.84-5.841-9.064-9.349-13.137-2.317-2.69-4.605-5.599-7.668-7.395-3.347-1.963-7.375-2.44-11.143-3.368-3.641-.897-7.342-1.553-11.05-2.118-12.612-1.921-25.434-2.28-38.028-4.317-6.44-1.042-12.643-3.598-19.152-4.034-2.502-.168-5.026.154-7.501.553-3.21.517-5.8 1.067-9.462 2.374-6.764-.78-10.729.344-15.547 1.763-7.022 2.067-12.89 5.94-19.23 9.602-10.487 6.057-20.361 13.179-29.9 20.641-3.445 2.695-7.346 5.09-9.834 8.687-3.935 5.688-5.149 12.847-7.368 19.398-2.009 5.93-3.288 12.093-5.377 17.995-1.039 2.936-1.458 6.336-3.552 8.642-3.271 3.6-9.175 3.694-12.905 6.818-4.612 3.861-7.821 9.184-11.101 14.226-2.698 4.146-5.147 8.499-6.996 13.086-1.828 4.537-4.423 9.25-3.986 14.121.134 1.494.838 3.065 1.974 4.045 2.272 1.96 6.78 2.949 9.964 2.394-.625 4.023.91 6.515 4.29 6.962.011 5.444 4.077 4.658 11.938 3.481 3.87-.58 6.844-4.626 8.781-7.162 0 0 4.996 1.893 11.721.885 4.75-.712 8.938-2.786 11.6-5.833.485-.548 1.355-1.727 1.355-1.727l-1.558-27.143s1.938-4.517 3.533-6.334c3.23-1.474 5.248-2.842 7.084-4.374 3.01-2.514 4.511-5.15 7.265-7.943 3.717-3.77 7.332-7.655 10.688-11.75 2.878-3.512 8.08-10.966 8.08-10.966 7.242.323 12.87 1.115 19.558-5.961 3.396 3.222 6.72 1.895 8.733-.436z"/>
    <path d="M166.617 91.08c.222-.34.444-.678.67-1.014 1.846-2.766 4.368-4.687 6.503-5.965 2.097-1.256 3.605-1.821 3.605-1.821s-1.572.346-3.822 1.415c-2.279 1.082-5.073 2.895-7.105 5.813-.234.338-.464.68-.689 1.025-2.65 4.06-4.998 8.638-5.783 10.23-1.967 3.991-3.97 5.804-5.414 6.461l.415.91c1.75-.796 3.863-2.805 5.896-6.928.771-1.564 3.115-6.128 5.724-10.127z"/>
    <path fill="url(#linearGradient1349)" d="M112.734 70.488c7.468 7.031 6.916 8.813 16.374 10.875 5.444.689 11.464 3.097 16.24 3.62 3.852.422 6.478-.099 10.251-.913l-7.148-4.605c-13.993-.506-20.6-11.083-35.717-8.977z"/>
    <path fill="none" stroke="#000" stroke-width=".8" d="M131.403 106.793s-1.067-2.732-1.889-3.878c-4.201-5.862-9.463-10.964-13.26-17.095-1.98-3.195-4.317-6.443-4.897-10.156-.288-1.842-.624-3.612.718-4.906 1.206-1.163 2.95 2.005 4.13 3.318 4.845 5.392 8.99 6.6 14.048 7.355 5.432.811 8.901 2.73 15.227 3.593 2.515.344 7.554.05 9.917-.875 3.532-1.382 4.312-7.694 5.909-11.133 1.387-2.988 2.967-6.811 6.513-7.137 3.512-.322 2.356 2.558 1.149 4.571-1.746 2.912-3.363 3.974-2.974 8.886.24 3.043 1.92 6.662 1.11 10.066"/>
    <path fill="none" stroke="#000" stroke-width=".8" d="M138.668 106.017s.308-3.127.137-4.677c-.264-2.386-.755-4.806-1.774-6.98-1.55-3.303-6.431-8.858-6.431-8.858m14.495 20.781c3.66-3.38 7.446-8.671 9.185-13.047.603-1.518 2.847-8.944 4.218-12.568m7.694 29.466s1.038-4.657 2.016-6.815c1.264-2.79 2.386-6.03 4.908-7.769 2.901-2 6.846-2.327 10.363-2.098 4.381.286 9.08 1.526 11.82 6.932 2.75 5.423 5.329 8.806 11.253 9.738"/>
    <path fill="none" stroke="#000" stroke-width=".8" d="M170.639 112.176s3.55-3.477 5.736-4.571c3.18-1.59 6.774-2.938 10.32-2.687 3.69.261 7.285 3.436 10.874 4.34 2.81.706 5.76.67 8.654.842 6.173.368 11.672 1.174 18.74.186 8.813-1.233 14.245-3.765 21.288-9.317"/>
    <path fill="none" stroke="#000" stroke-width=".8" d="M179.68 114.262c4.418-1.79 6.969-3.843 12.442-2.041 4.32 1.422 8.636 3.108 13.155 3.621 4.7.534 9.642.777 14.35.329 4.67-.444 9.04-1.584 13.412-3.283 7.24-2.814 10.772-7.504 12.897-11.323"/>
    <path fill="none" stroke="#000" stroke-width=".8" d="M197.761 121.707s3.02-.716 4.463-1.272c1.91-.735 5.587-2.572 7.478-3.354.59-.243 2.066-.754 2.066-.754m-10.402 8.1s4.04-1.398 6.084-2.02c3.65-1.113 8.149-2.004 11.032-3.064 4.329-1.592 13.677-6.13 13.677-6.13"/>
    <path d="M103.181 112.902l-.056-.001-.157-.003a85.016 85.016 0 0 0-2.497-.011c-1.504.014-3.298.07-4.526.252-2.862.425-5.654 1.191-8.398 2.064-1.036.329-2.063.68-3.069 1.033-2.939 1.034-5.758 2.748-7.716 3.926a376.65 376.65 0 0 0-4.43 2.822c.02-.01 1.874-.982 4.626-2.48 2.005-1.038 4.939-2.621 7.766-3.544 1.012-.332 2.037-.668 3.065-.995 2.724-.866 5.475-1.619 8.273-2.035 1.137-.168 2.927-.229 4.416-.243a97.148 97.148 0 0 1 2.63.014h.053zm19.958-5.654l-.05-.067a61.163 61.163 0 0 0-.66-.894 110.635 110.635 0 0 0-1.786-2.322c-1.439-1.819-3.255-3.99-4.81-5.433a14.223 14.223 0 0 0-.546-.483c-2.178-1.82-4.825-3.154-6.766-4.131a239.335 239.335 0 0 0-4.337-2.023 241.75 241.75 0 0 0 4.125 2.416c1.842 1.112 4.42 2.603 6.464 4.347.175.149.346.303.516.46 1.488 1.382 3.299 3.539 4.726 5.343a109.933 109.933 0 0 1 2.428 3.19l.047.066z"/>
    <path fill="none" stroke="#000" stroke-width=".8" d="M66.533 154.624s-1.992 4.5-4.57 8.467c-3.644 5.607-7.233 10.018-12.496 12.583-3.234 1.575-7.331 2.222-11.447 2.127-3.273-.076-5.659.386-8.97 1.237-6.012 1.546-6.793 5.409-10.906 6.226"/>
    <path fill="none" stroke="#000" stroke-width=".8" d="M43.366 188.551c1.548-2.145 2.7-4.38 3.674-6.298 1.92-3.78 3.833-6.273 6.578-9.226M22.477 192.13c1.7.27 4.45-.449 5.976-1.316 4.925-2.8 8.065-8.503 9.481-13.088"/>
    <path fill="none" stroke="#000" stroke-linecap="round" stroke-width=".8" d="M70.215 148.257c-6.217 2.92-7.356 5.202-12.513 9.339-1.476 1.184-4.194 2.46-7.975 3.183"/>
    <path d="M112.55 70.919c5.925-1.113 11.589.182 16.996 2.747.784.372 1.538.747 2.276 1.12 4.254 2.152 7.906 3.572 11.458 4.28 3.26.65 5.49.479 5.49.479s-2.235-.032-5.4-.865c-3.54-.932-6.879-2.441-11.188-4.61-.74-.373-1.501-.75-2.293-1.126-5.51-2.614-11.36-3.962-17.487-2.811zm-5.621-20.745c.046-.018.021-.009.067-.025l.204-.074a37.822 37.822 0 0 1 3.525-1.048c2.256-.562 5.219-1.092 8.015-.984 3.541.137 6.09 1.66 9.587 4.115l.757.534c3.69 2.604 8.065 4.301 11.303 5.528a110.679 110.679 0 0 0 6.342 2.185l.404.122.106.032a.31.31 0 0 1 .039.011s-.017-.005-.038-.014l-.104-.04a146.233 146.233 0 0 1-1.834-.72 165.51 165.51 0 0 1-4.75-1.983c-3.156-1.38-7.455-3.233-11.006-5.772-.252-.18-.505-.359-.76-.537-3.52-2.472-6.258-4.115-10.015-4.26-2.918-.113-5.94.434-8.24 1.006-1.15.287-2.118.58-2.801.801a31.845 31.845 0 0 0-1.01.347l-.076.028zm25.227-6.007l.048.006.14.018a119.18 119.18 0 0 1 2.212.297c1.328.19 2.915.441 3.91.672.518.12 1.037.255 1.552.403l-.04-.015c4.507 1.829 9.21 3.31 9.251 3.323-.038-.019-4.408-2.22-8.95-4.063l-.04-.014a31.96 31.96 0 0 0-1.592-.414c-1.052-.243-2.641-.492-3.978-.683a137.408 137.408 0 0 0-2.366-.318l-.05-.006z"/>
    <path fill="none" stroke="#000" stroke-width=".8" d="M230.647 56.123c4.142 3.83 3.17 9.384 3.401 13.97.728 7.259 8.053 9.076 11.463 13.82 1.953 2.717 2.982 6.306 2.977 9.475"/>
    <path d="M47.944 176.775c4.88-2.08 8.63-6.279 8.75-10.566.106-3.752-1.436-5.108-4.106-5.77a12.013 12.013 0 0 0 0 .001c-.62-.154-1.339-.177-2.114-.126-2.074.14-4.05.787-5.535 1.331a97.845 97.845 0 0 0-2.838 1.19c.022-.005 1.235-.295 2.972-.769 1.53-.363 3.511-.829 5.454-.954.724-.048 1.374-.018 1.869.104 2.53.627 3.6 1.413 3.499 4.97-.108 3.827-3.609 7.868-8.265 9.853zm-5.094-49.382l-.03.08a97.406 97.406 0 0 1-.423 1.09c-.285.724-.683 1.724-1.14 2.828-.913 2.208-2.062 4.837-2.974 6.476a134.836 134.836 0 0 1-2.183 3.78c-4.758 7.927-10.483 15.234-10.483 15.234s6.348-6.79 11.169-14.822c.743-1.24 1.472-2.503 2.196-3.803.95-1.706 2.097-4.34 3.015-6.56a174.753 174.753 0 0 0 1.57-3.937l.031-.082z"/>
</svg>
