<svg xmlns="http://www.w3.org/2000/svg" xmlns:xlink="http://www.w3.org/1999/xlink" cursor="default" viewBox="0 0 256 256">
    <defs>
        <linearGradient id="innoGrad5">
            <stop offset="0" stop-color="#f95"/>
            <stop offset=".2" stop-color="#ffb380"/>
            <stop offset="1" stop-color="#fca"/>
        </linearGradient>
        <linearGradient id="innoGrad6">
            <stop offset="0" stop-color="#f95"/>
            <stop offset="1" stop-color="#fca"/>
        </linearGradient>
        <linearGradient id="innoGrad4">
            <stop offset="0" stop-color="#ffb380"/>
            <stop offset="1" stop-color="#ffe6d5"/>
        </linearGradient>
        <linearGradient id="innoGrad2">
            <stop offset="0" stop-color="#faa"/>
            <stop offset="1" stop-color="#ffd5d5"/>
        </linearGradient>
        <linearGradient id="innoGrad1">
            <stop offset="0" stop-color="#faa"/>
            <stop offset="1" stop-color="#ffd5d5" stop-opacity="0"/>
        </linearGradient>
        <linearGradient id="innoGrad3">
            <stop offset="0" stop-color="#ff8080"/>
            <stop offset=".196" stop-color="#faa"/>
            <stop offset="1" stop-color="#ffd5d5"/>
        </linearGradient>
        <linearGradient id="linearGradient878" x1="272.886" x2="21.321" y1="281.979" y2="271.395" gradientTransform="translate(100.103 91.753) scale(.3253)" gradientUnits="userSpaceOnUse" xlink:href="#innoGrad3"/>
        <linearGradient id="linearGradient888" x1="180.068" x2="183.864" y1="84.068" y2="-4.881" gradientTransform="translate(100.103 91.753) scale(.3253)" gradientUnits="userSpaceOnUse" xlink:href="#innoGrad1"/>
        <linearGradient id="linearGradient896" x1="235.479" x2="318.318" y1="142.479" y2="134.042" gradientTransform="translate(100.103 91.753) scale(.3253)" gradientUnits="userSpaceOnUse" xlink:href="#innoGrad2"/>
        <linearGradient id="linearGradient904" x1="292.889" x2="336.46" y1="39.682" y2="22.808" gradientTransform="translate(100.103 91.753) scale(.3253)" gradientUnits="userSpaceOnUse" xlink:href="#innoGrad1"/>
        <linearGradient id="linearGradient915" x1="-209.332" x2="31.415" y1="138.778" y2="136.609" gradientTransform="translate(100.103 91.753) scale(.3253)" gradientUnits="userSpaceOnUse" xlink:href="#innoGrad2"/>
        <linearGradient id="linearGradient923" x1="-94.873" x2="-164.653" y1="66.949" y2="61.526" gradientTransform="translate(100.103 91.753) scale(.3253)" gradientUnits="userSpaceOnUse" xlink:href="#innoGrad2"/>
        <linearGradient id="linearGradient931" x1="194.357" x2="202.261" y1="24.469" y2="-77.133" gradientTransform="translate(100.103 91.753) scale(.3253)" gradientUnits="userSpaceOnUse" xlink:href="#innoGrad4"/>
        <linearGradient id="linearGradient939" x1="296.373" x2="312.431" y1="-21.981" y2="-31.381" gradientTransform="translate(100.103 91.753) scale(.3253)" gradientUnits="userSpaceOnUse" xlink:href="#innoGrad4"/>
        <linearGradient id="linearGradient947" x1="-92.089" x2="-172.067" y1="281.495" y2="234.323" gradientTransform="translate(100.103 91.753) scale(.3253)" gradientUnits="userSpaceOnUse" xlink:href="#innoGrad4"/>
        <linearGradient id="linearGradient961" x1="289.166" x2="378.822" y1="296.223" y2="208.015" gradientTransform="translate(100.103 91.753) scale(.3253)" gradientUnits="userSpaceOnUse" xlink:href="#innoGrad4"/>
        <linearGradient id="linearGradient969" x1="68.289" x2="211.654" y1="-154.953" y2="-269.241" gradientTransform="translate(100.103 91.753) scale(.3253)" gradientUnits="userSpaceOnUse" xlink:href="#innoGrad4"/>
        <linearGradient id="linearGradient977" x1="159.234" x2="-14.815" y1="-269.702" y2="-148.127" gradientTransform="translate(100.103 91.753) scale(.3253)" gradientUnits="userSpaceOnUse" xlink:href="#innoGrad6"/>
        <linearGradient id="linearGradient985" x1="6.787" x2="56.031" y1="-176.701" y2="-198.561" gradientTransform="translate(100.103 91.753) scale(.3253)" gradientUnits="userSpaceOnUse" xlink:href="#innoGrad4"/>
        <linearGradient id="linearGradient1001" x1="61.657" x2="103.988" y1="239.619" y2="246.155" gradientUnits="userSpaceOnUse" xlink:href="#innoGrad5"/>
        <linearGradient id="linearGradient1009" x1="188.08" x2="120.486" y1="235.585" y2="245.619" gradientUnits="userSpaceOnUse" xlink:href="#innoGrad5"/>
    </defs>
    <path fill="#f55" stroke="#000" stroke-width=".4" d="M98.339 32.297l6.351-15.35 23.377-6.792 17.996 3-19.319 29.022-25.23 2.293z"/>
    <path fill="#ffb380" stroke="#000" stroke-linecap="round" stroke-linejoin="round" stroke-width=".4" d="M41.264 153.768c-.007-.099.135-.7.93-.712.86-.015 2.284-.234 2.284-.234l.125 4.21-3.181-1.435c-.071-.572-.308-.813-.158-1.829z"/>
    <path fill="url(#linearGradient977)" stroke="#000" stroke-linecap="round" stroke-linejoin="round" stroke-width=".4" d="M100.04 22.828c.34-1.305.773-2.584 1.186-3.868.618-1.921.682-3.413 1.757-5.12 1.342-2.132 3.748-3.272 5.942-4.39 3.89-1.984 8.581-3.328 12.49-3.955 8.013-1.287 16.815-1.566 23.082.668 1.106.821 3.707 7.63 1.58 9.016 0 0-7.819-1.392-10.864-1.407-9.197-.046-18.54 2.264-23.554 3.97-5.014 1.704-5.083 1.87-6.969 3.704-2.489 2.421-3.054 5.451-3.402 8.867l-2.869.062s.974-5.057 1.622-7.547z"/>
    <path fill="url(#linearGradient923)" stroke="#000" stroke-linecap="round" stroke-linejoin="round" stroke-width=".4" d="M62.48 48.175s-2.765 5.788-3.733 8.835c-2.178 6.857-3.243 14.022-4.616 21.084-1.585 8.157-2.999 16.35-4.18 24.576-1.32 9.201-3.243 27.696-3.243 27.696l-3.768 27.636 31.316 10.277-.351-33.422-9.738-87.244c-.563.187-1.095-.68-1.687.562z"/>
    <path fill="url(#linearGradient985)" stroke="#000" stroke-linecap="round" stroke-linejoin="round" stroke-width=".4" d="M110.16 38.869s.294-2.82.048-3.878c-.42-1.812-.939-3.155-2.557-4.246-2.63-1.772-5.457-.916-7.174-2.495-1.579-1.531-.174-6.687.125-7.356-.576 1.492-1.136 2.973-1.66 4.141l-2.582 4.654 8.047 10.979z"/>
    <path fill="url(#linearGradient896)" stroke="#000" stroke-linecap="round" stroke-linejoin="round" stroke-width=".4" d="M184.78 37.611l-8.202 26.635-4.242 38.3-1.747 46.408 11.113 8.166 2.76 7.815 41.372-11.81-2.599-18.018-4.373-19.95.257-.136s-3.622-16.5-5.864-24.639c-1.273-4.622-4.304-13.723-4.304-13.723l-.044.01c-.971-3.312-1.996-6.623-2.887-9.055-3.36-9.168-8.06-18.82-13.723-27.695-.46-.721-1.86-1.654-2.215-1.536z"/>
    <path fill="url(#linearGradient947)" stroke="#000" stroke-linecap="round" stroke-linejoin="round" stroke-width=".4" d="M72.58 184.026s-1.623 7.141-3.092 10.289c-.197.42-.646.664-1.27.575-2.002-.286-6.42-1.102-8.958-1.602-4.27-.84-8.652-1.413-12.703-2.999-1.447-.566-2.636-1.668-4.058-2.294-2.264-.995-7.057-2.293-7.057-2.293-.675-.22-1.09-.778-.882-2.117.124-.799 2.002-7.01 3.087-10.498 1.09-3.5 1.993-7.067 2.647-10.674.36-1.994.358-5.146.97-8.645-.09.512.307.942.906 1.266 1.474.798 2.89 1.307 4.387 1.822 3.144 1.08 6.446 1.641 9.615 2.646 4.469 1.417 8.739 3.429 13.232 4.764 1.391.413 2.529.177 3.882-.353z"/>
    <path d="M74.724 154.966c.097.18.243.334.36.44.104.104.192.158.192.158s.001-.103-.028-.247a1.83 1.83 0 0 0-.172-.54c-.941-1.75-3.396-6.414-4.35-9.133l-.03-.085c-2.291-6.524-4.309-12.538-5.363-18.837-.763-4.544-.651-9.962-.739-13.668-.217-9.312-1.792-15.249-1.792-15.249s1.473 5.96 1.59 15.253c.047 3.708-.117 9.113.62 13.716 1.015 6.333 3.015 12.398 5.306 18.918l.03.085c.978 2.785 3.431 7.434 4.376 9.19z"/>
    <path fill="url(#linearGradient915)" stroke="#000" stroke-linecap="round" stroke-linejoin="round" stroke-width=".4" d="M110.16 38.869s-2.484-.012-3.661-.353c-1.567-.454-3.201-1.065-4.367-2.206-.917-.897-1.498-2.151-1.808-3.396-.193-.77.176-1.608 0-2.382-.287-1.256-1.09-2.287-1.365-3.547-.162-.747.356-2.917.356-2.917s-5.025 3.482-7.328 4.7c-3.494 1.849-7.342 3.001-10.762 4.984-3.275 1.899-6.218 4.322-9.262 6.572-2.656 1.963-7.851 6.043-7.851 6.043-.647.498-1.248.979-1.632 1.808.167-.407.801-.285.661.574-.367 2.26-1.014 6.792-1.014 6.792s-1.674 6.686-1.72 10.1c-.114 8.383 1.407 15.861 3.549 24.897 1.124 4.776 2.27 9.551 3.15 14.378.723 3.969 1.209 7.978 1.746 11.976.79 6.428 1.62 11.45 2.308 17.778.632 5.812.965 11.63.936 17.465 0 0-.071 8.276-.063 12.414.44 10.634-1.034 20.063-1.06 31.001-.026 10.984-.727 23.267-.25 33.31.079 1.649.504 3.276.5 4.927-.002.586-.244 1.164-.188 1.747.055.563.5 1.622.5 1.622-.397 5.815 18.961 7.625 25.153 7.63l12.397-104.19z"/>
    <path fill="url(#linearGradient1001)" stroke="#000" stroke-width=".4" d="M71.535 237.155s-.395.897-.5 1.373c-.214.978-.182 2.319-.182 2.892 0 .452.663 1.03 1.118 1.35 4.195 3.208 10.016 3.686 14.659 4.18 2.311.244 6.97.217 6.97.217l.599-4.118c-3.348-.148-9.323-.495-12.809-1.215-2.447-.505-4.931-1.15-7.111-2.37-1.043-.584-2.744-2.309-2.744-2.309z"/>
    <path fill="url(#linearGradient878)" stroke="#000" stroke-linecap="round" stroke-linejoin="round" stroke-width=".4" d="M100.28 40.677c1.316-1.243 3.68-1.357 6.395-1.588 2.709-.23 5.367-.344 8.072-.617 2.824-.286 8.468-.882 8.468-.882l15.614-9.969 11.466-11.687s.696.883 1.325 1.289c7.276 4.684 16.39 7.458 23.113 11.192 5.333 2.962 15.35 9.968 15.35 9.968-3.47.144-5.95 5.207-7.022 7.991-1.859 4.902-2.417 10.528-3.343 15.688-.926 5.162-1.128 10.2-1.81 15.4-.844 6.445-1.357 12.93-1.892 19.407-.304 3.676-.67 7.353-.748 11.041-.122 5.73-.026 11.476.435 17.188.4 4.97 1.383 9.843 2.023 14.82.38 2.955.755 5.987 1.33 8.91.559 2.847 2.646 8.292 2.646 8.292s-.47 4.021.088 5.91c2.198 7.446 3.843 15.429 4.764 22.495 1.893 14.54 1.842 31.452 1.374 44.13-.033.848-.243 2.536-.243 2.536-36.808 11.906-71.272 14.834-94.26 10.263-.6-1.266-.523-2.052-.82-4.176-1.276-9.116.392-48.808.265-69.513-.091-14.698-.96-29.482-.53-44.108.447-15.198 1.368-27.554 2.117-42.784.448-9.098 1.448-19.176 2.78-27.479.476-2.971 1.37-12.136 3.043-13.717z"/>
    <path d="M175.77 127.846l-.017.11-.05.306c-.042.26-.103.625-.177 1.045-.21 1.205-.406 2.364-.708 3.505-.652 2.457-1.606 5.106-2.225 6.87a589.247 589.247 0 0 0-1.477 4.118c.008-.02.669-1.618 1.651-4.052.694-1.768 1.707-4.336 2.41-6.838.325-1.157.534-2.332.743-3.534a103.161 103.161 0 0 0 .228-1.357l.017-.11z"/>
    <path fill="url(#linearGradient969)" stroke="#000" stroke-linecap="round" stroke-linejoin="round" stroke-width=".4" d="M123.215 37.59s-1.46-3.458-1.244-5.24c.172-1.428.773-2.514 2.556-3.065 3.915-1.21 9.13-3.35 12.684-6.168 3.743-2.969 6.718-6.073 7.92-10.21.631-2.168.627-5.412-.634-6.744.935.319 3.37 3.581 4.412 6.202a354.51 354.51 0 0 1 1.386 3.569c.054 1.53-.606 3.915-2.053 5.961-4.447 6.292-6.893 8.598-13.81 12.114-3.591 1.825-7.3 2.644-11.217 3.58z"/>
    <path d="M176.075 94.704l.071-.165.196-.457c.167-.39.4-.94.664-1.577a104.652 104.652 0 0 0 1.69-4.306c.179-.496.351-.995.505-1.502 1.567-5.165 2.533-10.224 3.175-14.635.373-2.556.54-5.387.647-7.084.145-2.658.228-4.266.229-4.287-.002.021-.13 1.627-.336 4.28-.145 1.679-.374 4.534-.785 7.053-.717 4.398-1.74 9.415-3.311 14.557-.152.497-.323.99-.5 1.483a103.62 103.62 0 0 1-1.684 4.288 165.879 165.879 0 0 1-.857 2.029l-.07.163z"/>
    <path fill="url(#linearGradient888)" stroke="#000" stroke-linecap="round" stroke-linejoin="round" stroke-width=".4" d="M139.947 89.368l-1.03 24.968c-.072 1.762 4.943 5.562 6.176 5.558l24.259-.089c1.435-.006 4.551-4.3 4.675-5.557l2.379-24.193-18.522-5.447z"/>
    <path fill="url(#linearGradient931)" stroke="#000" stroke-linecap="round" stroke-linejoin="round" stroke-width=".4" d="M140.025 77.688l-.312 11.634s7.339.276 11.01.374c7.535.2 15.072.433 22.61.437 1.134 0 3.4-.063 3.4-.063l1.342-12.007s-10.271-.224-15.408-.281c-7.547-.084-22.642-.094-22.642-.094z"/>
    <path fill="url(#linearGradient904)" stroke="#000" stroke-linecap="round" stroke-linejoin="round" stroke-width=".4" d="M192.796 81.462s5.46-1.923 8.233-2.744c2.616-.775 7.922-2.059 7.922-2.059s3.031 9.101 4.304 13.723c2.242 8.14 5.864 24.64 5.864 24.64s-2.125 1.162-3.244 1.62c-2.558 1.05-7.041 2.32-9.007 2.953-1 .322-1.29-.193-1.532-.95a712.595 712.595 0 0 0-3.121-9.425c-2.082-6.12-4.451-12.141-6.488-18.277-1.042-3.14-2.931-9.48-2.931-9.48z"/>
    <path fill="url(#linearGradient939)" stroke="#000" stroke-linecap="round" stroke-linejoin="round" stroke-width=".4" d="M195.15 80.37l1.918 6.441c.164.55.58.46.983.312l2.37-.873c.348-.128.702-.366.577-.765l-1.996-6.393z"/>
    <path fill="#f95" stroke="#000" stroke-width=".4" d="M231.073 182.158c-1.813 1.183-8.521 2.801-12.794 4.155-8.078 2.56-23.218 7.172-24.703 6.772l-.22-2.17 35.186-12.339z"/>
    <path fill="url(#linearGradient961)" stroke="#000" stroke-linecap="round" stroke-linejoin="round" stroke-width=".4" d="M183.378 164.266c-.187-.77.63-1.519 1.235-2.03 1.644-1.387 3.953-1.713 5.998-2.381 5.458-1.783 11.105-2.923 16.673-4.323 6.633-1.666 16.24-5.06 19.936-4.851.368.02.663.292.592 1.11a26.132 26.132 0 0 0-.062 4.27c.26 4.677 1.155 9.295 1.764 13.939.542 4.134 2.21 9.245 2.382 10.85.06.568-.462 1.152-.97 1.412-.997.507-2.09.474-4.039.722-9.872 1.255-18.426 4.779-27.807 8.099a66.72 66.72 0 0 0-4.675 1.852c-1.135.501-1.958-.11-2.118-.838-.162-.74-.39-2.266-.705-3.572-1.105-4.575-2.624-9.044-4.146-13.497-1.24-3.628-3.092-6.769-4.058-10.762z"/>
    <path fill="#f95" stroke="#000" stroke-linecap="round" stroke-linejoin="round" stroke-width=".4" d="M121.819 15.962l.148 3.46c2.23-.359 3.281-.623 8.074-.836l-.171-3.58c-3.258.075-5.95.474-8.051.956z"/>
    <path fill="#fca" fill-rule="evenodd" stroke="#000" stroke-linecap="round" stroke-linejoin="round" stroke-width=".4" d="M132.795 37.876a2.712 2.712 0 0 0-2.098.993 2.554 2.554 0 0 0 .447 3.657c1.163.89 2.85.696 3.767-.433l.002-.002a2.554 2.554 0 0 0-.45-3.657 2.734 2.734 0 0 0-1.668-.558zm-.469 1.741a.292.292 0 0 1 .231.473h0a.293.293 0 1 1-.23-.473zm1.082 1.16a.292.292 0 1 1 0 0zm-4.085 35.018a2.846 2.846 0 0 0-1.493 1.86c-.358 1.456.519 2.878 1.957 3.176 1.438.299 2.893-.639 3.251-2.094l.001-.003c.357-1.456-.52-2.878-1.959-3.175a2.715 2.715 0 0 0-1.757.236zm.31 1.818a.29.29 0 0 1 .41.333h0a.3.3 0 0 1-.354.231.295.295 0 0 1-.218-.357c.02-.09.08-.166.161-.207zm1.478.585a.292.292 0 0 1 .193-.024.294.294 0 0 1 .217.357.3.3 0 0 1-.353.23.294.294 0 0 1-.219-.358.3.3 0 0 1 .162-.205zm-4.521 37.71a2.748 2.748 0 0 0-.477 2.282c.337 1.442 1.743 2.332 3.14 1.987 1.395-.344 2.254-1.791 1.917-3.234v-.003c-.339-1.442-1.745-2.331-3.141-1.986a2.585 2.585 0 0 0-1.438.954zm1.087 1.481a.276.276 0 0 1 .158-.102.298.298 0 0 1 .352.223v.001a.287.287 0 0 1-.208.354.3.3 0 0 1-.352-.225.296.296 0 0 1 .05-.25zm1.56-.107a.278.278 0 0 1 .158-.103.298.298 0 0 1 .351.224.287.287 0 0 1-.208.353.298.298 0 0 1-.352-.224.295.295 0 0 1 .05-.25zm-2.655 36.458c-.801.08-1.523.53-1.958 1.22-.789 1.25-.434 2.914.792 3.718a2.61 2.61 0 0 0 3.648-.804l.002-.003c.787-1.25.432-2.914-.795-3.718a2.602 2.602 0 0 0-1.688-.414zm-.29 1.834c.064-.006.13.01.184.048a.31.31 0 0 1 .088.417h0a.28.28 0 0 1-.398.09.312.312 0 0 1-.087-.418.284.284 0 0 1 .213-.137zm1.172 1.09c.065-.006.13.01.185.047.134.09.173.278.087.418a.279.279 0 0 1-.397.088.312.312 0 0 1-.088-.417.284.284 0 0 1 .213-.136zM102.26 79.245c.236.799.11 1.668-.345 2.36-.823 1.254-2.46 1.581-3.658.732-1.198-.85-1.504-2.554-.682-3.808l.001-.002c.823-1.253 2.46-1.58 3.659-.73.489.348.85.858 1.025 1.448zm-1.543 1.012a.29.29 0 0 0-.524-.074h0a.3.3 0 0 0 .073.417.295.295 0 0 0 .41-.084.307.307 0 0 0 .041-.259zm-1.435-.684a.292.292 0 0 0-.113-.157.294.294 0 0 0-.41.084.3.3 0 0 0 .073.415.294.294 0 0 0 .41-.083.307.307 0 0 0 .04-.259zm3.947-38.655c-.793.051-1.57.453-2.108 1.091-.975 1.154-.907 2.736.15 3.532 1.058.796 2.706.507 3.681-.647l.002-.002c.974-1.155.906-2.736-.153-3.531-.432-.326-.986-.482-1.572-.443zm-.588 1.722a.25.25 0 0 1 .17.05c.116.09.123.267.017.396h0c-.107.13-.287.163-.403.073-.115-.09-.121-.267-.015-.397a.331.331 0 0 1 .23-.122zm.958 1.064a.252.252 0 0 1 .171.05c.115.09.122.267.016.397-.107.129-.287.16-.402.071-.115-.09-.122-.267-.015-.396a.331.331 0 0 1 .23-.122zm-7.241 72.786a2.712 2.712 0 0 0-.552 2.255 2.554 2.554 0 0 0 3.121 1.958c1.424-.342 2.337-1.773 2.038-3.197v-.003a2.554 2.554 0 0 0-3.122-1.956 2.734 2.734 0 0 0-1.485.943zm1.056 1.462a.292.292 0 0 1 .513.119h0a.293.293 0 1 1-.513-.12zm1.583-.109a.292.292 0 1 1 0 0zm-3.493 38.225a2.905 2.905 0 0 0 .203 2.332c.71 1.292 2.233 1.749 3.404 1.02 1.17-.727 1.544-2.365.836-3.657l-.001-.003c-.71-1.291-2.234-1.747-3.404-1.018a2.524 2.524 0 0 0-1.038 1.326zm1.398 1.117a.27.27 0 0 1 .115-.143c.13-.079.301-.027.382.115h0c.08.143.041.322-.09.4-.13.079-.3.026-.381-.116a.313.313 0 0 1-.025-.256zm1.385-.546a.271.271 0 0 1 .115-.145c.13-.078.3-.026.381.117.08.142.04.32-.09.399-.13.078-.3.026-.381-.116a.314.314 0 0 1-.025-.256zm-2.845 38.838a2.905 2.905 0 0 0-.19 2.334c.482 1.392 1.907 2.098 3.183 1.577 1.276-.521 1.92-2.073 1.438-3.465v-.003c-.484-1.393-1.91-2.098-3.185-1.576-.521.213-.96.613-1.246 1.133zm1.191 1.336a.27.27 0 0 1 .138-.122c.141-.055.301.024.357.178h0c.055.154-.014.324-.155.38-.142.055-.302-.025-.357-.18a.313.313 0 0 1 .017-.255zm1.457-.306a.27.27 0 0 1 .138-.123c.141-.055.3.025.356.179.056.153-.014.323-.156.378-.141.055-.3-.025-.356-.178a.313.313 0 0 1 .018-.256zm28.62-2.992a2.631 2.631 0 0 0-2.115.922c-.962 1.12-.854 2.819.242 3.793a2.61 2.61 0 0 0 3.725-.263l.002-.002c.962-1.122.853-2.82-.243-3.794a2.602 2.602 0 0 0-1.61-.656zm-.554 1.773a.28.28 0 0 1 .175.073c.12.11.131.3.027.426h-.001a.28.28 0 0 1-.407.031.312.312 0 0 1-.025-.426.284.284 0 0 1 .23-.104zm1 1.249a.28.28 0 0 1 .176.073c.12.11.13.3.026.426a.279.279 0 0 1-.406.03.312.312 0 0 1-.026-.426.284.284 0 0 1 .23-.103z"/>
    <path fill="url(#linearGradient1009)" stroke="#000" stroke-width=".4" d="M187.685 232.19s-3.725 1.196-9.038 2.507c-9.895 2.44-16.766 3.41-25.912 4.799-11.425 1.734-21.744 2.896-33.323 3.332-8.316.313-25.987-.374-25.987-.374.153 1.522-.277 5.268.184 5.29 1.774.084 13.782.532 20.696.502a306.118 306.118 0 0 0 24.989-1.155c8.51-.742 16.674-1.964 25.118-3.256a216.969 216.969 0 0 0 17.73-3.47c2.334-.56 4.996-1.444 6.44-2.214.415-.221.028-2.811-.374-4.416-.133-.527-.523-1.544-.523-1.544z"/>
    <path d="M175.401 112.42c.022-.079-.073-.18-.125-.227-.019-.018-.034-.018-.034-.018s-.015-.005-.038.005c-.065.028-.19.09-.196.171l-.096.532c-.454 2.482-.735 4.415-1.385 6.48-1.1 2.988-1.87 5.172-1.882 5.206.015-.034.923-2.16 2.135-5.114.719-2.028 1.081-4.063 1.525-6.5l.096-.534zM71.036 233.245c.009.109.005.057.015.144.011.087.028.207.053.338.05.262.117.565.278.787.176.243.367.479.571.708 1.34 1.504 2.934 2.465 4.327 3.035 1.344.551 2.299.682 2.299.682s-.935-.231-2.217-.864a13.563 13.563 0 0 1-4.11-3.12 8.693 8.693 0 0 1-.546-.676c-.076-.105-.163-.386-.209-.627a5.088 5.088 0 0 1-.049-.312c-.01-.081-.005-.028-.014-.13z"/>
</svg>
