<svg xmlns="http://www.w3.org/2000/svg" xmlns:xlink="http://www.w3.org/1999/xlink" cursor="default" viewBox="0 0 256 256">
    <defs>
        <linearGradient id="linearGradient1258">
            <stop offset="0" stop-color="#fca"/>
            <stop offset="1" stop-color="#ffe6d5"/>
        </linearGradient>
        <linearGradient id="linearGradient1210">
            <stop offset="0" stop-color="#ffb380"/>
            <stop offset="1" stop-color="#ffe6d5"/>
        </linearGradient>
        <linearGradient id="innoGrad2">
            <stop offset="0" stop-color="#faa"/>
            <stop offset="1" stop-color="#ffd5d5"/>
        </linearGradient>
        <linearGradient id="innoGrad1">
            <stop offset="0" stop-color="#faa"/>
            <stop offset="1" stop-color="#ffd5d5" stop-opacity="0"/>
        </linearGradient>
        <linearGradient id="linearGradient1181" x1="57.215" x2="145.745" y1="251.271" y2="120.288" gradientUnits="userSpaceOnUse" xlink:href="#innoGrad2"/>
        <linearGradient id="linearGradient1189" x1="85.11" x2="116.012" y1="190.662" y2="176.832" gradientUnits="userSpaceOnUse" xlink:href="#innoGrad1"/>
        <linearGradient id="linearGradient1197" x1="149.376" x2="169.008" y1="201.443" y2="163.477" gradientUnits="userSpaceOnUse" xlink:href="#innoGrad1"/>
        <linearGradient id="linearGradient1212" x1="73.464" x2="193.262" y1="240.995" y2="226.23" gradientUnits="userSpaceOnUse" xlink:href="#linearGradient1210"/>
        <linearGradient id="linearGradient1220" x1="82.068" x2="140.771" y1="153.933" y2="152.399" gradientUnits="userSpaceOnUse" xlink:href="#linearGradient1210"/>
        <linearGradient id="linearGradient1228" x1="138.049" x2="174.17" y1="158.224" y2="155.731" gradientUnits="userSpaceOnUse" xlink:href="#linearGradient1210"/>
        <linearGradient id="linearGradient1236" x1="87.873" x2="177.41" y1="131.945" y2="114.686" gradientUnits="userSpaceOnUse" xlink:href="#linearGradient1210"/>
        <linearGradient id="linearGradient1244" x1="151.824" x2="154.294" y1="138.046" y2="136.163" gradientUnits="userSpaceOnUse" xlink:href="#linearGradient1210"/>
        <linearGradient id="linearGradient1252" x1="156.372" x2="158.562" y1="139.963" y2="139.116" gradientUnits="userSpaceOnUse" xlink:href="#linearGradient1210"/>
        <linearGradient id="linearGradient1260" x1="152.64" x2="126.768" y1="138.833" y2="137.816" gradientUnits="userSpaceOnUse" xlink:href="#linearGradient1258"/>
        <linearGradient id="linearGradient1268" x1="156.369" x2="173.723" y1="139.976" y2="176.123" gradientUnits="userSpaceOnUse" xlink:href="#linearGradient1258"/>
        <linearGradient id="linearGradient1276" x1="132.816" x2="140.412" y1="60.104" y2="7.755" gradientUnits="userSpaceOnUse" xlink:href="#linearGradient1258"/>
        <linearGradient id="linearGradient1284" x1="127.913" x2="159.609" y1="116.11" y2="77.601" gradientUnits="userSpaceOnUse" xlink:href="#innoGrad1"/>
    </defs>
    <path fill="#ffb380" stroke="#000" stroke-width=".4" d="M114.698 10.68c3.7-1.602 10.155-2.092 15.76-2.085 5.001.005 10.206 1.076 14.006 2.859l6.879 6.21 3.766 10.683s-2.374-1.267-3.154-2.935c-1.011-2.163-5.088-6.358-8.556-8.295-3.804-2.125-9.024-3.008-12.668-3.219-5.837-.337-9.969.271-15.202 3.013-3.769 1.975-5.863 6.08-5.863 6.08l-.642-6.49z"/>
    <path fill="url(#linearGradient1181)" stroke="#000" stroke-width=".4" d="M100.533 52.9l-1.506 12.834c-1.248 10.637-2.21 19.985-3.699 30.268-.522 3.606-2.027 7.001-2.875 10.545-1.367 5.712-2.638 11.455-3.56 17.256-.578 3.63-.654 7.328-1.233 10.957-.602 3.775-1.357 7.533-2.328 11.23-.71 2.707-1.626 5.12-2.406 6.305 0 0-1.034 2.307-1.92 5.98-1.406 5.828-2.154 11.763-2.729 17.707-.384 3.98-.718 9.545-.478 11.983.042.433.238.918.506 1.422a62.207 62.207 0 0 1-.233 3.578c-.734 7.492-2.643 14.835-3.424 22.322-.597 5.73-1.007 11.495-.959 17.256.014 1.675.176 4.083.352 6.252 28.567 7.748 99.378 3.855 105.397-3.867-.472-5.458-1.138-13.412-1.432-18.756-.451-8.19-.197-16.413-.776-24.596-.03-.423-.07-.845-.101-1.267.24-.527.374-.943.355-1.18 0 0-.744-8.143-1.185-12.149-.736-6.682-2.6-19.87-2.6-19.87l-.924-6.014c-.674-6.389-1.208-12.791-1.935-19.174-.929-8.147-2.46-16.23-3.1-24.404-.504-6.44-.15-12.923-.58-19.368-.772-11.592-3.584-34.67-3.584-34.67-21.228 2.156-42.178 1.256-63.043-.58z"/>
    <path fill="url(#linearGradient1236)" stroke="#000" stroke-width=".4" d="M88.837 123.731c-.274-.077-.523 3.94-.759 6.337-.058.591.445 1.746 1.658 2.314 8.752 4.095 18.51 5.468 30.382 6.896 4.135.498 8.299.76 12.462.891 5.68.18 17.05-.137 17.05-.137l4.957-.564 8.602-1.3c3.429-1.077 6.182-1.973 7.844-5.181.188-.363-.305-7.442-.774-6.053-.696 2.057-1.883 3.302-3.874 4.358-3.053 1.62-8.019 2.898-11.38 4.94 0 0-1.744.663-3.201.317-2.281-.542-5.618-1.293-7.72-1.584-4.282-.593-10.107-.563-13.284-.754-12.334-.74-27.565-2.846-39.491-7.761-1.382-.57-1.987-1.64-2.417-2.647-.019-.043-.037-.067-.055-.072z"/>
    <path fill="url(#linearGradient1284)" stroke="#000" stroke-width=".4" d="M131.232 77.195v26.643c0 .657 2.129 2.998 2.905 3.002l18.545.097c.987.005 3.138-2.613 3.171-3.414l1.112-26.764c.019-.452-.067-.606-.602-.548-8.034.859-16.068.716-24.102.28-.787-.043-1.03-.142-1.03.704z"/>
    <path fill="#fca" stroke="#000" stroke-width=".4" d="M133.129 76.376l-.094 5.94c-.003.199 3.048.314 3.05.096l.063-5.944c.001-.116-3.017-.242-3.02-.092z"/>
    <path fill="url(#linearGradient1189)" stroke="#000" stroke-width=".4" d="M115.803 159c-.596 11.265-.72 21.892-.125 33.918.087 1.756-17.48 8.764-21.308 8.469-2.703-.209-16.133-8.97-16.571-13.422-.24-2.437.094-8.004.48-11.983.574-5.944 1.32-11.88 2.726-17.707.887-3.673 1.921-5.98 1.921-5.98z"/>
    <path fill="url(#linearGradient1197)" stroke="#000" stroke-width=".4" d="M145.792 160.081c9.305-.615 18.736-1.29 27.907-2.972 0 0 1.865 13.189 2.6 19.872.442 4.005 1.185 12.149 1.185 12.149.139 1.773-7.804 13.019-10.94 13.284-2.41.204-20.578-3.924-20.474-6.78l.753-20.748z"/>
    <path fill="url(#linearGradient1276)" stroke="#000" stroke-width=".4" d="M114.698 10.68c-3.915 1.97-7.425 5.937-10.262 11.573-2.073 4.118-3.33 8.482-3.702 13.078-.696 8.593-.604 15.923-.886 24.515l6.711.274c-.009-8.804-.52-19.869 1.096-29.308.443-2.592 1.036-5.312 2.011-7.822.51-1.624 1.46-4.57 2.166-6.284.687-1.67 1.892-4.107 2.866-6.026zm29.766.774c4.043 3.654 5.564 9.707 7.269 13.987 2.03 5.02 2.572 9.85 3.992 15.231 1.72 6.518 3.013 19.996 3.013 19.996l5.615-.685s-1.114-10.26-2.215-15.419c-1.298-6.082-2.703-12.085-5.1-18.245-1.52-3.905-4.254-8.601-7.422-11.344a26.802 26.802 0 0 0-5.152-3.521z"/>
    <path fill="#ffb380" stroke="#000" stroke-width=".4" d="M132.238 144.346c.097.421.882.569 1.438.514 1.014-.101 2.203-.355 3.286-.617 1.91-.461 5.65-1.677 5.65-1.677l4.108-1.747-1.849-2.567-13.17 3.377z"/>
    <path fill="url(#linearGradient1260)" stroke="#000" stroke-width=".4" d="M130.457 138.252l1.78 6.094c-.041-.01-.08-1.1 1.342-1.595 1.135-.394 2.257-.612 3.444-.793 2.508-.384 4.905-.23 7.335-.557 2.742-.367 8.149-1.575 8.149-1.575l-.48-3.012-1.575-.617s-1.598.1-2.396.069c-1.904-.076-4.626-.329-6.798-.52-3.657-.321-6.704-.366-9.62.74-1.115.424-1.375 1.102-1.18 1.765z"/>
    <path fill="url(#linearGradient1228)" stroke="#000" stroke-width=".4" d="M145.454 154.343c-.66.04-.071 6.002.205 6.026 2.03.177 7.253-.308 11.418-.709 5.464-.59 12.806-1.14 16.717-2.344.428-.131.025-6.396-.676-6.26-10.83 2.113-18.807 2.767-27.664 3.287z"/>
    <path fill="url(#linearGradient1268)" stroke="#000" stroke-width=".4" d="M155.006 136.232l-3.15 3.354c-1.17.789-1.786 1.804-2.213 2.959-.531 1.435-.54 3.245-.301 4.58.482 2.707-.396 5.497-.656 7.717-.735 6.253-1.97 10.568-2.057 18.72-.023 2.14-.58 6.393-.58 6.393l5.81.193s.369-3.675.387-5.52c.087-8.818 1.14-14.042 2.076-21.278.369-2.85.19-4.715-.06-8.344-.121-1.743.662-3.43 2.488-3.885l2.43-1.347s1.19.587 1.714 1.183c.901 1.022 1.678 2.329 2.26 3.56 2.646 5.597 5.618 12.858 8.971 18.973l4.416-2.984c-3.1-7.115-5.487-13.252-9.55-19.72-.887-1.41-2.168-2.605-3.583-3.483-2.094-1.3-5.653-.962-8.402-1.07z"/>
    <path fill="url(#linearGradient1252)" stroke="#000" stroke-width=".4" d="M155.52 138.44c1.408.447 1.479 1.861.77 2.927-.559.847 2.13.252 2.859-.513.404-.425.513-1.381.376-1.952-.364-1.525-1.638-1.692-3.081-2.02z"/>
    <path fill="url(#linearGradient1244)" stroke="#000" stroke-width=".4" d="M154.15 134.999c.452.012.935.03 1.335.24 1.727.905 1.544 2.491.617 3.749-.298.403-1.743.734-2.568.77-.562.025-1.678-.171-1.678-.171s0-1.538-.222-2.226c-.288-.892-1.182-1.164-1.182-1.164s.594-.678.993-.856c.83-.37 1.797-.366 2.705-.342z"/>
    <path fill="url(#linearGradient1220)" stroke="#000" stroke-width=".4" d="M82.269 153.664c.569 1.07 1.85 2.05 2.868 2.567 2.837 1.442 6.086 1.98 9.24 2.402 7.493 1 14.14 1.838 21.47 1.489.4-.02.867-6.68.299-6.668-7.16.151-13.154-.46-20.204-1.402-2.97-.396-6.027-.903-8.697-2.26-.958-.486-1.976-1.344-2.493-2.04-.622-.835-2.467 4.434-2.483 5.912z"/>
    <path fill="url(#linearGradient1212)" stroke="#000" stroke-width=".402" d="M179.55 233.345c-.186-1.965.352 5.238-24.781 6.707-16.964.992-36.506 1.504-53.475.624-23.317-1.209-27.842-4.852-27.609-3.135-.143 2.234.56 6.384.56 6.384.073 1.016 2.641 1.939 4.155 2.295 5.986 1.408 12.16 2 18.3 2.336 21.644 1.18 43.283-.4 65.02-1.168 4.692-.166 9.487-.918 13.821-2.725 1.839-.766 4.744-2.937 4.67-3.895-.06-.777-.34-4.03-.661-7.423z"/>
</svg>
